ISO-10303-21;
HEADER;
FILE_DESCRIPTION (( 'STEP AP203' ),
    '1' );
FILE_NAME ('5862K146.step',
    '2018-07-11T19:14:47',
    ( '' ),
    ( '' ),
    'SwSTEP 2.0',
    'SolidWorks 2014',
    '' );
FILE_SCHEMA (( 'CONFIG_CONTROL_DESIGN' ));
ENDSEC;

DATA;
#1 = LOCAL_TIME ( 14, 14, 47.00000000000000000, #58 ) ;
#2 = APPROVAL_ROLE ( '' ) ;
#3 = CARTESIAN_POINT ( 'NONE',  ( 0.0000000000000000000, 0.0000000000000000000, 0.0000000000000000000 ) ) ;
#4 =( LENGTH_UNIT ( ) NAMED_UNIT ( * ) SI_UNIT ( $, .METRE. ) );
#5 =( CONVERSION_BASED_UNIT ( 'INCH', #277 ) LENGTH_UNIT ( ) NAMED_UNIT ( #131 ) );
#6 = ORIENTED_EDGE ( 'NONE', *, *, #234, .F. ) ;
#7 =( NAMED_UNIT ( * ) PLANE_ANGLE_UNIT ( ) SI_UNIT ( $, .RADIAN. ) );
#8 =( NAMED_UNIT ( * ) SI_UNIT ( $, .STERADIAN. ) SOLID_ANGLE_UNIT ( ) );
#9 = PLANE ( 'NONE',  #116 ) ;
#10 = DIRECTION ( 'NONE',  ( 0.0000000000000000000, 0.0000000000000000000, 1.000000000000000000 ) ) ;
#11 = CYLINDRICAL_SURFACE ( 'NONE', #85, 0.2812500000000000600 ) ;
#12 = APPLICATION_PROTOCOL_DEFINITION ( 'international standard', 'config_control_design', 1994, #13 ) ;
#13 = APPLICATION_CONTEXT ( 'configuration controlled 3d designs of mechanical parts and assemblies' ) ;
#14 = DIRECTION ( 'NONE',  ( 1.000000000000000000, 0.0000000000000000000, 0.0000000000000000000 ) ) ;
#15 = MECHANICAL_CONTEXT ( 'NONE', #13, 'mechanical' ) ;
#16 = CARTESIAN_POINT ( 'NONE',  ( 0.0000000000000000000, 0.03125000000000000000, -0.2812500000000000600 ) ) ;
#17 = PERSON_AND_ORGANIZATION_ROLE ( 'design_owner' ) ;
#18 = ORIENTED_EDGE ( 'NONE', *, *, #151, .T. ) ;
#19 = DIRECTION ( 'NONE',  ( 0.0000000000000000000, -0.0000000000000000000, 1.000000000000000000 ) ) ;
#20 = DIRECTION ( 'NONE',  ( 0.0000000000000000000, 1.000000000000000000, 0.0000000000000000000 ) ) ;
#21 = CARTESIAN_POINT ( 'NONE',  ( 3.406048910128576700E-017, -0.03125000000000000000, -0.2750000000000000200 ) ) ;
#22 = DIRECTION ( 'NONE',  ( 0.0000000000000000000, 1.000000000000000000, 0.0000000000000000000 ) ) ;
#23 = AXIS2_PLACEMENT_3D ( 'NONE', #49, #77, #111 ) ;
#24 = CARTESIAN_POINT ( 'NONE',  ( 0.0000000000000000000, 0.02499999999999999800, 0.0000000000000000000 ) ) ;
#25 = PRODUCT_RELATED_PRODUCT_CATEGORY ( 'detail', '', ( #163 ) ) ;
#26 = CC_DESIGN_SECURITY_CLASSIFICATION ( #34, ( #42 ) ) ;
#27 = APPROVAL ( #282, 'UNSPECIFIED' ) ;
#28 = DIRECTION ( 'NONE',  ( -0.0000000000000000000, -1.000000000000000000, -0.0000000000000000000 ) ) ;
#29 = CC_DESIGN_DATE_AND_TIME_ASSIGNMENT ( #97, #192, ( #34 ) ) ;
#30 = PRODUCT_DEFINITION_SHAPE ( 'NONE', 'NONE',  #55 ) ;
#31 = DIRECTION ( 'NONE',  ( 0.0000000000000000000, 0.0000000000000000000, -1.000000000000000000 ) ) ;
#32 = CARTESIAN_POINT ( 'NONE',  ( 0.0000000000000000000, -0.03125000000000000000, 0.2750000000000000200 ) ) ;
#33 = CC_DESIGN_PERSON_AND_ORGANIZATION_ASSIGNMENT ( #206, #199, ( #34 ) ) ;
#34 = SECURITY_CLASSIFICATION ( '', '', #144 ) ;
#35 = CC_DESIGN_PERSON_AND_ORGANIZATION_ASSIGNMENT ( #198, #105, ( #42 ) ) ;
#36 = DATE_AND_TIME ( #135, #171 ) ;
#37 = CC_DESIGN_PERSON_AND_ORGANIZATION_ASSIGNMENT ( #211, #176, ( #42 ) ) ;
#38 = CC_DESIGN_APPROVAL ( #40, ( #42 ) ) ;
#39 = ORIENTED_EDGE ( 'NONE', *, *, #98, .F. ) ;
#40 = APPROVAL ( #220, 'UNSPECIFIED' ) ;
#41 = MANIFOLD_SOLID_BREP ( 'Fillet1', #114 ) ;
#42 = PRODUCT_DEFINITION_FORMATION_WITH_SPECIFIED_SOURCE ( 'ANY', '', #163, .NOT_KNOWN. ) ;
#43 = CARTESIAN_POINT ( 'NONE',  ( 0.0000000000000000000, 0.03125000000000000000, 0.0000000000000000000 ) ) ;
#44 = CC_DESIGN_DATE_AND_TIME_ASSIGNMENT ( #103, #81, ( #55 ) ) ;
#45 = EDGE_LOOP ( 'NONE', ( #232, #73, #251, #267 ) ) ;
#46 = EDGE_LOOP ( 'NONE', ( #120, #157, #269, #253 ) ) ;
#47 = CC_DESIGN_PERSON_AND_ORGANIZATION_ASSIGNMENT ( #259, #248, ( #55 ) ) ;
#48 = CARTESIAN_POINT ( 'NONE',  ( 3.367778697655221900E-017, 0.02499999999999999800, -0.2750000000000000200 ) ) ;
#49 = CARTESIAN_POINT ( 'NONE',  ( 3.367778697655221900E-017, -0.02499999999999999800, -0.2750000000000000200 ) ) ;
#50 = APPROVAL_DATE_TIME ( #92, #53 ) ;
#51 = CC_DESIGN_APPROVAL ( #53, ( #55 ) ) ;
#52 = DIRECTION ( 'NONE',  ( 0.0000000000000000000, 0.0000000000000000000, 1.000000000000000000 ) ) ;
#53 = APPROVAL ( #170, 'UNSPECIFIED' ) ;
#54 = VERTEX_POINT ( 'NONE', #21 ) ;
#55 = PRODUCT_DEFINITION ( 'UNKNOWN', '', #42, #84 ) ;
#56 = CC_DESIGN_PERSON_AND_ORGANIZATION_ASSIGNMENT ( #173, #17, ( #163 ) ) ;
#57 = AXIS2_PLACEMENT_3D ( 'NONE', #3, #217, #14 ) ;
#58 = COORDINATED_UNIVERSAL_TIME_OFFSET ( 6, 0, .BEHIND. ) ;
#59 = DIRECTION ( 'NONE',  ( -1.000000000000000000, 0.0000000000000000000, 0.0000000000000000000 ) ) ;
#60 = DIRECTION ( 'NONE',  ( -0.0000000000000000000, -1.000000000000000000, -0.0000000000000000000 ) ) ;
#61 = DIRECTION ( 'NONE',  ( 0.0000000000000000000, 1.000000000000000000, 0.0000000000000000000 ) ) ;
#62 = TOROIDAL_SURFACE ( 'NONE', #82, 0.2750000000000000200, 0.006250000000000000300 ) ;
#63 = DIRECTION ( 'NONE',  ( 0.0000000000000000000, 1.000000000000000000, 0.0000000000000000000 ) ) ;
#64 = DIRECTION ( 'NONE',  ( -0.0000000000000000000, -1.000000000000000000, -0.0000000000000000000 ) ) ;
#65 = APPLICATION_CONTEXT ( 'configuration controlled 3d designs of mechanical parts and assemblies' ) ;
#66 = CC_DESIGN_APPROVAL ( #27, ( #34 ) ) ;
#67 =( GEOMETRIC_REPRESENTATION_CONTEXT ( 3 ) GLOBAL_UNCERTAINTY_ASSIGNED_CONTEXT ( ( #182 ) ) GLOBAL_UNIT_ASSIGNED_CONTEXT ( ( #5, #7, #8 ) ) REPRESENTATION_CONTEXT ( 'NONE', 'WORKASPACE' ) );
#68 = APPROVAL_PERSON_ORGANIZATION ( #235, #53, #2 ) ;
#69 = DIRECTION ( 'NONE',  ( -0.0000000000000000000, -1.000000000000000000, -0.0000000000000000000 ) ) ;
#70 = CARTESIAN_POINT ( 'NONE',  ( 0.0000000000000000000, 0.03125000000000000000, 0.2750000000000000200 ) ) ;
#71 = AXIS2_PLACEMENT_3D ( 'NONE', #24, #258, #10 ) ;
#72 = AXIS2_PLACEMENT_3D ( 'NONE', #228, #227, #224 ) ;
#73 = ORIENTED_EDGE ( 'NONE', *, *, #234, .T. ) ;
#74 = AXIS2_PLACEMENT_3D ( 'NONE', #147, #20, #86 ) ;
#75 = AXIS2_PLACEMENT_3D ( 'NONE', #164, #61, #145 ) ;
#76 = CARTESIAN_POINT ( 'NONE',  ( 3.444319122601931000E-017, 0.03125000000000000000, 0.2812500000000000600 ) ) ;
#77 = DIRECTION ( 'NONE',  ( 1.000000000000000000, -0.0000000000000000000, 1.224646799147353200E-016 ) ) ;
#78 = DIRECTION ( 'NONE',  ( -0.0000000000000000000, -1.000000000000000000, -0.0000000000000000000 ) ) ;
#79 = FACE_OUTER_BOUND ( 'NONE', #237, .T. ) ;
#80 = AXIS2_PLACEMENT_3D ( 'NONE', #125, #63, #122 ) ;
#81 = DATE_TIME_ROLE ( 'creation_date' ) ;
#82 = AXIS2_PLACEMENT_3D ( 'NONE', #118, #119, #207 ) ;
#83 = AXIS2_PLACEMENT_3D ( 'NONE', #87, #130, #183 ) ;
#84 = DESIGN_CONTEXT ( 'detailed design', #65, 'design' ) ;
#85 = AXIS2_PLACEMENT_3D ( 'NONE', #254, #28, #31 ) ;
#86 = DIRECTION ( 'NONE',  ( 0.0000000000000000000, 0.0000000000000000000, 1.000000000000000000 ) ) ;
#87 = CARTESIAN_POINT ( 'NONE',  ( 0.0000000000000000000, -0.03125000000000000000, 0.0000000000000000000 ) ) ;
#88 = AXIS2_PLACEMENT_3D ( 'NONE', #104, #108, #274 ) ;
#89 = CARTESIAN_POINT ( 'NONE',  ( 0.0000000000000000000, 0.03125000000000000000, 0.0000000000000000000 ) ) ;
#90 = PLANE ( 'NONE',  #83 ) ;
#91 = CARTESIAN_POINT ( 'NONE',  ( 0.0000000000000000000, 0.02499999999999999800, 0.0000000000000000000 ) ) ;
#92 = DATE_AND_TIME ( #140, #263 ) ;
#93 = AXIS2_PLACEMENT_3D ( 'NONE', #159, #169, #115 ) ;
#94 = EDGE_CURVE ( 'NONE', #54, #201, #203, .T. ) ;
#95 = DIRECTION ( 'NONE',  ( -1.000000000000000000, 0.0000000000000000000, 0.0000000000000000000 ) ) ;
#96 = CARTESIAN_POINT ( 'NONE',  ( 0.0000000000000000000, 0.03125000000000000000, 0.0000000000000000000 ) ) ;
#97 = DATE_AND_TIME ( #148, #252 ) ;
#98 = EDGE_CURVE ( 'NONE', #262, #216, #261, .T. ) ;
#99 = AXIS2_PLACEMENT_3D ( 'NONE', #138, #60, #52 ) ;
#100 = AXIS2_PLACEMENT_3D ( 'NONE', #96, #117, #187 ) ;
#101 = EDGE_CURVE ( 'NONE', #54, #236, #155, .T. ) ;
#102 = DIRECTION ( 'NONE',  ( 0.0000000000000000000, 0.0000000000000000000, -1.000000000000000000 ) ) ;
#103 = DATE_AND_TIME ( #149, #1 ) ;
#104 = CARTESIAN_POINT ( 'NONE',  ( 0.0000000000000000000, -0.02499999999999999800, 0.0000000000000000000 ) ) ;
#105 = PERSON_AND_ORGANIZATION_ROLE ( 'design_supplier' ) ;
#106 = AXIS2_PLACEMENT_3D ( 'NONE', #91, #265, #245 ) ;
#107 = ADVANCED_FACE ( 'NONE', ( #246 ), #247, .T. ) ;
#108 = DIRECTION ( 'NONE',  ( 0.0000000000000000000, 1.000000000000000000, 0.0000000000000000000 ) ) ;
#109 = EDGE_CURVE ( 'NONE', #216, #262, #256, .T. ) ;
#110 = VECTOR ( 'NONE', #78, 39.37007874015748100 ) ;
#111 = DIRECTION ( 'NONE',  ( 1.224646799147351700E-016, 0.0000000000000000000, -1.000000000000000000 ) ) ;
#112 = APPLICATION_PROTOCOL_DEFINITION ( 'international standard', 'config_control_design', 1994, #65 ) ;
#113 = AXIS2_PLACEMENT_3D ( 'NONE', #160, #95, #128 ) ;
#114 = CLOSED_SHELL ( 'NONE', ( #107, #204, #178, #121, #139, #181, #174, #189 ) ) ;
#115 = DIRECTION ( 'NONE',  ( 0.0000000000000000000, 0.0000000000000000000, 1.000000000000000000 ) ) ;
#116 = AXIS2_PLACEMENT_3D ( 'NONE', #194, #132, #19 ) ;
#117 = DIRECTION ( 'NONE',  ( 0.0000000000000000000, 1.000000000000000000, 0.0000000000000000000 ) ) ;
#118 = CARTESIAN_POINT ( 'NONE',  ( 0.0000000000000000000, 0.02499999999999999800, 0.0000000000000000000 ) ) ;
#119 = DIRECTION ( 'NONE',  ( 0.0000000000000000000, 1.000000000000000000, 0.0000000000000000000 ) ) ;
#120 = ORIENTED_EDGE ( 'NONE', *, *, #94, .F. ) ;
#121 = ADVANCED_FACE ( 'NONE', ( #168 ), #272, .T. ) ;
#122 = DIRECTION ( 'NONE',  ( 0.0000000000000000000, 0.0000000000000000000, 1.000000000000000000 ) ) ;
#123 = AXIS2_PLACEMENT_3D ( 'NONE', #89, #69, #102 ) ;
#124 = CIRCLE ( 'NONE', #93, 0.2812500000000000600 ) ;
#125 = CARTESIAN_POINT ( 'NONE',  ( 0.0000000000000000000, -0.02499999999999999800, 0.0000000000000000000 ) ) ;
#126 = FACE_OUTER_BOUND ( 'NONE', #231, .T. ) ;
#127 = EDGE_CURVE ( 'NONE', #201, #225, #273, .T. ) ;
#128 = DIRECTION ( 'NONE',  ( 0.0000000000000000000, 0.0000000000000000000, 1.000000000000000000 ) ) ;
#129 = COORDINATED_UNIVERSAL_TIME_OFFSET ( 6, 0, .BEHIND. ) ;
#130 = DIRECTION ( 'NONE',  ( 0.0000000000000000000, 1.000000000000000000, 0.0000000000000000000 ) ) ;
#131 = DIMENSIONAL_EXPONENTS ( 1.000000000000000000, 0.0000000000000000000, 0.0000000000000000000, 0.0000000000000000000, 0.0000000000000000000, 0.0000000000000000000, 0.0000000000000000000 ) ;
#132 = DIRECTION ( 'NONE',  ( 0.0000000000000000000, 1.000000000000000000, 0.0000000000000000000 ) ) ;
#133 = DIRECTION ( 'NONE',  ( 1.224646799147351700E-016, 0.0000000000000000000, -1.000000000000000000 ) ) ;
#134 = CARTESIAN_POINT ( 'NONE',  ( 3.444319122601931000E-017, -0.02499999999999999800, 0.2812500000000000600 ) ) ;
#135 = CALENDAR_DATE ( 2018, 11, 7 ) ;
#136 = ORIENTED_EDGE ( 'NONE', *, *, #98, .T. ) ;
#137 = COORDINATED_UNIVERSAL_TIME_OFFSET ( 6, 0, .BEHIND. ) ;
#138 = CARTESIAN_POINT ( 'NONE',  ( 0.0000000000000000000, -0.03125000000000000000, 0.0000000000000000000 ) ) ;
#139 = ADVANCED_FACE ( 'NONE', ( #180 ), #9, .T. ) ;
#140 = CALENDAR_DATE ( 2018, 11, 7 ) ;
#141 = AXIS2_PLACEMENT_3D ( 'NONE', #177, #59, #175 ) ;
#142 = AXIS2_PLACEMENT_3D ( 'NONE', #48, #166, #133 ) ;
#143 = EDGE_CURVE ( 'NONE', #196, #225, #223, .T. ) ;
#144 = SECURITY_CLASSIFICATION_LEVEL ( 'unclassified' ) ;
#145 = DIRECTION ( 'NONE',  ( 0.0000000000000000000, 0.0000000000000000000, 1.000000000000000000 ) ) ;
#146 = AXIS2_PLACEMENT_3D ( 'NONE', #43, #22, #275 ) ;
#147 = CARTESIAN_POINT ( 'NONE',  ( 0.0000000000000000000, -0.02499999999999999800, 0.0000000000000000000 ) ) ;
#148 = CALENDAR_DATE ( 2018, 11, 7 ) ;
#149 = CALENDAR_DATE ( 2018, 11, 7 ) ;
#150 = SHAPE_DEFINITION_REPRESENTATION ( #30, #191 ) ;
#151 = EDGE_CURVE ( 'NONE', #196, #216, #222, .T. ) ;
#152 = APPROVAL_DATE_TIME ( #186, #40 ) ;
#153 = CIRCLE ( 'NONE', #80, 0.2812500000000000600 ) ;
#154 = ORIENTED_EDGE ( 'NONE', *, *, #190, .F. ) ;
#155 = CIRCLE ( 'NONE', #23, 0.006250000000000001200 ) ;
#156 = EDGE_CURVE ( 'NONE', #264, #236, #280, .T. ) ;
#157 = ORIENTED_EDGE ( 'NONE', *, *, #101, .T. ) ;
#158 = PERSON ( 'UNSPECIFIED', 'UNSPECIFIED', 'UNSPECIFIED', ('UNSPECIFIED'), ('UNSPECIFIED'), ('UNSPECIFIED') ) ;
#159 = CARTESIAN_POINT ( 'NONE',  ( 0.0000000000000000000, 0.02499999999999999800, 0.0000000000000000000 ) ) ;
#160 = CARTESIAN_POINT ( 'NONE',  ( 0.0000000000000000000, -0.02499999999999999800, 0.2750000000000000200 ) ) ;
#161 = EDGE_CURVE ( 'NONE', #264, #262, #221, .T. ) ;
#162 = ORIENTED_EDGE ( 'NONE', *, *, #215, .T. ) ;
#163 = PRODUCT ( '5862K146', '5862K146', '', ( #15 ) ) ;
#164 = CARTESIAN_POINT ( 'NONE',  ( 0.0000000000000000000, -0.02499999999999999800, 0.0000000000000000000 ) ) ;
#165 = TOROIDAL_SURFACE ( 'NONE', #74, 0.2750000000000000200, 0.006250000000000000300 ) ;
#166 = DIRECTION ( 'NONE',  ( 1.000000000000000000, -0.0000000000000000000, 1.224646799147353200E-016 ) ) ;
#167 = ORIENTED_EDGE ( 'NONE', *, *, #109, .F. ) ;
#168 = FACE_OUTER_BOUND ( 'NONE', #45, .T. ) ;
#169 = DIRECTION ( 'NONE',  ( -0.0000000000000000000, -1.000000000000000000, -0.0000000000000000000 ) ) ;
#170 = APPROVAL_STATUS ( 'not_yet_approved' ) ;
#171 = LOCAL_TIME ( 14, 14, 47.00000000000000000, #250 ) ;
#172 = ORIENTED_EDGE ( 'NONE', *, *, #161, .F. ) ;
#173 = PERSON_AND_ORGANIZATION ( #158, #268 ) ;
#174 = ADVANCED_FACE ( 'NONE', ( #126 ), #238, .T. ) ;
#175 = DIRECTION ( 'NONE',  ( 0.0000000000000000000, 0.0000000000000000000, 1.000000000000000000 ) ) ;
#176 = PERSON_AND_ORGANIZATION_ROLE ( 'creator' ) ;
#177 = CARTESIAN_POINT ( 'NONE',  ( 0.0000000000000000000, 0.02499999999999999800, 0.2750000000000000200 ) ) ;
#178 = ADVANCED_FACE ( 'NONE', ( #208 ), #11, .T. ) ;
#179 = APPROVAL_PERSON_ORGANIZATION ( #249, #40, #279 ) ;
#180 = FACE_OUTER_BOUND ( 'NONE', #244, .T. ) ;
#181 = ADVANCED_FACE ( 'NONE', ( #79 ), #90, .F. ) ;
#182 = UNCERTAINTY_MEASURE_WITH_UNIT (LENGTH_MEASURE( 1.000000000000000100E-005 ), #5, 'distance_accuracy_value', 'NONE');
#183 = DIRECTION ( 'NONE',  ( 0.0000000000000000000, -0.0000000000000000000, 1.000000000000000000 ) ) ;
#184 = CARTESIAN_POINT ( 'NONE',  ( 0.0000000000000000000, -0.02499999999999999800, -0.2812500000000000600 ) ) ;
#185 = FACE_OUTER_BOUND ( 'NONE', #266, .T. ) ;
#186 = DATE_AND_TIME ( #205, #193 ) ;
#187 = DIRECTION ( 'NONE',  ( 0.0000000000000000000, 0.0000000000000000000, 1.000000000000000000 ) ) ;
#188 = CIRCLE ( 'NONE', #75, 0.2812500000000000600 ) ;
#189 = ADVANCED_FACE ( 'NONE', ( #185 ), #62, .T. ) ;
#190 = EDGE_CURVE ( 'NONE', #264, #196, #124, .T. ) ;
#191 = ADVANCED_BREP_SHAPE_REPRESENTATION ( '5862K146', ( #41, #57 ), #67 ) ;
#192 = DATE_TIME_ROLE ( 'classification_date' ) ;
#193 = LOCAL_TIME ( 14, 14, 47.00000000000000000, #271 ) ;
#194 = CARTESIAN_POINT ( 'NONE',  ( 0.0000000000000000000, 0.03125000000000000000, 0.0000000000000000000 ) ) ;
#195 = FACE_OUTER_BOUND ( 'NONE', #46, .T. ) ;
#196 = VERTEX_POINT ( 'NONE', #202 ) ;
#197 = EDGE_CURVE ( 'NONE', #236, #225, #153, .T. ) ;
#198 = PERSON_AND_ORGANIZATION ( #158, #268 ) ;
#199 = PERSON_AND_ORGANIZATION_ROLE ( 'classification_officer' ) ;
#200 = CIRCLE ( 'NONE', #71, 0.2812500000000000600 ) ;
#201 = VERTEX_POINT ( 'NONE', #32 ) ;
#202 = CARTESIAN_POINT ( 'NONE',  ( 3.444319122601931000E-017, 0.02499999999999999800, 0.2812500000000000600 ) ) ;
#203 = CIRCLE ( 'NONE', #99, 0.2750000000000000200 ) ;
#204 = ADVANCED_FACE ( 'NONE', ( #195 ), #165, .T. ) ;
#205 = CALENDAR_DATE ( 2018, 11, 7 ) ;
#206 = PERSON_AND_ORGANIZATION ( #158, #268 ) ;
#207 = DIRECTION ( 'NONE',  ( 0.0000000000000000000, 0.0000000000000000000, 1.000000000000000000 ) ) ;
#208 = FACE_OUTER_BOUND ( 'NONE', #260, .T. ) ;
#209 = CIRCLE ( 'NONE', #72, 0.2750000000000000200 ) ;
#210 = APPROVAL_PERSON_ORGANIZATION ( #239, #27, #218 ) ;
#211 = PERSON_AND_ORGANIZATION ( #158, #268 ) ;
#212 = CARTESIAN_POINT ( 'NONE',  ( 3.406048910128576700E-017, 0.03125000000000000000, -0.2750000000000000200 ) ) ;
#213 = ORIENTED_EDGE ( 'NONE', *, *, #109, .T. ) ;
#214 = ORIENTED_EDGE ( 'NONE', *, *, #127, .T. ) ;
#215 = EDGE_CURVE ( 'NONE', #225, #236, #188, .T. ) ;
#216 = VERTEX_POINT ( 'NONE', #70 ) ;
#217 = DIRECTION ( 'NONE',  ( 0.0000000000000000000, 0.0000000000000000000, 1.000000000000000000 ) ) ;
#218 = APPROVAL_ROLE ( '' ) ;
#219 = ORIENTED_EDGE ( 'NONE', *, *, #230, .F. ) ;
#220 = APPROVAL_STATUS ( 'not_yet_approved' ) ;
#221 = CIRCLE ( 'NONE', #142, 0.006250000000000001200 ) ;
#222 = CIRCLE ( 'NONE', #141, 0.006250000000000001200 ) ;
#223 = LINE ( 'NONE', #76, #233 ) ;
#224 = DIRECTION ( 'NONE',  ( 0.0000000000000000000, 0.0000000000000000000, 1.000000000000000000 ) ) ;
#225 = VERTEX_POINT ( 'NONE', #134 ) ;
#226 = EDGE_LOOP ( 'NONE', ( #154, #255, #167, #243 ) ) ;
#227 = DIRECTION ( 'NONE',  ( -0.0000000000000000000, -1.000000000000000000, -0.0000000000000000000 ) ) ;
#228 = CARTESIAN_POINT ( 'NONE',  ( 0.0000000000000000000, -0.03125000000000000000, 0.0000000000000000000 ) ) ;
#229 = ORIENTED_EDGE ( 'NONE', *, *, #94, .T. ) ;
#230 = EDGE_CURVE ( 'NONE', #201, #54, #209, .T. ) ;
#231 = EDGE_LOOP ( 'NONE', ( #281, #219, #214, #276 ) ) ;
#232 = ORIENTED_EDGE ( 'NONE', *, *, #143, .F. ) ;
#233 = VECTOR ( 'NONE', #64, 39.37007874015748100 ) ;
#234 = EDGE_CURVE ( 'NONE', #196, #264, #200, .T. ) ;
#235 = PERSON_AND_ORGANIZATION ( #158, #268 ) ;
#236 = VERTEX_POINT ( 'NONE', #184 ) ;
#237 = EDGE_LOOP ( 'NONE', ( #241, #229 ) ) ;
#238 = TOROIDAL_SURFACE ( 'NONE', #88, 0.2750000000000000200, 0.006250000000000000300 ) ;
#239 = PERSON_AND_ORGANIZATION ( #158, #268 ) ;
#240 = CARTESIAN_POINT ( 'NONE',  ( 0.0000000000000000000, 0.02499999999999999800, -0.2812500000000000600 ) ) ;
#241 = ORIENTED_EDGE ( 'NONE', *, *, #230, .T. ) ;
#242 = APPROVAL_DATE_TIME ( #36, #27 ) ;
#243 = ORIENTED_EDGE ( 'NONE', *, *, #151, .F. ) ;
#244 = EDGE_LOOP ( 'NONE', ( #213, #136 ) ) ;
#245 = DIRECTION ( 'NONE',  ( 0.0000000000000000000, 0.0000000000000000000, 1.000000000000000000 ) ) ;
#246 = FACE_OUTER_BOUND ( 'NONE', #226, .T. ) ;
#247 = TOROIDAL_SURFACE ( 'NONE', #106, 0.2750000000000000200, 0.006250000000000000300 ) ;
#248 = PERSON_AND_ORGANIZATION_ROLE ( 'creator' ) ;
#249 = PERSON_AND_ORGANIZATION ( #158, #268 ) ;
#250 = COORDINATED_UNIVERSAL_TIME_OFFSET ( 6, 0, .BEHIND. ) ;
#251 = ORIENTED_EDGE ( 'NONE', *, *, #156, .T. ) ;
#252 = LOCAL_TIME ( 14, 14, 47.00000000000000000, #137 ) ;
#253 = ORIENTED_EDGE ( 'NONE', *, *, #127, .F. ) ;
#254 = CARTESIAN_POINT ( 'NONE',  ( 0.0000000000000000000, 0.03125000000000000000, 0.0000000000000000000 ) ) ;
#255 = ORIENTED_EDGE ( 'NONE', *, *, #161, .T. ) ;
#256 = CIRCLE ( 'NONE', #100, 0.2750000000000000200 ) ;
#257 = ORIENTED_EDGE ( 'NONE', *, *, #143, .T. ) ;
#258 = DIRECTION ( 'NONE',  ( -0.0000000000000000000, -1.000000000000000000, -0.0000000000000000000 ) ) ;
#259 = PERSON_AND_ORGANIZATION ( #158, #268 ) ;
#260 = EDGE_LOOP ( 'NONE', ( #270, #257, #162, #278 ) ) ;
#261 = CIRCLE ( 'NONE', #146, 0.2750000000000000200 ) ;
#262 = VERTEX_POINT ( 'NONE', #212 ) ;
#263 = LOCAL_TIME ( 14, 14, 47.00000000000000000, #129 ) ;
#264 = VERTEX_POINT ( 'NONE', #240 ) ;
#265 = DIRECTION ( 'NONE',  ( 0.0000000000000000000, 1.000000000000000000, 0.0000000000000000000 ) ) ;
#266 = EDGE_LOOP ( 'NONE', ( #172, #6, #18, #39 ) ) ;
#267 = ORIENTED_EDGE ( 'NONE', *, *, #197, .T. ) ;
#268 = ORGANIZATION ( 'UNSPECIFIED', 'UNSPECIFIED', '' ) ;
#269 = ORIENTED_EDGE ( 'NONE', *, *, #215, .F. ) ;
#270 = ORIENTED_EDGE ( 'NONE', *, *, #190, .T. ) ;
#271 = COORDINATED_UNIVERSAL_TIME_OFFSET ( 6, 0, .BEHIND. ) ;
#272 = CYLINDRICAL_SURFACE ( 'NONE', #123, 0.2812500000000000600 ) ;
#273 = CIRCLE ( 'NONE', #113, 0.006250000000000001200 ) ;
#274 = DIRECTION ( 'NONE',  ( 0.0000000000000000000, 0.0000000000000000000, 1.000000000000000000 ) ) ;
#275 = DIRECTION ( 'NONE',  ( 0.0000000000000000000, 0.0000000000000000000, 1.000000000000000000 ) ) ;
#276 = ORIENTED_EDGE ( 'NONE', *, *, #197, .F. ) ;
#277 = LENGTH_MEASURE_WITH_UNIT ( LENGTH_MEASURE( 0.02539999999999999900 ), #4 );
#278 = ORIENTED_EDGE ( 'NONE', *, *, #156, .F. ) ;
#279 = APPROVAL_ROLE ( '' ) ;
#280 = LINE ( 'NONE', #16, #110 ) ;
#281 = ORIENTED_EDGE ( 'NONE', *, *, #101, .F. ) ;
#282 = APPROVAL_STATUS ( 'not_yet_approved' ) ;
ENDSEC;
END-ISO-10303-21;
