ISO-10303-21;
HEADER;
FILE_DESCRIPTION (( 'STEP AP203' ),
    '1' );
FILE_NAME ('5862K158.step',
    '2018-07-11T19:14:20',
    ( '' ),
    ( '' ),
    'SwSTEP 2.0',
    'SolidWorks 2014',
    '' );
FILE_SCHEMA (( 'CONFIG_CONTROL_DESIGN' ));
ENDSEC;

DATA;
#1 = PLANE ( 'NONE',  #61 ) ;
#2 = CC_DESIGN_APPROVAL ( #6, ( #15 ) ) ;
#3 = DIRECTION ( 'NONE',  ( 0.0000000000000000000, 0.0000000000000000000, 1.000000000000000000 ) ) ;
#4 = CALENDAR_DATE ( 2018, 11, 7 ) ;
#5 = CIRCLE ( 'NONE', #71, 0.2812500000000000600 ) ;
#6 = APPROVAL ( #228, 'UNSPECIFIED' ) ;
#7 =( LENGTH_UNIT ( ) NAMED_UNIT ( * ) SI_UNIT ( $, .METRE. ) );
#8 =( CONVERSION_BASED_UNIT ( 'INCH', #258 ) LENGTH_UNIT ( ) NAMED_UNIT ( #152 ) );
#9 = CC_DESIGN_DATE_AND_TIME_ASSIGNMENT ( #176, #277, ( #15 ) ) ;
#10 =( NAMED_UNIT ( * ) PLANE_ANGLE_UNIT ( ) SI_UNIT ( $, .RADIAN. ) );
#11 = EDGE_LOOP ( 'NONE', ( #192, #211, #205, #190 ) ) ;
#12 =( NAMED_UNIT ( * ) SI_UNIT ( $, .STERADIAN. ) SOLID_ANGLE_UNIT ( ) );
#13 = CC_DESIGN_PERSON_AND_ORGANIZATION_ASSIGNMENT ( #157, #264, ( #15 ) ) ;
#14 = APPLICATION_PROTOCOL_DEFINITION ( 'international standard', 'config_control_design', 1994, #19 ) ;
#15 = SECURITY_CLASSIFICATION ( '', '', #266 ) ;
#16 = APPROVAL_PERSON_ORGANIZATION ( #67, #30, #194 ) ;
#17 = CIRCLE ( 'NONE', #86, 0.2812500000000000600 ) ;
#18 = DIRECTION ( 'NONE',  ( 0.0000000000000000000, -0.0000000000000000000, 1.000000000000000000 ) ) ;
#19 = APPLICATION_CONTEXT ( 'configuration controlled 3d designs of mechanical parts and assemblies' ) ;
#20 = CARTESIAN_POINT ( 'NONE',  ( 0.0000000000000000000, 0.0000000000000000000, 0.0000000000000000000 ) ) ;
#21 = DIRECTION ( 'NONE',  ( 0.0000000000000000000, 0.0000000000000000000, 1.000000000000000000 ) ) ;
#22 = DIRECTION ( 'NONE',  ( 1.000000000000000000, 0.0000000000000000000, 0.0000000000000000000 ) ) ;
#23 = MECHANICAL_CONTEXT ( 'NONE', #19, 'mechanical' ) ;
#24 = CC_DESIGN_PERSON_AND_ORGANIZATION_ASSIGNMENT ( #96, #160, ( #32 ) ) ;
#25 = CC_DESIGN_PERSON_AND_ORGANIZATION_ASSIGNMENT ( #103, #112, ( #32 ) ) ;
#26 = DIRECTION ( 'NONE',  ( 0.0000000000000000000, 1.000000000000000000, 0.0000000000000000000 ) ) ;
#27 = PERSON_AND_ORGANIZATION_ROLE ( 'creator' ) ;
#28 = CC_DESIGN_APPROVAL ( #30, ( #32 ) ) ;
#29 = DIRECTION ( 'NONE',  ( 0.0000000000000000000, 0.0000000000000000000, 1.000000000000000000 ) ) ;
#30 = APPROVAL ( #276, 'UNSPECIFIED' ) ;
#31 = ORIENTED_EDGE ( 'NONE', *, *, #154, .F. ) ;
#32 = PRODUCT_DEFINITION_FORMATION_WITH_SPECIFIED_SOURCE ( 'ANY', '', #274, .NOT_KNOWN. ) ;
#33 = DIRECTION ( 'NONE',  ( 0.0000000000000000000, 0.0000000000000000000, 1.000000000000000000 ) ) ;
#34 = CC_DESIGN_DATE_AND_TIME_ASSIGNMENT ( #187, #231, ( #45 ) ) ;
#35 = LOCAL_TIME ( 14, 14, 20.00000000000000000, #83 ) ;
#36 = EDGE_LOOP ( 'NONE', ( #280, #254, #114, #31 ) ) ;
#37 = CC_DESIGN_PERSON_AND_ORGANIZATION_ASSIGNMENT ( #75, #27, ( #45 ) ) ;
#38 = PRODUCT_DEFINITION_SHAPE ( 'NONE', 'NONE',  #45 ) ;
#39 = DIRECTION ( 'NONE',  ( -0.0000000000000000000, -1.000000000000000000, -0.0000000000000000000 ) ) ;
#40 = DIRECTION ( 'NONE',  ( 0.0000000000000000000, 1.000000000000000000, 0.0000000000000000000 ) ) ;
#41 = DIRECTION ( 'NONE',  ( 0.0000000000000000000, 0.0000000000000000000, 1.000000000000000000 ) ) ;
#42 = CC_DESIGN_APPROVAL ( #43, ( #45 ) ) ;
#43 = APPROVAL ( #279, 'UNSPECIFIED' ) ;
#44 = CIRCLE ( 'NONE', #79, 0.2812500000000000600 ) ;
#45 = PRODUCT_DEFINITION ( 'UNKNOWN', '', #32, #222 ) ;
#46 = AXIS2_PLACEMENT_3D ( 'NONE', #72, #63, #177 ) ;
#47 = DIRECTION ( 'NONE',  ( 0.0000000000000000000, 0.0000000000000000000, -1.000000000000000000 ) ) ;
#48 = CARTESIAN_POINT ( 'NONE',  ( 0.0000000000000000000, 0.06250000000000000000, 0.2687500000000000400 ) ) ;
#49 = CC_DESIGN_PERSON_AND_ORGANIZATION_ASSIGNMENT ( #282, #70, ( #274 ) ) ;
#50 = UNCERTAINTY_MEASURE_WITH_UNIT (LENGTH_MEASURE( 1.000000000000000100E-005 ), #8, 'distance_accuracy_value', 'NONE');
#51 = AXIS2_PLACEMENT_3D ( 'NONE', #20, #21, #22 ) ;
#52 = CIRCLE ( 'NONE', #80, 0.01250000000000000200 ) ;
#53 = DIRECTION ( 'NONE',  ( -0.0000000000000000000, -1.000000000000000000, -0.0000000000000000000 ) ) ;
#54 = FACE_OUTER_BOUND ( 'NONE', #138, .T. ) ;
#55 = PERSON_AND_ORGANIZATION ( #113, #271 ) ;
#56 = ADVANCED_FACE ( 'NONE', ( #54 ), #171, .T. ) ;
#57 = AXIS2_PLACEMENT_3D ( 'NONE', #259, #115, #213 ) ;
#58 = CARTESIAN_POINT ( 'NONE',  ( 3.367778697655221900E-017, -0.06250000000000000000, -0.2687500000000000400 ) ) ;
#59 = CC_DESIGN_SECURITY_CLASSIFICATION ( #15, ( #32 ) ) ;
#60 = APPROVAL_DATE_TIME ( #235, #6 ) ;
#61 = AXIS2_PLACEMENT_3D ( 'NONE', #227, #268, #18 ) ;
#62 =( GEOMETRIC_REPRESENTATION_CONTEXT ( 3 ) GLOBAL_UNCERTAINTY_ASSIGNED_CONTEXT ( ( #50 ) ) GLOBAL_UNIT_ASSIGNED_CONTEXT ( ( #8, #10, #12 ) ) REPRESENTATION_CONTEXT ( 'NONE', 'WORKASPACE' ) );
#63 = DIRECTION ( 'NONE',  ( 0.0000000000000000000, 1.000000000000000000, 0.0000000000000000000 ) ) ;
#64 = CARTESIAN_POINT ( 'NONE',  ( 0.0000000000000000000, -0.04999999999999999600, 0.0000000000000000000 ) ) ;
#65 = DIRECTION ( 'NONE',  ( 0.0000000000000000000, 1.000000000000000000, 0.0000000000000000000 ) ) ;
#66 = AXIS2_PLACEMENT_3D ( 'NONE', #240, #236, #234 ) ;
#67 = PERSON_AND_ORGANIZATION ( #113, #271 ) ;
#68 = VERTEX_POINT ( 'NONE', #48 ) ;
#69 = CARTESIAN_POINT ( 'NONE',  ( 0.0000000000000000000, -0.04999999999999999600, 0.2687500000000000400 ) ) ;
#70 = PERSON_AND_ORGANIZATION_ROLE ( 'design_owner' ) ;
#71 = AXIS2_PLACEMENT_3D ( 'NONE', #250, #248, #247 ) ;
#72 = CARTESIAN_POINT ( 'NONE',  ( 0.0000000000000000000, -0.04999999999999999600, 0.0000000000000000000 ) ) ;
#73 = CARTESIAN_POINT ( 'NONE',  ( 0.0000000000000000000, 0.06250000000000000000, -0.2812500000000000600 ) ) ;
#74 = ADVANCED_FACE ( 'NONE', ( #225 ), #178, .T. ) ;
#75 = PERSON_AND_ORGANIZATION ( #113, #271 ) ;
#76 = AXIS2_PLACEMENT_3D ( 'NONE', #214, #263, #81 ) ;
#77 = CARTESIAN_POINT ( 'NONE',  ( 0.0000000000000000000, 0.06250000000000000000, 0.0000000000000000000 ) ) ;
#78 = EDGE_CURVE ( 'NONE', #200, #68, #197, .T. ) ;
#79 = AXIS2_PLACEMENT_3D ( 'NONE', #207, #53, #140 ) ;
#80 = AXIS2_PLACEMENT_3D ( 'NONE', #144, #278, #33 ) ;
#81 = DIRECTION ( 'NONE',  ( 0.0000000000000000000, 0.0000000000000000000, 1.000000000000000000 ) ) ;
#82 = EDGE_CURVE ( 'NONE', #68, #200, #216, .T. ) ;
#83 = COORDINATED_UNIVERSAL_TIME_OFFSET ( 6, 0, .BEHIND. ) ;
#84 = AXIS2_PLACEMENT_3D ( 'NONE', #245, #221, #146 ) ;
#85 = AXIS2_PLACEMENT_3D ( 'NONE', #150, #168, #188 ) ;
#86 = AXIS2_PLACEMENT_3D ( 'NONE', #261, #125, #41 ) ;
#87 = CARTESIAN_POINT ( 'NONE',  ( 0.0000000000000000000, 0.06250000000000000000, 0.0000000000000000000 ) ) ;
#88 = AXIS2_PLACEMENT_3D ( 'NONE', #129, #233, #120 ) ;
#89 = LOCAL_TIME ( 14, 14, 20.00000000000000000, #131 ) ;
#90 = CARTESIAN_POINT ( 'NONE',  ( 0.0000000000000000000, 0.04999999999999999600, 0.0000000000000000000 ) ) ;
#91 = EDGE_CURVE ( 'NONE', #273, #224, #180, .T. ) ;
#92 = DIRECTION ( 'NONE',  ( 0.0000000000000000000, 0.0000000000000000000, 1.000000000000000000 ) ) ;
#93 = TOROIDAL_SURFACE ( 'NONE', #76, 0.2687500000000000400, 0.01250000000000000100 ) ;
#94 = CARTESIAN_POINT ( 'NONE',  ( 0.0000000000000000000, 0.04999999999999999600, -0.2812500000000000600 ) ) ;
#95 = EDGE_CURVE ( 'NONE', #219, #193, #170, .T. ) ;
#96 = PERSON_AND_ORGANIZATION ( #113, #271 ) ;
#97 = ORIENTED_EDGE ( 'NONE', *, *, #101, .T. ) ;
#98 = DIRECTION ( 'NONE',  ( -0.0000000000000000000, -1.000000000000000000, -0.0000000000000000000 ) ) ;
#99 = DIRECTION ( 'NONE',  ( -0.0000000000000000000, -1.000000000000000000, -0.0000000000000000000 ) ) ;
#100 = ORIENTED_EDGE ( 'NONE', *, *, #154, .T. ) ;
#101 = EDGE_CURVE ( 'NONE', #193, #219, #202, .T. ) ;
#102 = CARTESIAN_POINT ( 'NONE',  ( 3.444319122601931000E-017, -0.04999999999999999600, 0.2812500000000000600 ) ) ;
#103 = PERSON_AND_ORGANIZATION ( #113, #271 ) ;
#104 = DIRECTION ( 'NONE',  ( 0.0000000000000000000, 0.0000000000000000000, 1.000000000000000000 ) ) ;
#105 = AXIS2_PLACEMENT_3D ( 'NONE', #87, #134, #47 ) ;
#106 = EDGE_CURVE ( 'NONE', #243, #273, #232, .T. ) ;
#107 = AXIS2_PLACEMENT_3D ( 'NONE', #184, #99, #141 ) ;
#108 = DIRECTION ( 'NONE',  ( -0.0000000000000000000, -1.000000000000000000, -0.0000000000000000000 ) ) ;
#109 = ORIENTED_EDGE ( 'NONE', *, *, #195, .T. ) ;
#110 = ORIENTED_EDGE ( 'NONE', *, *, #185, .T. ) ;
#111 = DIRECTION ( 'NONE',  ( -0.0000000000000000000, -1.000000000000000000, -0.0000000000000000000 ) ) ;
#112 = PERSON_AND_ORGANIZATION_ROLE ( 'creator' ) ;
#113 = PERSON ( 'UNSPECIFIED', 'UNSPECIFIED', 'UNSPECIFIED', ('UNSPECIFIED'), ('UNSPECIFIED'), ('UNSPECIFIED') ) ;
#114 = ORIENTED_EDGE ( 'NONE', *, *, #229, .F. ) ;
#115 = DIRECTION ( 'NONE',  ( 0.0000000000000000000, 1.000000000000000000, 0.0000000000000000000 ) ) ;
#116 = AXIS2_PLACEMENT_3D ( 'NONE', #156, #108, #175 ) ;
#117 = APPROVAL_DATE_TIME ( #169, #43 ) ;
#118 = FACE_OUTER_BOUND ( 'NONE', #208, .T. ) ;
#119 = APPLICATION_CONTEXT ( 'configuration controlled 3d designs of mechanical parts and assemblies' ) ;
#120 = DIRECTION ( 'NONE',  ( 0.0000000000000000000, -0.0000000000000000000, 1.000000000000000000 ) ) ;
#121 = ORIENTED_EDGE ( 'NONE', *, *, #82, .F. ) ;
#122 = CARTESIAN_POINT ( 'NONE',  ( 3.367778697655221900E-017, 0.06250000000000000000, -0.2687500000000000400 ) ) ;
#123 = CARTESIAN_POINT ( 'NONE',  ( 0.0000000000000000000, -0.04999999999999999600, -0.2812500000000000600 ) ) ;
#124 = ORIENTED_EDGE ( 'NONE', *, *, #78, .T. ) ;
#125 = DIRECTION ( 'NONE',  ( 0.0000000000000000000, 1.000000000000000000, 0.0000000000000000000 ) ) ;
#126 = VERTEX_POINT ( 'NONE', #123 ) ;
#127 = CARTESIAN_POINT ( 'NONE',  ( 0.0000000000000000000, -0.06250000000000000000, 0.2687500000000000400 ) ) ;
#128 = CALENDAR_DATE ( 2018, 11, 7 ) ;
#129 = CARTESIAN_POINT ( 'NONE',  ( 0.0000000000000000000, 0.06250000000000000000, 0.0000000000000000000 ) ) ;
#130 = ADVANCED_BREP_SHAPE_REPRESENTATION ( '5862K158', ( #174, #51 ), #62 ) ;
#131 = COORDINATED_UNIVERSAL_TIME_OFFSET ( 6, 0, .BEHIND. ) ;
#132 = EDGE_LOOP ( 'NONE', ( #153, #209, #189, #159 ) ) ;
#133 = AXIS2_PLACEMENT_3D ( 'NONE', #137, #98, #29 ) ;
#134 = DIRECTION ( 'NONE',  ( -0.0000000000000000000, -1.000000000000000000, -0.0000000000000000000 ) ) ;
#135 = DATE_AND_TIME ( #251, #35 ) ;
#136 = AXIS2_PLACEMENT_3D ( 'NONE', #69, #272, #3 ) ;
#137 = CARTESIAN_POINT ( 'NONE',  ( 0.0000000000000000000, 0.04999999999999999600, 0.0000000000000000000 ) ) ;
#138 = EDGE_LOOP ( 'NONE', ( #198, #244, #100, #217 ) ) ;
#139 = TOROIDAL_SURFACE ( 'NONE', #148, 0.2687500000000000400, 0.01250000000000000100 ) ;
#140 = DIRECTION ( 'NONE',  ( 0.0000000000000000000, 0.0000000000000000000, 1.000000000000000000 ) ) ;
#141 = DIRECTION ( 'NONE',  ( 0.0000000000000000000, 0.0000000000000000000, 1.000000000000000000 ) ) ;
#142 = ORIENTED_EDGE ( 'NONE', *, *, #91, .F. ) ;
#143 = AXIS2_PLACEMENT_3D ( 'NONE', #64, #65, #179 ) ;
#144 = CARTESIAN_POINT ( 'NONE',  ( 0.0000000000000000000, 0.04999999999999999600, 0.2687500000000000400 ) ) ;
#145 = APPROVAL_PERSON_ORGANIZATION ( #55, #43, #256 ) ;
#146 = DIRECTION ( 'NONE',  ( 1.224646799147351700E-016, 0.0000000000000000000, -1.000000000000000000 ) ) ;
#147 = AXIS2_PLACEMENT_3D ( 'NONE', #77, #40, #92 ) ;
#148 = AXIS2_PLACEMENT_3D ( 'NONE', #90, #26, #104 ) ;
#149 = FACE_OUTER_BOUND ( 'NONE', #11, .T. ) ;
#150 = CARTESIAN_POINT ( 'NONE',  ( 0.0000000000000000000, 0.06250000000000000000, 0.0000000000000000000 ) ) ;
#151 = ORIENTED_EDGE ( 'NONE', *, *, #95, .T. ) ;
#152 = DIMENSIONAL_EXPONENTS ( 1.000000000000000000, 0.0000000000000000000, 0.0000000000000000000, 0.0000000000000000000, 0.0000000000000000000, 0.0000000000000000000, 0.0000000000000000000 ) ;
#153 = ORIENTED_EDGE ( 'NONE', *, *, #106, .T. ) ;
#154 = EDGE_CURVE ( 'NONE', #193, #224, #252, .T. ) ;
#155 = APPROVAL_PERSON_ORGANIZATION ( #253, #6, #265 ) ;
#156 = CARTESIAN_POINT ( 'NONE',  ( 0.0000000000000000000, -0.06250000000000000000, 0.0000000000000000000 ) ) ;
#157 = PERSON_AND_ORGANIZATION ( #113, #271 ) ;
#158 = EDGE_CURVE ( 'NONE', #243, #126, #201, .T. ) ;
#159 = ORIENTED_EDGE ( 'NONE', *, *, #158, .F. ) ;
#160 = PERSON_AND_ORGANIZATION_ROLE ( 'design_supplier' ) ;
#161 = LOCAL_TIME ( 14, 14, 20.00000000000000000, #191 ) ;
#162 = ADVANCED_FACE ( 'NONE', ( #204 ), #196, .T. ) ;
#163 = CLOSED_SHELL ( 'NONE', ( #215, #162, #74, #173, #167, #281, #56, #181 ) ) ;
#164 = LOCAL_TIME ( 14, 14, 20.00000000000000000, #223 ) ;
#165 = ORIENTED_EDGE ( 'NONE', *, *, #220, .T. ) ;
#166 = PRODUCT_RELATED_PRODUCT_CATEGORY ( 'detail', '', ( #274 ) ) ;
#167 = ADVANCED_FACE ( 'NONE', ( #182 ), #270, .T. ) ;
#168 = DIRECTION ( 'NONE',  ( -0.0000000000000000000, -1.000000000000000000, -0.0000000000000000000 ) ) ;
#169 = DATE_AND_TIME ( #246, #164 ) ;
#170 = CIRCLE ( 'NONE', #107, 0.2687500000000000400 ) ;
#171 = TOROIDAL_SURFACE ( 'NONE', #46, 0.2687500000000000400, 0.01250000000000000100 ) ;
#172 = APPLICATION_PROTOCOL_DEFINITION ( 'international standard', 'config_control_design', 1994, #119 ) ;
#173 = ADVANCED_FACE ( 'NONE', ( #118 ), #226, .T. ) ;
#174 = MANIFOLD_SOLID_BREP ( 'Fillet1', #163 ) ;
#175 = DIRECTION ( 'NONE',  ( 0.0000000000000000000, 0.0000000000000000000, 1.000000000000000000 ) ) ;
#176 = DATE_AND_TIME ( #128, #199 ) ;
#177 = DIRECTION ( 'NONE',  ( 0.0000000000000000000, 0.0000000000000000000, 1.000000000000000000 ) ) ;
#178 = CYLINDRICAL_SURFACE ( 'NONE', #105, 0.2812500000000000600 ) ;
#179 = DIRECTION ( 'NONE',  ( 0.0000000000000000000, 0.0000000000000000000, 1.000000000000000000 ) ) ;
#180 = LINE ( 'NONE', #186, #255 ) ;
#181 = ADVANCED_FACE ( 'NONE', ( #149 ), #139, .T. ) ;
#182 = FACE_OUTER_BOUND ( 'NONE', #210, .T. ) ;
#183 = ORIENTED_EDGE ( 'NONE', *, *, #203, .F. ) ;
#184 = CARTESIAN_POINT ( 'NONE',  ( 0.0000000000000000000, -0.06250000000000000000, 0.0000000000000000000 ) ) ;
#185 = EDGE_CURVE ( 'NONE', #126, #224, #17, .T. ) ;
#186 = CARTESIAN_POINT ( 'NONE',  ( 3.444319122601931000E-017, 0.06250000000000000000, 0.2812500000000000600 ) ) ;
#187 = DATE_AND_TIME ( #257, #89 ) ;
#188 = DIRECTION ( 'NONE',  ( 0.0000000000000000000, 0.0000000000000000000, -1.000000000000000000 ) ) ;
#189 = ORIENTED_EDGE ( 'NONE', *, *, #229, .T. ) ;
#190 = ORIENTED_EDGE ( 'NONE', *, *, #78, .F. ) ;
#191 = COORDINATED_UNIVERSAL_TIME_OFFSET ( 6, 0, .BEHIND. ) ;
#192 = ORIENTED_EDGE ( 'NONE', *, *, #195, .F. ) ;
#193 = VERTEX_POINT ( 'NONE', #127 ) ;
#194 = APPROVAL_ROLE ( '' ) ;
#195 = EDGE_CURVE ( 'NONE', #243, #200, #230, .T. ) ;
#196 = TOROIDAL_SURFACE ( 'NONE', #143, 0.2687500000000000400, 0.01250000000000000100 ) ;
#197 = CIRCLE ( 'NONE', #147, 0.2687500000000000400 ) ;
#198 = ORIENTED_EDGE ( 'NONE', *, *, #239, .F. ) ;
#199 = LOCAL_TIME ( 14, 14, 20.00000000000000000, #262 ) ;
#200 = VERTEX_POINT ( 'NONE', #122 ) ;
#201 = LINE ( 'NONE', #73, #267 ) ;
#202 = CIRCLE ( 'NONE', #116, 0.2687500000000000400 ) ;
#203 = EDGE_CURVE ( 'NONE', #273, #68, #52, .T. ) ;
#204 = FACE_OUTER_BOUND ( 'NONE', #36, .T. ) ;
#205 = ORIENTED_EDGE ( 'NONE', *, *, #203, .T. ) ;
#206 = APPROVAL_DATE_TIME ( #135, #30 ) ;
#207 = CARTESIAN_POINT ( 'NONE',  ( 0.0000000000000000000, 0.04999999999999999600, 0.0000000000000000000 ) ) ;
#208 = EDGE_LOOP ( 'NONE', ( #142, #165, #237, #110 ) ) ;
#209 = ORIENTED_EDGE ( 'NONE', *, *, #91, .T. ) ;
#210 = EDGE_LOOP ( 'NONE', ( #212, #124 ) ) ;
#211 = ORIENTED_EDGE ( 'NONE', *, *, #220, .F. ) ;
#212 = ORIENTED_EDGE ( 'NONE', *, *, #82, .T. ) ;
#213 = DIRECTION ( 'NONE',  ( 0.0000000000000000000, 0.0000000000000000000, 1.000000000000000000 ) ) ;
#214 = CARTESIAN_POINT ( 'NONE',  ( 0.0000000000000000000, 0.04999999999999999600, 0.0000000000000000000 ) ) ;
#215 = ADVANCED_FACE ( 'NONE', ( #260 ), #93, .T. ) ;
#216 = CIRCLE ( 'NONE', #57, 0.2687500000000000400 ) ;
#217 = ORIENTED_EDGE ( 'NONE', *, *, #185, .F. ) ;
#218 = CIRCLE ( 'NONE', #66, 0.01250000000000000200 ) ;
#219 = VERTEX_POINT ( 'NONE', #58 ) ;
#220 = EDGE_CURVE ( 'NONE', #273, #243, #44, .T. ) ;
#221 = DIRECTION ( 'NONE',  ( 1.000000000000000000, -0.0000000000000000000, 1.224646799147353200E-016 ) ) ;
#222 = DESIGN_CONTEXT ( 'detailed design', #119, 'design' ) ;
#223 = COORDINATED_UNIVERSAL_TIME_OFFSET ( 6, 0, .BEHIND. ) ;
#224 = VERTEX_POINT ( 'NONE', #102 ) ;
#225 = FACE_OUTER_BOUND ( 'NONE', #132, .T. ) ;
#226 = CYLINDRICAL_SURFACE ( 'NONE', #85, 0.2812500000000000600 ) ;
#227 = CARTESIAN_POINT ( 'NONE',  ( 0.0000000000000000000, -0.06250000000000000000, 0.0000000000000000000 ) ) ;
#228 = APPROVAL_STATUS ( 'not_yet_approved' ) ;
#229 = EDGE_CURVE ( 'NONE', #224, #126, #5, .T. ) ;
#230 = CIRCLE ( 'NONE', #84, 0.01250000000000000200 ) ;
#231 = DATE_TIME_ROLE ( 'creation_date' ) ;
#232 = CIRCLE ( 'NONE', #133, 0.2812500000000000600 ) ;
#233 = DIRECTION ( 'NONE',  ( 0.0000000000000000000, 1.000000000000000000, 0.0000000000000000000 ) ) ;
#234 = DIRECTION ( 'NONE',  ( 1.224646799147351700E-016, 0.0000000000000000000, -1.000000000000000000 ) ) ;
#235 = DATE_AND_TIME ( #4, #161 ) ;
#236 = DIRECTION ( 'NONE',  ( 1.000000000000000000, -0.0000000000000000000, 1.224646799147353200E-016 ) ) ;
#237 = ORIENTED_EDGE ( 'NONE', *, *, #158, .T. ) ;
#238 = EDGE_LOOP ( 'NONE', ( #241, #109, #121, #183 ) ) ;
#239 = EDGE_CURVE ( 'NONE', #219, #126, #218, .T. ) ;
#240 = CARTESIAN_POINT ( 'NONE',  ( 3.291238272708512200E-017, -0.04999999999999999600, -0.2687500000000000400 ) ) ;
#241 = ORIENTED_EDGE ( 'NONE', *, *, #106, .F. ) ;
#242 = CARTESIAN_POINT ( 'NONE',  ( 3.444319122601931000E-017, 0.04999999999999999600, 0.2812500000000000600 ) ) ;
#243 = VERTEX_POINT ( 'NONE', #94 ) ;
#244 = ORIENTED_EDGE ( 'NONE', *, *, #101, .F. ) ;
#245 = CARTESIAN_POINT ( 'NONE',  ( 3.291238272708512200E-017, 0.04999999999999999600, -0.2687500000000000400 ) ) ;
#246 = CALENDAR_DATE ( 2018, 11, 7 ) ;
#247 = DIRECTION ( 'NONE',  ( 0.0000000000000000000, 0.0000000000000000000, 1.000000000000000000 ) ) ;
#248 = DIRECTION ( 'NONE',  ( 0.0000000000000000000, 1.000000000000000000, 0.0000000000000000000 ) ) ;
#249 = SHAPE_DEFINITION_REPRESENTATION ( #38, #130 ) ;
#250 = CARTESIAN_POINT ( 'NONE',  ( 0.0000000000000000000, -0.04999999999999999600, 0.0000000000000000000 ) ) ;
#251 = CALENDAR_DATE ( 2018, 11, 7 ) ;
#252 = CIRCLE ( 'NONE', #136, 0.01250000000000000200 ) ;
#253 = PERSON_AND_ORGANIZATION ( #113, #271 ) ;
#254 = ORIENTED_EDGE ( 'NONE', *, *, #239, .T. ) ;
#255 = VECTOR ( 'NONE', #39, 39.37007874015748100 ) ;
#256 = APPROVAL_ROLE ( '' ) ;
#257 = CALENDAR_DATE ( 2018, 11, 7 ) ;
#258 = LENGTH_MEASURE_WITH_UNIT ( LENGTH_MEASURE( 0.02539999999999999900 ), #7 );
#259 = CARTESIAN_POINT ( 'NONE',  ( 0.0000000000000000000, 0.06250000000000000000, 0.0000000000000000000 ) ) ;
#260 = FACE_OUTER_BOUND ( 'NONE', #238, .T. ) ;
#261 = CARTESIAN_POINT ( 'NONE',  ( 0.0000000000000000000, -0.04999999999999999600, 0.0000000000000000000 ) ) ;
#262 = COORDINATED_UNIVERSAL_TIME_OFFSET ( 6, 0, .BEHIND. ) ;
#263 = DIRECTION ( 'NONE',  ( 0.0000000000000000000, 1.000000000000000000, 0.0000000000000000000 ) ) ;
#264 = PERSON_AND_ORGANIZATION_ROLE ( 'classification_officer' ) ;
#265 = APPROVAL_ROLE ( '' ) ;
#266 = SECURITY_CLASSIFICATION_LEVEL ( 'unclassified' ) ;
#267 = VECTOR ( 'NONE', #111, 39.37007874015748100 ) ;
#268 = DIRECTION ( 'NONE',  ( 0.0000000000000000000, 1.000000000000000000, 0.0000000000000000000 ) ) ;
#269 = FACE_OUTER_BOUND ( 'NONE', #275, .T. ) ;
#270 = PLANE ( 'NONE',  #88 ) ;
#271 = ORGANIZATION ( 'UNSPECIFIED', 'UNSPECIFIED', '' ) ;
#272 = DIRECTION ( 'NONE',  ( -1.000000000000000000, 0.0000000000000000000, 0.0000000000000000000 ) ) ;
#273 = VERTEX_POINT ( 'NONE', #242 ) ;
#274 = PRODUCT ( '5862K158', '5862K158', '', ( #23 ) ) ;
#275 = EDGE_LOOP ( 'NONE', ( #97, #151 ) ) ;
#276 = APPROVAL_STATUS ( 'not_yet_approved' ) ;
#277 = DATE_TIME_ROLE ( 'classification_date' ) ;
#278 = DIRECTION ( 'NONE',  ( -1.000000000000000000, 0.0000000000000000000, 0.0000000000000000000 ) ) ;
#279 = APPROVAL_STATUS ( 'not_yet_approved' ) ;
#280 = ORIENTED_EDGE ( 'NONE', *, *, #95, .F. ) ;
#281 = ADVANCED_FACE ( 'NONE', ( #269 ), #1, .F. ) ;
#282 = PERSON_AND_ORGANIZATION ( #113, #271 ) ;
ENDSEC;
END-ISO-10303-21;
