ISO-10303-21;
HEADER;
FILE_DESCRIPTION (( 'STEP AP203' ),
    '1' );
FILE_NAME ('9414T11.step',
    '2013-04-24T16:53:45',
    ( '' ),
    ( '' ),
    'SwSTEP 2.0',
    'SolidWorks 2010',
    '' );
FILE_SCHEMA (( 'CONFIG_CONTROL_DESIGN' ));
ENDSEC;

DATA;
#1 = MECHANICAL_CONTEXT ( 'NONE', #209, 'mechanical' ) ;
#2 = APPLICATION_PROTOCOL_DEFINITION ( 'international standard', 'config_control_design', 1994, #209 ) ;
#3 =( NAMED_UNIT ( * ) SI_UNIT ( $, .STERADIAN. ) SOLID_ANGLE_UNIT ( ) );
#4 =( NAMED_UNIT ( * ) PLANE_ANGLE_UNIT ( ) SI_UNIT ( $, .RADIAN. ) );
#5 =( LENGTH_UNIT ( ) NAMED_UNIT ( * ) SI_UNIT ( $, .METRE. ) );
#6 = DIRECTION ( 'NONE',  ( 0.4999999999999995600, 0.0000000000000000000, -0.8660254037844388200 ) ) ;
#7 = CARTESIAN_POINT ( 'NONE',  ( -0.07216878364870320300, 0.4999999999999997200, 9.317570608764784200E-017 ) ) ;
#8 =( CONVERSION_BASED_UNIT ( 'INCH', #840 ) LENGTH_UNIT ( ) NAMED_UNIT ( #619 ) );
#9 = DIRECTION ( 'NONE',  ( -1.000000000000000000, 0.0000000000000000000, 0.0000000000000000000 ) ) ;
#10 = DIRECTION ( 'NONE',  ( 3.388131789017165000E-017, 1.000000000000000000, -0.0000000000000000000 ) ) ;
#11 = CARTESIAN_POINT ( 'NONE',  ( 0.0000000000000000000, 0.5000000000000000000, 1.024442997624098700E-016 ) ) ;
#12 = DIRECTION ( 'NONE',  ( -0.0000000000000000000, -1.000000000000000000, -0.0000000000000000000 ) ) ;
#13 = DIRECTION ( 'NONE',  ( -0.8660254037844388200, 0.0000000000000000000, -0.4999999999999996100 ) ) ;
#14 = DIRECTION ( 'NONE',  ( -0.4999999999999998300, 0.0000000000000000000, -0.8660254037844386000 ) ) ;
#15 = PERSON_AND_ORGANIZATION_ROLE ( 'design_owner' ) ;
#16 = PLANE ( 'NONE',  #1044 ) ;
#17 = CARTESIAN_POINT ( 'NONE',  ( 1.591780681038712600E-017, 0.4698107335135446900, 0.0000000000000000000 ) ) ;
#18 = DIRECTION ( 'NONE',  ( -0.7071067811865473500, -0.7071067811865476800, 8.659560562354930400E-017 ) ) ;
#19 = CARTESIAN_POINT ( 'NONE',  ( -0.09481073351354461800, 0.5000000000000000000, 1.161096613221751200E-017 ) ) ;
#20 = CARTESIAN_POINT ( 'NONE',  ( 0.0000000000000000000, 0.0000000000000000000, 0.0000000000000000000 ) ) ;
#21 = DIRECTION ( 'NONE',  ( -0.4999999999999995600, 0.0000000000000000000, 0.8660254037844388200 ) ) ;
#22 = CARTESIAN_POINT ( 'NONE',  ( -0.03608439182435161500, 0.4999999999999997200, 0.06250000000000008300 ) ) ;
#23 = DIRECTION ( 'NONE',  ( -1.000000000000000000, 1.224646799147346800E-016, 0.0000000000000000000 ) ) ;
#24 = DIRECTION ( 'NONE',  ( 1.224646799147353200E-016, 1.000000000000000000, -0.0000000000000000000 ) ) ;
#25 = DIRECTION ( 'NONE',  ( 0.7071067811865473500, -0.7071067811865476800, 0.0000000000000000000 ) ) ;
#26 = CARTESIAN_POINT ( 'NONE',  ( 0.09481073351354464600, 0.5000000000000000000, 0.0000000000000000000 ) ) ;
#27 = DIRECTION ( 'NONE',  ( -1.000000000000000000, 0.0000000000000000000, 0.0000000000000000000 ) ) ;
#28 = DIRECTION ( 'NONE',  ( 3.388131789017165000E-017, 1.000000000000000000, -0.0000000000000000000 ) ) ;
#29 = CARTESIAN_POINT ( 'NONE',  ( 0.03608439182435168500, 0.3749999999999996700, 0.06250000000000009700 ) ) ;
#30 = CARTESIAN_POINT ( 'NONE',  ( 0.07216878364870324400, 0.4999999999999997200, 1.113792453342873100E-016 ) ) ;
#31 = DIRECTION ( 'NONE',  ( -1.000000000000000000, 0.0000000000000000000, 0.0000000000000000000 ) ) ;
#32 = DIRECTION ( 'NONE',  ( 3.388131789017165000E-017, 1.000000000000000000, -0.0000000000000000000 ) ) ;
#33 = CARTESIAN_POINT ( 'NONE',  ( -0.4899999999999999900, 6.000769315822029800E-017, 0.2087499999999999900 ) ) ;
#34 = DIRECTION ( 'NONE',  ( 0.4999999999999998900, 0.0000000000000000000, 0.8660254037844386000 ) ) ;
#35 = CARTESIAN_POINT ( 'NONE',  ( 8.470329472542912500E-018, 0.2500000000000000000, 0.0000000000000000000 ) ) ;
#36 = DIRECTION ( 'NONE',  ( 3.388131789017165000E-017, 1.000000000000000000, -0.0000000000000000000 ) ) ;
#37 = CARTESIAN_POINT ( 'NONE',  ( 0.1249999999999999200, 0.2500000000000000000, 1.530808498934190300E-017 ) ) ;
#38 = CARTESIAN_POINT ( 'NONE',  ( 9.493181607241609700E-018, 0.2801892664864552600, 0.0000000000000000000 ) ) ;
#39 = DIRECTION ( 'NONE',  ( 3.388131789017165000E-017, 1.000000000000000000, -0.0000000000000000000 ) ) ;
#40 = CARTESIAN_POINT ( 'NONE',  ( 0.03608439182435162900, 0.4999999999999997200, -0.06249999999999989600 ) ) ;
#41 = DIRECTION ( 'NONE',  ( -0.7071067811865474600, -0.7071067811865475700, 8.659560562354931600E-017 ) ) ;
#42 = CARTESIAN_POINT ( 'NONE',  ( -0.03622711978374636200, 0.2500000000000000000, 4.436542628549274400E-018 ) ) ;
#43 = DIRECTION ( 'NONE',  ( -0.7071067811865479100, 0.7071067811865471300, 0.0000000000000000000 ) ) ;
#44 = CARTESIAN_POINT ( 'NONE',  ( -0.1249999999999999000, 0.2801892664864552600, 0.0000000000000000000 ) ) ;
#45 = DIRECTION ( 'NONE',  ( -1.000000000000000000, 0.0000000000000000000, -1.182924880895400000E-016 ) ) ;
#46 = CARTESIAN_POINT ( 'NONE',  ( -0.1249999999999999200, 0.2500000000000000000, 0.0000000000000000000 ) ) ;
#47 = DIRECTION ( 'NONE',  ( 0.0000000000000000000, 0.0000000000000000000, -1.000000000000000000 ) ) ;
#48 = DIRECTION ( 'NONE',  ( 0.0000000000000000000, -1.000000000000000000, 0.0000000000000000000 ) ) ;
#49 = CARTESIAN_POINT ( 'NONE',  ( 0.4899999999999999900, 0.0000000000000000000, 0.2087499999999999900 ) ) ;
#50 = CARTESIAN_POINT ( 'NONE',  ( 1.694065894508582500E-017, 0.5000000000000000000, 0.0000000000000000000 ) ) ;
#51 = DIRECTION ( 'NONE',  ( 0.7071067811865479100, 0.7071067811865471300, 8.659560562354937800E-017 ) ) ;
#52 = CARTESIAN_POINT ( 'NONE',  ( 0.1249999999999999300, 0.2801892664864552600, 1.530808498934190300E-017 ) ) ;
#53 = CARTESIAN_POINT ( 'NONE',  ( 0.03608439182435168500, 0.4999999999999997200, 0.06250000000000009700 ) ) ;
#54 = DIRECTION ( 'NONE',  ( -1.000000000000000000, 0.0000000000000000000, 0.0000000000000000000 ) ) ;
#55 = DIRECTION ( 'NONE',  ( 3.388131789017165000E-017, 1.000000000000000000, -0.0000000000000000000 ) ) ;
#56 = DIRECTION ( 'NONE',  ( -3.388131789017165000E-017, -1.000000000000000000, 0.0000000000000000000 ) ) ;
#57 = DIRECTION ( 'NONE',  ( 1.000000000000000000, 0.0000000000000000000, 0.0000000000000000000 ) ) ;
#58 = DIRECTION ( 'NONE',  ( 0.0000000000000000000, 0.0000000000000000000, 1.000000000000000000 ) ) ;
#59 = CARTESIAN_POINT ( 'NONE',  ( 0.0000000000000000000, 0.0000000000000000000, 0.2187500000000000000 ) ) ;
#60 = DIRECTION ( 'NONE',  ( 0.0000000000000000000, 0.0000000000000000000, -1.000000000000000000 ) ) ;
#61 = CARTESIAN_POINT ( 'NONE',  ( 1.694065894508582500E-017, 0.5000000000000000000, 0.0000000000000000000 ) ) ;
#62 = CARTESIAN_POINT ( 'NONE',  ( -0.03622711978374636200, 0.2500000000000000000, 4.436542628549274400E-018 ) ) ;
#63 = CARTESIAN_POINT ( 'NONE',  ( 0.03622711978374637500, 0.2500000000000000000, 0.0000000000000000000 ) ) ;
#64 = CARTESIAN_POINT ( 'NONE',  ( 0.0000000000000000000, 0.0000000000000000000, 0.2187500000000000000 ) ) ;
#65 = CARTESIAN_POINT ( 'NONE',  ( 1.882063856720458000E-018, 0.2862271197837463800, 0.0000000000000000000 ) ) ;
#66 = CARTESIAN_POINT ( 'NONE',  ( -0.1249999999999999000, 0.4698107335135446900, 1.530808498934190300E-017 ) ) ;
#67 = CARTESIAN_POINT ( 'NONE',  ( -0.09481073351354460400, 0.5000000000000000000, 1.345952556077971000E-017 ) ) ;
#68 = DIRECTION ( 'NONE',  ( 1.000000000000000000, 0.0000000000000000000, 0.0000000000000000000 ) ) ;
#69 = CARTESIAN_POINT ( 'NONE',  ( -0.09481073351354461800, 0.2500000000000000000, 0.0000000000000000000 ) ) ;
#70 = CARTESIAN_POINT ( 'NONE',  ( 0.1249999999999999400, 0.4698107335135446900, 0.0000000000000000000 ) ) ;
#71 = CARTESIAN_POINT ( 'NONE',  ( 0.09481073351354461800, 0.2500000000000000000, 1.345952556077970400E-017 ) ) ;
#72 = CARTESIAN_POINT ( 'NONE',  ( -0.1249999999999998800, 0.2801892664864552600, 0.0000000000000000000 ) ) ;
#73 = CARTESIAN_POINT ( 'NONE',  ( 0.09481073351354463200, 0.5000000000000000000, 0.0000000000000000000 ) ) ;
#74 = DIRECTION ( 'NONE',  ( 0.0000000000000000000, 0.0000000000000000000, 1.000000000000000000 ) ) ;
#75 = CARTESIAN_POINT ( 'NONE',  ( 1.694065894508582500E-017, 0.5000000000000000000, 0.0000000000000000000 ) ) ;
#76 = DIRECTION ( 'NONE',  ( -3.388131789017165000E-017, -1.000000000000000000, 0.0000000000000000000 ) ) ;
#77 = DIRECTION ( 'NONE',  ( -1.000000000000000000, 0.0000000000000000000, 0.0000000000000000000 ) ) ;
#78 = CARTESIAN_POINT ( 'NONE',  ( 0.0000000000000000000, 0.0000000000000000000, 0.2187500000000000000 ) ) ;
#79 = DIRECTION ( 'NONE',  ( -0.0000000000000000000, -0.0000000000000000000, -1.000000000000000000 ) ) ;
#80 = DIRECTION ( 'NONE',  ( 1.000000000000000000, 0.0000000000000000000, 0.0000000000000000000 ) ) ;
#81 = DIRECTION ( 'NONE',  ( 1.000000000000000000, 0.0000000000000000000, 0.0000000000000000000 ) ) ;
#82 = DIRECTION ( 'NONE',  ( -0.0000000000000000000, -0.0000000000000000000, -1.000000000000000000 ) ) ;
#83 = DIRECTION ( 'NONE',  ( -1.000000000000000000, 0.0000000000000000000, 0.0000000000000000000 ) ) ;
#84 = DIRECTION ( 'NONE',  ( 1.000000000000000000, 0.0000000000000000000, -0.0000000000000000000 ) ) ;
#85 = DIRECTION ( 'NONE',  ( 0.0000000000000000000, 0.0000000000000000000, 1.000000000000000000 ) ) ;
#86 = DIRECTION ( 'NONE',  ( 0.0000000000000000000, 0.0000000000000000000, 1.000000000000000000 ) ) ;
#87 = CARTESIAN_POINT ( 'NONE',  ( 0.0000000000000000000, 0.0000000000000000000, 0.2087499999999999900 ) ) ;
#88 = DIRECTION ( 'NONE',  ( -0.4999999999999998300, 0.0000000000000000000, -0.8660254037844388200 ) ) ;
#89 = DIRECTION ( 'NONE',  ( 0.8660254037844388200, 0.0000000000000000000, -0.4999999999999998300 ) ) ;
#90 = DIRECTION ( 'NONE',  ( 0.4999999999999995600, 0.0000000000000000000, -0.8660254037844388200 ) ) ;
#91 = DIRECTION ( 'NONE',  ( 0.8660254037844389300, -0.0000000000000000000, 0.4999999999999996100 ) ) ;
#92 = CARTESIAN_POINT ( 'NONE',  ( 0.0000000000000000000, 0.0000000000000000000, 0.2187500000000000000 ) ) ;
#93 = CARTESIAN_POINT ( 'NONE',  ( 0.1249999999999999200, 0.2801892664864552600, 1.530808498934190300E-017 ) ) ;
#94 = DIRECTION ( 'NONE',  ( 1.000000000000000000, 0.0000000000000000000, 0.0000000000000000000 ) ) ;
#95 = CARTESIAN_POINT ( 'NONE',  ( -0.07216878364870320300, 0.3749999999999996700, 9.317570608764784200E-017 ) ) ;
#96 = PLANE ( 'NONE',  #1035 ) ;
#97 = DIRECTION ( 'NONE',  ( -0.4999999999999996100, 0.0000000000000000000, 0.8660254037844388200 ) ) ;
#98 = DIRECTION ( 'NONE',  ( 1.000000000000000000, 0.0000000000000000000, 0.0000000000000000000 ) ) ;
#99 = DIRECTION ( 'NONE',  ( 0.0000000000000000000, 0.0000000000000000000, 1.000000000000000000 ) ) ;
#100 = DIRECTION ( 'NONE',  ( 1.000000000000000000, 0.0000000000000000000, 0.0000000000000000000 ) ) ;
#101 = CARTESIAN_POINT ( 'NONE',  ( 0.0000000000000000000, 0.0000000000000000000, 0.2087499999999999900 ) ) ;
#102 = DIRECTION ( 'NONE',  ( -1.000000000000000000, 0.0000000000000000000, -1.182924880895400000E-016 ) ) ;
#103 = DIRECTION ( 'NONE',  ( 1.182924880895400000E-016, 0.0000000000000000000, -1.000000000000000000 ) ) ;
#104 = CARTESIAN_POINT ( 'NONE',  ( 0.0000000000000000000, 0.0000000000000000000, 0.2087499999999999900 ) ) ;
#105 = CARTESIAN_POINT ( 'NONE',  ( 0.0000000000000000000, 0.0000000000000000000, -0.2087500000000000200 ) ) ;
#106 = DIRECTION ( 'NONE',  ( 0.0000000000000000000, 0.0000000000000000000, 1.000000000000000000 ) ) ;
#107 = PLANE ( 'NONE',  #1043 ) ;
#108 = CC_DESIGN_PERSON_AND_ORGANIZATION_ASSIGNMENT ( #564, #196, ( #1013 ) ) ;
#109 = CC_DESIGN_DATE_AND_TIME_ASSIGNMENT ( #570, #195, ( #1013 ) ) ;
#110 = APPROVAL ( #193, 'UNSPECIFIED' ) ;
#111 = CC_DESIGN_APPROVAL ( #110, ( #1013 ) ) ;
#112 = CC_DESIGN_SECURITY_CLASSIFICATION ( #1013, ( #1063 ) ) ;
#113 = PRODUCT_RELATED_PRODUCT_CATEGORY ( 'detail', '', ( #942 ) ) ;
#114 = EDGE_CURVE ( 'NONE', #307, #309, #190, .T. ) ;
#115 = EDGE_CURVE ( 'NONE', #308, #303, #191, .T. ) ;
#116 = EDGE_CURVE ( 'NONE', #630, #626, #765, .T. ) ;
#117 = EDGE_CURVE ( 'NONE', #313, #307, #767, .T. ) ;
#118 = EDGE_CURVE ( 'NONE', #325, #316, #766, .T. ) ;
#119 = EDGE_CURVE ( 'NONE', #279, #323, #960, .T. ) ;
#120 = EDGE_CURVE ( 'NONE', #319, #309, #774, .T. ) ;
#121 = EDGE_CURVE ( 'NONE', #277, #325, #772, .T. ) ;
#122 = EDGE_CURVE ( 'NONE', #281, #277, #771, .T. ) ;
#123 = EDGE_CURVE ( 'NONE', #307, #313, #781, .T. ) ;
#124 = EDGE_CURVE ( 'NONE', #279, #280, #189, .T. ) ;
#125 = EDGE_CURVE ( 'NONE', #318, #306, #780, .T. ) ;
#126 = EDGE_CURVE ( 'NONE', #632, #631, #783, .T. ) ;
#127 = EDGE_CURVE ( 'NONE', #309, #321, #770, .T. ) ;
#128 = EDGE_CURVE ( 'NONE', #314, #321, #773, .T. ) ;
#129 = EDGE_CURVE ( 'NONE', #631, #632, #1080, .T. ) ;
#130 = EDGE_CURVE ( 'NONE', #316, #326, #776, .T. ) ;
#131 = EDGE_CURVE ( 'NONE', #302, #303, #1086, .T. ) ;
#132 = EDGE_CURVE ( 'NONE', #311, #305, #1088, .T. ) ;
#133 = EDGE_CURVE ( 'NONE', #629, #631, #1087, .T. ) ;
#134 = EDGE_CURVE ( 'NONE', #317, #306, #581, .T. ) ;
#135 = EDGE_CURVE ( 'NONE', #319, #314, #1089, .T. ) ;
#136 = EDGE_CURVE ( 'NONE', #302, #320, #1093, .T. ) ;
#137 = EDGE_CURVE ( 'NONE', #280, #324, #1092, .T. ) ;
#138 = EDGE_CURVE ( 'NONE', #322, #318, #580, .T. ) ;
#139 = EDGE_CURVE ( 'NONE', #621, #622, #1098, .T. ) ;
#140 = EDGE_CURVE ( 'NONE', #305, #311, #1095, .T. ) ;
#141 = EDGE_CURVE ( 'NONE', #321, #304, #1097, .T. ) ;
#142 = EDGE_CURVE ( 'NONE', #309, #319, #1084, .T. ) ;
#143 = EDGE_CURVE ( 'NONE', #304, #310, #1081, .T. ) ;
#144 = EDGE_CURVE ( 'NONE', #305, #303, #779, .T. ) ;
#145 = EDGE_CURVE ( 'NONE', #311, #308, #1082, .T. ) ;
#146 = EDGE_CURVE ( 'NONE', #277, #327, #992, .T. ) ;
#147 = EDGE_CURVE ( 'NONE', #310, #304, #1004, .T. ) ;
#148 = EDGE_CURVE ( 'NONE', #325, #312, #1091, .T. ) ;
#149 = EDGE_CURVE ( 'NONE', #303, #308, #1001, .T. ) ;
#150 = EDGE_CURVE ( 'NONE', #316, #279, #1085, .T. ) ;
#151 = EDGE_CURVE ( 'NONE', #624, #627, #998, .T. ) ;
#152 = EDGE_CURVE ( 'NONE', #320, #302, #997, .T. ) ;
#153 = EDGE_CURVE ( 'NONE', #313, #319, #994, .T. ) ;
#154 = EDGE_CURVE ( 'NONE', #318, #322, #584, .T. ) ;
#155 = CC_DESIGN_PERSON_AND_ORGANIZATION_ASSIGNMENT ( #844, #15, ( #942 ) ) ;
#156 = EDGE_CURVE ( 'NONE', #280, #281, #1003, .T. ) ;
#157 = AXIS2_PLACEMENT_3D ( 'NONE', #620, #301, #300 ) ;
#158 = EDGE_CURVE ( 'NONE', #320, #308, #990, .T. ) ;
#159 = PRODUCT_DEFINITION ( 'UNKNOWN', '', #1063, #377 ) ;
#160 = EDGE_CURVE ( 'NONE', #281, #315, #991, .T. ) ;
#161 = EDGE_CURVE ( 'NONE', #322, #317, #989, .T. ) ;
#162 = EDGE_CURVE ( 'NONE', #327, #312, #329, .T. ) ;
#163 = EDGE_CURVE ( 'NONE', #276, #278, #335, .T. ) ;
#164 = EDGE_CURVE ( 'NONE', #314, #310, #337, .T. ) ;
#165 = EDGE_CURVE ( 'NONE', #306, #317, #583, .T. ) ;
#166 = EDGE_CURVE ( 'NONE', #623, #625, #340, .T. ) ;
#167 = EDGE_CURVE ( 'NONE', #321, #314, #342, .T. ) ;
#168 = ORIENTED_EDGE ( 'NONE', *, *, #161, .F. ) ;
#169 = ORIENTED_EDGE ( 'NONE', *, *, #165, .T. ) ;
#170 = ORIENTED_EDGE ( 'NONE', *, *, #114, .F. ) ;
#171 = ORIENTED_EDGE ( 'NONE', *, *, #128, .F. ) ;
#172 = ORIENTED_EDGE ( 'NONE', *, *, #154, .F. ) ;
#173 = ORIENTED_EDGE ( 'NONE', *, *, #143, .F. ) ;
#174 = ORIENTED_EDGE ( 'NONE', *, *, #141, .F. ) ;
#175 = ORIENTED_EDGE ( 'NONE', *, *, #164, .T. ) ;
#176 = ORIENTED_EDGE ( 'NONE', *, *, #125, .T. ) ;
#177 = ORIENTED_EDGE ( 'NONE', *, *, #152, .F. ) ;
#178 = ORIENTED_EDGE ( 'NONE', *, *, #751, .T. ) ;
#179 = ORIENTED_EDGE ( 'NONE', *, *, #725, .F. ) ;
#180 = ORIENTED_EDGE ( 'NONE', *, *, #132, .F. ) ;
#181 = ORIENTED_EDGE ( 'NONE', *, *, #718, .F. ) ;
#182 = ORIENTED_EDGE ( 'NONE', *, *, #158, .T. ) ;
#183 = ORIENTED_EDGE ( 'NONE', *, *, #149, .F. ) ;
#184 = ORIENTED_EDGE ( 'NONE', *, *, #131, .F. ) ;
#185 = ORIENTED_EDGE ( 'NONE', *, *, #117, .F. ) ;
#186 = ORIENTED_EDGE ( 'NONE', *, *, #153, .T. ) ;
#187 = ORIENTED_EDGE ( 'NONE', *, *, #142, .F. ) ;
#188 = VECTOR ( 'NONE', #704, 39.37007874015748100 ) ;
#189 = LINE ( 'NONE', #703, #188 ) ;
#190 = CIRCLE ( 'NONE', #157, 0.009999999999999995000 ) ;
#191 = CIRCLE ( 'NONE', #733, 0.5000000000000000000 ) ;
#192 = APPROVAL_ROLE ( '' ) ;
#193 = APPROVAL_STATUS ( 'not_yet_approved' ) ;
#194 = APPLICATION_PROTOCOL_DEFINITION ( 'international standard', 'config_control_design', 1994, #202 ) ;
#195 = DATE_TIME_ROLE ( 'classification_date' ) ;
#196 = PERSON_AND_ORGANIZATION_ROLE ( 'classification_officer' ) ;
#197 = SECURITY_CLASSIFICATION_LEVEL ( 'unclassified' ) ;
#198 = PERSON_AND_ORGANIZATION_ROLE ( 'design_supplier' ) ;
#199 = PERSON_AND_ORGANIZATION_ROLE ( 'creator' ) ;
#200 = APPROVAL_ROLE ( '' ) ;
#201 = APPROVAL_STATUS ( 'not_yet_approved' ) ;
#202 = APPLICATION_CONTEXT ( 'configuration controlled 3d designs of mechanical parts and assemblies' ) ;
#203 = DATE_TIME_ROLE ( 'creation_date' ) ;
#204 = PERSON_AND_ORGANIZATION_ROLE ( 'creator' ) ;
#205 = APPROVAL_ROLE ( '' ) ;
#206 = APPROVAL_STATUS ( 'not_yet_approved' ) ;
#207 = UNCERTAINTY_MEASURE_WITH_UNIT (LENGTH_MEASURE( 1.000000000000000100E-005 ), #8, 'distance_accuracy_value', 'NONE');
#208 = ADVANCED_BREP_SHAPE_REPRESENTATION ( '9414T11', ( #582, #585, #760 ), #841 ) ;
#209 = APPLICATION_CONTEXT ( 'configuration controlled 3d designs of mechanical parts and assemblies' ) ;
#210 = DIRECTION ( 'NONE',  ( -1.000000000000000000, 0.0000000000000000000, 0.0000000000000000000 ) ) ;
#211 = DIRECTION ( 'NONE',  ( -1.000000000000000000, 0.0000000000000000000, 0.0000000000000000000 ) ) ;
#212 = DIRECTION ( 'NONE',  ( -0.0000000000000000000, -0.0000000000000000000, -1.000000000000000000 ) ) ;
#213 = DIRECTION ( 'NONE',  ( 1.000000000000000000, 0.0000000000000000000, 0.0000000000000000000 ) ) ;
#214 = DIRECTION ( 'NONE',  ( -1.000000000000000000, 3.388131789017165000E-017, 0.0000000000000000000 ) ) ;
#215 = DIRECTION ( 'NONE',  ( 3.388131789017165000E-017, 1.000000000000000000, -0.0000000000000000000 ) ) ;
#216 = CARTESIAN_POINT ( 'NONE',  ( 9.493181607241609700E-018, 0.2801892664864552600, 0.0000000000000000000 ) ) ;
#217 = PLANE ( 'NONE',  #1042 ) ;
#218 = DIRECTION ( 'NONE',  ( -1.000000000000000000, 0.0000000000000000000, 0.0000000000000000000 ) ) ;
#219 = DIRECTION ( 'NONE',  ( -0.0000000000000000000, -0.0000000000000000000, -1.000000000000000000 ) ) ;
#220 = DIRECTION ( 'NONE',  ( 1.000000000000000000, 0.0000000000000000000, -0.0000000000000000000 ) ) ;
#221 = DIRECTION ( 'NONE',  ( 0.0000000000000000000, 0.0000000000000000000, 1.000000000000000000 ) ) ;
#222 = DIRECTION ( 'NONE',  ( 0.0000000000000000000, 0.0000000000000000000, 1.000000000000000000 ) ) ;
#223 = CARTESIAN_POINT ( 'NONE',  ( -3.328370046623309000E-019, 0.5000000000000000000, 0.0000000000000000000 ) ) ;
#224 = PLANE ( 'NONE',  #1009 ) ;
#225 = DIRECTION ( 'NONE',  ( 1.000000000000000000, -3.388131789017165000E-017, 0.0000000000000000000 ) ) ;
#226 = CARTESIAN_POINT ( 'NONE',  ( 0.0000000000000000000, 0.0000000000000000000, -0.2087500000000000200 ) ) ;
#227 = DIRECTION ( 'NONE',  ( -3.388131789017165000E-017, -1.000000000000000000, 0.0000000000000000000 ) ) ;
#228 = DIRECTION ( 'NONE',  ( 1.000000000000000000, 0.0000000000000000000, 0.0000000000000000000 ) ) ;
#229 = CARTESIAN_POINT ( 'NONE',  ( 0.07216878364870324400, 0.3749999999999996700, 1.113792453342873100E-016 ) ) ;
#230 = CARTESIAN_POINT ( 'NONE',  ( 0.0000000000000000000, 0.0000000000000000000, -0.2087500000000000200 ) ) ;
#231 = CARTESIAN_POINT ( 'NONE',  ( -0.03608439182435165000, 0.3749999999999996700, -0.06249999999999989600 ) ) ;
#232 = CARTESIAN_POINT ( 'NONE',  ( 0.0000000000000000000, 0.0000000000000000000, 0.2187500000000000000 ) ) ;
#233 = DIRECTION ( 'NONE',  ( 0.0000000000000000000, 0.0000000000000000000, 1.000000000000000000 ) ) ;
#234 = PLANE ( 'NONE',  #1038 ) ;
#235 = CARTESIAN_POINT ( 'NONE',  ( -0.09481073351354461800, 0.2500000000000000000, 0.0000000000000000000 ) ) ;
#236 = DIRECTION ( 'NONE',  ( 3.388131789017165000E-017, 1.000000000000000000, -0.0000000000000000000 ) ) ;
#237 = DIRECTION ( 'NONE',  ( 1.000000000000000000, 0.0000000000000000000, 0.0000000000000000000 ) ) ;
#238 = CARTESIAN_POINT ( 'NONE',  ( 0.0000000000000000000, 0.0000000000000000000, -0.2087500000000000200 ) ) ;
#239 = DIRECTION ( 'NONE',  ( -1.000000000000000000, 0.0000000000000000000, 0.0000000000000000000 ) ) ;
#240 = CARTESIAN_POINT ( 'NONE',  ( 8.470329472542912500E-018, 0.2500000000000000000, 0.0000000000000000000 ) ) ;
#241 = DIRECTION ( 'NONE',  ( 0.0000000000000000000, -0.0000000000000000000, 1.000000000000000000 ) ) ;
#242 = DIRECTION ( 'NONE',  ( 0.0000000000000000000, 1.000000000000000000, 0.0000000000000000000 ) ) ;
#243 = PLANE ( 'NONE',  #1036 ) ;
#244 = CARTESIAN_POINT ( 'NONE',  ( 0.03608439182435161500, 0.3749999999999996700, -0.06249999999999989600 ) ) ;
#245 = DIRECTION ( 'NONE',  ( 1.000000000000000000, 0.0000000000000000000, 0.0000000000000000000 ) ) ;
#246 = DIRECTION ( 'NONE',  ( 3.388131789017165000E-017, 1.000000000000000000, -0.0000000000000000000 ) ) ;
#247 = DIRECTION ( 'NONE',  ( 0.0000000000000000000, 0.0000000000000000000, -1.000000000000000000 ) ) ;
#248 = DIRECTION ( 'NONE',  ( 1.000000000000000000, 0.0000000000000000000, 0.0000000000000000000 ) ) ;
#249 = CARTESIAN_POINT ( 'NONE',  ( 9.493181607241609700E-018, 0.2801892664864552600, 0.0000000000000000000 ) ) ;
#250 = DIRECTION ( 'NONE',  ( 3.388131789017165000E-017, 1.000000000000000000, -0.0000000000000000000 ) ) ;
#251 = CARTESIAN_POINT ( 'NONE',  ( 0.0000000000000000000, 0.0000000000000000000, 0.2187500000000000000 ) ) ;
#252 = CARTESIAN_POINT ( 'NONE',  ( 0.0000000000000000000, 0.5000000000000000000, 1.024442997624098700E-016 ) ) ;
#253 = CARTESIAN_POINT ( 'NONE',  ( 8.470329472542912500E-018, 0.2500000000000000000, 0.0000000000000000000 ) ) ;
#254 = DIRECTION ( 'NONE',  ( -3.388131789017165000E-017, -1.000000000000000000, 0.0000000000000000000 ) ) ;
#255 = DIRECTION ( 'NONE',  ( -0.0000000000000000000, -1.000000000000000000, -0.0000000000000000000 ) ) ;
#256 = DIRECTION ( 'NONE',  ( 0.0000000000000000000, 0.0000000000000000000, 1.000000000000000000 ) ) ;
#257 = DIRECTION ( 'NONE',  ( -3.388131789017165000E-017, -1.000000000000000000, 0.0000000000000000000 ) ) ;
#258 = CARTESIAN_POINT ( 'NONE',  ( 8.470329472542912500E-018, 0.2500000000000000000, 0.0000000000000000000 ) ) ;
#259 = DIRECTION ( 'NONE',  ( -1.000000000000000000, 0.0000000000000000000, 0.0000000000000000000 ) ) ;
#260 = CARTESIAN_POINT ( 'NONE',  ( -0.03257312839173277100, 0.4990030249642059500, -0.1209605652999364400 ) ) ;
#261 = CARTESIAN_POINT ( 'NONE',  ( -0.09417070140942535000, 0.4910863426305029400, -0.08259942854211548000 ) ) ;
#262 = CARTESIAN_POINT ( 'NONE',  ( -0.08270670379450438500, 0.4931465482689655300, -0.09407649943995215200 ) ) ;
#263 = CARTESIAN_POINT ( 'NONE',  ( -0.4899999999999999900, 6.000769315822029800E-017, -0.2087500000000000200 ) ) ;
#264 = CARTESIAN_POINT ( 'NONE',  ( -0.04053649590011697300, 0.4984113789328965000, -0.1185250590532313500 ) ) ;
#265 = DIRECTION ( 'NONE',  ( -0.4999999999999998300, 0.0000000000000000000, -0.8660254037844386000 ) ) ;
#266 = CARTESIAN_POINT ( 'NONE',  ( -0.05558076868459231600, 0.4969586384218321300, -0.1122594106338618700 ) ) ;
#267 = CARTESIAN_POINT ( 'NONE',  ( -0.2600000000000000100, 3.184081677783118700E-017, -0.2187500000000000300 ) ) ;
#268 = CARTESIAN_POINT ( 'NONE',  ( -0.03608439182435161500, 0.3749999999999996700, 0.06250000000000008300 ) ) ;
#269 = CARTESIAN_POINT ( 'NONE',  ( -0.07636970527436544300, 0.4941811093914517700, -0.09929682889123425700 ) ) ;
#270 = CARTESIAN_POINT ( 'NONE',  ( -1.352022651578206400E-017, 0.5000000000000000000, -0.1249999999999998600 ) ) ;
#271 = CARTESIAN_POINT ( 'NONE',  ( -0.01646459091894409200, 0.4997939023862977300, -0.1241828663575467600 ) ) ;
#272 = CARTESIAN_POINT ( 'NONE',  ( -0.06274835263354049100, 0.4960946935866541500, -0.1084197230826815100 ) ) ;
#273 = CARTESIAN_POINT ( 'NONE',  ( -0.008292248493948904700, 0.5000000000000001100, -0.1249999999999998800 ) ) ;
#274 = CARTESIAN_POINT ( 'NONE',  ( -0.09938370645504486500, 0.4900454559252419000, -0.07625655420494309400 ) ) ;
#275 = PRODUCT_DEFINITION_SHAPE ( 'NONE', 'NONE',  #159 ) ;
#276 = VERTEX_POINT ( 'NONE', #858 ) ;
#277 = VERTEX_POINT ( 'NONE', #980 ) ;
#278 = VERTEX_POINT ( 'NONE', #639 ) ;
#279 = VERTEX_POINT ( 'NONE', #979 ) ;
#280 = VERTEX_POINT ( 'NONE', #855 ) ;
#281 = VERTEX_POINT ( 'NONE', #974 ) ;
#282 = CARTESIAN_POINT ( 'NONE',  ( -0.07216878364870320300, 0.3749999999999996700, 9.317570608764784200E-017 ) ) ;
#283 = DIRECTION ( 'NONE',  ( 1.000000000000000000, 0.0000000000000000000, 0.0000000000000000000 ) ) ;
#284 = DIRECTION ( 'NONE',  ( 0.0000000000000000000, 0.0000000000000000000, 1.000000000000000000 ) ) ;
#285 = CARTESIAN_POINT ( 'NONE',  ( 0.0000000000000000000, 0.0000000000000000000, 0.2087499999999999900 ) ) ;
#286 = DIRECTION ( 'NONE',  ( 0.0000000000000000000, 1.000000000000000000, 0.0000000000000000000 ) ) ;
#287 = CARTESIAN_POINT ( 'NONE',  ( -0.03608439182435165000, 0.3749999999999996700, -0.06249999999999989600 ) ) ;
#288 = DIRECTION ( 'NONE',  ( 0.4999999999999995600, 0.0000000000000000000, -0.8660254037844388200 ) ) ;
#289 = DIRECTION ( 'NONE',  ( 0.4999999999999998900, 0.0000000000000000000, 0.8660254037844386000 ) ) ;
#290 = CARTESIAN_POINT ( 'NONE',  ( 0.03608439182435168500, 0.3749999999999996700, 0.06250000000000009700 ) ) ;
#291 = DIRECTION ( 'NONE',  ( 1.000000000000000000, 0.0000000000000000000, 0.0000000000000000000 ) ) ;
#292 = DIRECTION ( 'NONE',  ( -0.0000000000000000000, -0.0000000000000000000, -1.000000000000000000 ) ) ;
#293 = CARTESIAN_POINT ( 'NONE',  ( 0.0000000000000000000, 0.0000000000000000000, 0.2187500000000000000 ) ) ;
#294 = DIRECTION ( 'NONE',  ( -1.000000000000000000, 0.0000000000000000000, 0.0000000000000000000 ) ) ;
#295 = DIRECTION ( 'NONE',  ( 3.388131789017165000E-017, 1.000000000000000000, -0.0000000000000000000 ) ) ;
#296 = CARTESIAN_POINT ( 'NONE',  ( 1.694065894508582500E-017, 0.5000000000000000000, 0.0000000000000000000 ) ) ;
#297 = DIRECTION ( 'NONE',  ( 1.000000000000000000, 0.0000000000000000000, 0.0000000000000000000 ) ) ;
#298 = DIRECTION ( 'NONE',  ( 0.0000000000000000000, 0.0000000000000000000, 1.000000000000000000 ) ) ;
#299 = CARTESIAN_POINT ( 'NONE',  ( 0.0000000000000000000, 0.0000000000000000000, -0.2087500000000000200 ) ) ;
#300 = DIRECTION ( 'NONE',  ( 0.0000000000000000000, 0.0000000000000000000, -1.000000000000000000 ) ) ;
#301 = DIRECTION ( 'NONE',  ( 0.0000000000000000000, -1.000000000000000000, 0.0000000000000000000 ) ) ;
#302 = VERTEX_POINT ( 'NONE', #862 ) ;
#303 = VERTEX_POINT ( 'NONE', #972 ) ;
#304 = VERTEX_POINT ( 'NONE', #977 ) ;
#305 = VERTEX_POINT ( 'NONE', #973 ) ;
#306 = VERTEX_POINT ( 'NONE', #981 ) ;
#307 = VERTEX_POINT ( 'NONE', #978 ) ;
#308 = VERTEX_POINT ( 'NONE', #976 ) ;
#309 = VERTEX_POINT ( 'NONE', #975 ) ;
#310 = VERTEX_POINT ( 'NONE', #267 ) ;
#311 = VERTEX_POINT ( 'NONE', #941 ) ;
#312 = VERTEX_POINT ( 'NONE', #538 ) ;
#313 = VERTEX_POINT ( 'NONE', #517 ) ;
#314 = VERTEX_POINT ( 'NONE', #537 ) ;
#315 = VERTEX_POINT ( 'NONE', #536 ) ;
#316 = VERTEX_POINT ( 'NONE', #534 ) ;
#317 = VERTEX_POINT ( 'NONE', #535 ) ;
#318 = VERTEX_POINT ( 'NONE', #533 ) ;
#319 = VERTEX_POINT ( 'NONE', #530 ) ;
#320 = VERTEX_POINT ( 'NONE', #531 ) ;
#321 = VERTEX_POINT ( 'NONE', #532 ) ;
#322 = VERTEX_POINT ( 'NONE', #529 ) ;
#323 = VERTEX_POINT ( 'NONE', #527 ) ;
#324 = VERTEX_POINT ( 'NONE', #528 ) ;
#325 = VERTEX_POINT ( 'NONE', #526 ) ;
#326 = VERTEX_POINT ( 'NONE', #525 ) ;
#327 = VERTEX_POINT ( 'NONE', #524 ) ;
#328 = VECTOR ( 'NONE', #636, 39.37007874015748100 ) ;
#329 = LINE ( 'NONE', #638, #330 ) ;
#330 = VECTOR ( 'NONE', #641, 39.37007874015748100 ) ;
#331 = FACE_OUTER_BOUND ( 'NONE', #408, .T. ) ;
#332 = CONICAL_SURFACE ( 'NONE', #1026, 0.03622711978374636800, 0.7853981633974482800 ) ;
#333 = FACE_BOUND ( 'NONE', #435, .T. ) ;
#334 = TOROIDAL_SURFACE ( 'NONE', #1018, 0.4899999999999999900, 0.01000000000000000000 ) ;
#335 = CIRCLE ( 'NONE', #753, 0.4899999999999999900 ) ;
#336 = FACE_OUTER_BOUND ( 'NONE', #427, .T. ) ;
#337 = CIRCLE ( 'NONE', #720, 0.009999999999999995000 ) ;
#338 = FACE_OUTER_BOUND ( 'NONE', #483, .T. ) ;
#339 = FACE_OUTER_BOUND ( 'NONE', #420, .T. ) ;
#340 = CIRCLE ( 'NONE', #749, 0.09481073351354461800 ) ;
#341 = TOROIDAL_SURFACE ( 'NONE', #1028, 0.2600000000000000100, 0.01000000000000000000 ) ;
#342 = CIRCLE ( 'NONE', #732, 0.2500000000000000000 ) ;
#343 = LOCAL_TIME ( 11, 53, 45.00000000000000000, #1002 ) ;
#344 = TOROIDAL_SURFACE ( 'NONE', #1010, 0.4899999999999999900, 0.01000000000000000000 ) ;
#345 = FACE_OUTER_BOUND ( 'NONE', #434, .T. ) ;
#346 = FACE_OUTER_BOUND ( 'NONE', #415, .T. ) ;
#347 = FACE_OUTER_BOUND ( 'NONE', #472, .T. ) ;
#348 = FACE_OUTER_BOUND ( 'NONE', #413, .T. ) ;
#349 = ORIENTED_EDGE ( 'NONE', *, *, #756, .T. ) ;
#350 = ORIENTED_EDGE ( 'NONE', *, *, #741, .T. ) ;
#351 = ORIENTED_EDGE ( 'NONE', *, *, #162, .T. ) ;
#352 = ORIENTED_EDGE ( 'NONE', *, *, #721, .T. ) ;
#353 = ORIENTED_EDGE ( 'NONE', *, *, #116, .T. ) ;
#354 = ORIENTED_EDGE ( 'NONE', *, *, #746, .F. ) ;
#355 = ORIENTED_EDGE ( 'NONE', *, *, #751, .F. ) ;
#356 = ORIENTED_EDGE ( 'NONE', *, *, #140, .F. ) ;
#357 = ORIENTED_EDGE ( 'NONE', *, *, #725, .T. ) ;
#358 = ORIENTED_EDGE ( 'NONE', *, *, #163, .F. ) ;
#359 = ORIENTED_EDGE ( 'NONE', *, *, #734, .T. ) ;
#360 = ORIENTED_EDGE ( 'NONE', *, *, #133, .F. ) ;
#361 = ORIENTED_EDGE ( 'NONE', *, *, #129, .F. ) ;
#362 = ORIENTED_EDGE ( 'NONE', *, *, #742, .T. ) ;
#363 = ORIENTED_EDGE ( 'NONE', *, *, #722, .T. ) ;
#364 = ORIENTED_EDGE ( 'NONE', *, *, #743, .F. ) ;
#365 = ORIENTED_EDGE ( 'NONE', *, *, #729, .F. ) ;
#366 = ORIENTED_EDGE ( 'NONE', *, *, #743, .T. ) ;
#367 = ORIENTED_EDGE ( 'NONE', *, *, #736, .T. ) ;
#368 = ORIENTED_EDGE ( 'NONE', *, *, #763, .F. ) ;
#369 = ORIENTED_EDGE ( 'NONE', *, *, #735, .F. ) ;
#370 = ORIENTED_EDGE ( 'NONE', *, *, #721, .F. ) ;
#371 = ORIENTED_EDGE ( 'NONE', *, *, #761, .T. ) ;
#372 = ORIENTED_EDGE ( 'NONE', *, *, #763, .T. ) ;
#373 = PLANE ( 'NONE',  #1034 ) ;
#374 = CARTESIAN_POINT ( 'NONE',  ( -0.03608439182435161500, 0.3749999999999996700, 0.06250000000000008300 ) ) ;
#375 = DIRECTION ( 'NONE',  ( -1.000000000000000000, 0.0000000000000000000, 0.0000000000000000000 ) ) ;
#376 = DIRECTION ( 'NONE',  ( 3.388131789017165000E-017, 1.000000000000000000, -0.0000000000000000000 ) ) ;
#377 = DESIGN_CONTEXT ( 'detailed design', #202, 'design' ) ;
#378 = CONICAL_SURFACE ( 'NONE', #1017, 0.1249999999999999200, 0.7853981633974488300 ) ;
#379 = FACE_OUTER_BOUND ( 'NONE', #467, .T. ) ;
#380 = CONICAL_SURFACE ( 'NONE', #1008, 0.03622711978374636800, 0.7853981633974482800 ) ;
#381 = FACE_BOUND ( 'NONE', #410, .T. ) ;
#382 = FACE_OUTER_BOUND ( 'NONE', #492, .T. ) ;
#383 = CYLINDRICAL_SURFACE ( 'NONE', #1012, 0.5000000000000000000 ) ;
#384 = FACE_OUTER_BOUND ( 'NONE', #406, .T. ) ;
#385 = FACE_OUTER_BOUND ( 'NONE', #418, .T. ) ;
#386 = FACE_BOUND ( 'NONE', #414, .T. ) ;
#387 = TOROIDAL_SURFACE ( 'NONE', #1023, 0.4899999999999999900, 0.01000000000000000000 ) ;
#388 = FACE_OUTER_BOUND ( 'NONE', #423, .T. ) ;
#389 = FACE_OUTER_BOUND ( 'NONE', #409, .T. ) ;
#390 = FACE_OUTER_BOUND ( 'NONE', #403, .T. ) ;
#391 = CONICAL_SURFACE ( 'NONE', #1041, 0.1249999999999999200, 0.7853981633974488300 ) ;
#392 = FACE_OUTER_BOUND ( 'NONE', #416, .T. ) ;
#393 = CYLINDRICAL_SURFACE ( 'NONE', #1011, 0.1249999999999999600 ) ;
#394 = FACE_OUTER_BOUND ( 'NONE', #462, .T. ) ;
#395 = FACE_OUTER_BOUND ( 'NONE', #422, .T. ) ;
#396 = FACE_OUTER_BOUND ( 'NONE', #454, .T. ) ;
#397 = FACE_OUTER_BOUND ( 'NONE', #417, .T. ) ;
#398 = FACE_BOUND ( 'NONE', #426, .T. ) ;
#399 = FACE_OUTER_BOUND ( 'NONE', #451, .T. ) ;
#400 = CYLINDRICAL_SURFACE ( 'NONE', #1021, 0.5000000000000000000 ) ;
#401 = APPROVAL_PERSON_ORGANIZATION ( #845, #918, #205 ) ;
#402 = ORIENTED_EDGE ( 'NONE', *, *, #144, .T. ) ;
#403 = EDGE_LOOP ( 'NONE', ( #505, #502 ) ) ;
#404 = EDGE_LOOP ( 'NONE', ( #921, #924 ) ) ;
#405 = ORIENTED_EDGE ( 'NONE', *, *, #149, .T. ) ;
#406 = EDGE_LOOP ( 'NONE', ( #967, #964, #926, #925 ) ) ;
#407 = ORIENTED_EDGE ( 'NONE', *, *, #138, .T. ) ;
#408 = EDGE_LOOP ( 'NONE', ( #476, #501, #459, #465 ) ) ;
#409 = EDGE_LOOP ( 'NONE', ( #353, #352 ) ) ;
#410 = EDGE_LOOP ( 'NONE', ( #506, #474 ) ) ;
#411 = EDGE_LOOP ( 'NONE', ( #355, #356, #357, #358 ) ) ;
#412 = ORIENTED_EDGE ( 'NONE', *, *, #154, .T. ) ;
#413 = EDGE_LOOP ( 'NONE', ( #366, #367, #368, #369 ) ) ;
#414 = EDGE_LOOP ( 'NONE', ( #351, #350, #349, #453, #450, #475 ) ) ;
#415 = EDGE_LOOP ( 'NONE', ( #512, #456, #499, #485, #481, #463 ) ) ;
#416 = EDGE_LOOP ( 'NONE', ( #477, #509, #458, #473 ) ) ;
#417 = EDGE_LOOP ( 'NONE', ( #971, #402, #405, #419 ) ) ;
#418 = EDGE_LOOP ( 'NONE', ( #360, #359, #361 ) ) ;
#419 = ORIENTED_EDGE ( 'NONE', *, *, #145, .F. ) ;
#420 = EDGE_LOOP ( 'NONE', ( #496, #491, #470 ) ) ;
#421 = EDGE_LOOP ( 'NONE', ( #957, #954, #966, #968 ) ) ;
#422 = EDGE_LOOP ( 'NONE', ( #487, #455, #471, #468 ) ) ;
#423 = EDGE_LOOP ( 'NONE', ( #969, #951, #950, #970 ) ) ;
#424 = ORIENTED_EDGE ( 'NONE', *, *, #117, .T. ) ;
#425 = ORIENTED_EDGE ( 'NONE', *, *, #123, .T. ) ;
#426 = EDGE_LOOP ( 'NONE', ( #407, #412 ) ) ;
#427 = EDGE_LOOP ( 'NONE', ( #171, #175, #173, #174 ) ) ;
#428 = EDGE_LOOP ( 'NONE', ( #457, #494, #469, #495 ) ) ;
#429 = EDGE_LOOP ( 'NONE', ( #927, #947, #961, #945 ) ) ;
#430 = ORIENTED_EDGE ( 'NONE', *, *, #135, .F. ) ;
#431 = EDGE_LOOP ( 'NONE', ( #490, #478, #480, #460 ) ) ;
#432 = EDGE_LOOP ( 'NONE', ( #172, #176, #169, #168 ) ) ;
#433 = EDGE_LOOP ( 'NONE', ( #958, #956 ) ) ;
#434 = EDGE_LOOP ( 'NONE', ( #948, #944 ) ) ;
#435 = EDGE_LOOP ( 'NONE', ( #963, #955 ) ) ;
#436 = EDGE_LOOP ( 'NONE', ( #370, #371, #372, #354 ) ) ;
#437 = CARTESIAN_POINT ( 'NONE',  ( -0.03608439182435165000, 0.3749999999999996700, -0.06249999999999989600 ) ) ;
#438 = DIRECTION ( 'NONE',  ( 0.0000000000000000000, 0.0000000000000000000, 1.000000000000000000 ) ) ;
#439 = DIRECTION ( 'NONE',  ( 0.0000000000000000000, 1.000000000000000000, 0.0000000000000000000 ) ) ;
#440 = DIRECTION ( 'NONE',  ( 0.0000000000000000000, 0.0000000000000000000, 1.000000000000000000 ) ) ;
#441 = DIRECTION ( 'NONE',  ( -0.0000000000000000000, -0.0000000000000000000, -1.000000000000000000 ) ) ;
#442 = CARTESIAN_POINT ( 'NONE',  ( -0.5000000000000000000, 0.0000000000000000000, 0.2187500000000000000 ) ) ;
#443 = CARTESIAN_POINT ( 'NONE',  ( 1.591780681038712600E-017, 0.4698107335135446900, 0.0000000000000000000 ) ) ;
#444 = DIRECTION ( 'NONE',  ( 0.0000000000000000000, 1.000000000000000000, 0.0000000000000000000 ) ) ;
#445 = CARTESIAN_POINT ( 'NONE',  ( 0.03608439182435162900, 0.3749999999999996700, -0.06249999999999989600 ) ) ;
#446 = DIRECTION ( 'NONE',  ( 1.000000000000000000, 0.0000000000000000000, 0.0000000000000000000 ) ) ;
#447 = CARTESIAN_POINT ( 'NONE',  ( -0.05599784643821222000, 0.2437713352547133400, 0.1120599111296955200 ) ) ;
#448 = CARTESIAN_POINT ( 'NONE',  ( -0.04077063887301421400, 0.2467751561715030600, 0.1184522582899926000 ) ) ;
#449 = ORIENTED_EDGE ( 'NONE', *, *, #130, .F. ) ;
#450 = ORIENTED_EDGE ( 'NONE', *, *, #762, .T. ) ;
#451 = EDGE_LOOP ( 'NONE', ( #929, #923, #928, #930 ) ) ;
#452 = ORIENTED_EDGE ( 'NONE', *, *, #762, .F. ) ;
#453 = ORIENTED_EDGE ( 'NONE', *, *, #727, .T. ) ;
#454 = EDGE_LOOP ( 'NONE', ( #362, #363, #364, #365 ) ) ;
#455 = ORIENTED_EDGE ( 'NONE', *, *, #166, .T. ) ;
#456 = ORIENTED_EDGE ( 'NONE', *, *, #121, .F. ) ;
#457 = ORIENTED_EDGE ( 'NONE', *, *, #764, .F. ) ;
#458 = ORIENTED_EDGE ( 'NONE', *, *, #735, .T. ) ;
#459 = ORIENTED_EDGE ( 'NONE', *, *, #118, .T. ) ;
#460 = ORIENTED_EDGE ( 'NONE', *, *, #151, .T. ) ;
#461 = ORIENTED_EDGE ( 'NONE', *, *, #162, .F. ) ;
#462 = EDGE_LOOP ( 'NONE', ( #461, #508, #498, #486 ) ) ;
#463 = ORIENTED_EDGE ( 'NONE', *, *, #150, .F. ) ;
#464 = CYLINDRICAL_SURFACE ( 'NONE', #1020, 0.1249999999999999200 ) ;
#465 = ORIENTED_EDGE ( 'NONE', *, *, #130, .T. ) ;
#466 = EDGE_LOOP ( 'NONE', ( #489, #493, #497, #513 ) ) ;
#467 = EDGE_LOOP ( 'NONE', ( #511, #449, #484, #510 ) ) ;
#468 = ORIENTED_EDGE ( 'NONE', *, *, #139, .F. ) ;
#469 = ORIENTED_EDGE ( 'NONE', *, *, #122, .T. ) ;
#470 = ORIENTED_EDGE ( 'NONE', *, *, #126, .F. ) ;
#471 = ORIENTED_EDGE ( 'NONE', *, *, #729, .T. ) ;
#472 = EDGE_LOOP ( 'NONE', ( #177, #182, #183, #184 ) ) ;
#473 = ORIENTED_EDGE ( 'NONE', *, *, #151, .F. ) ;
#474 = ORIENTED_EDGE ( 'NONE', *, *, #126, .T. ) ;
#475 = ORIENTED_EDGE ( 'NONE', *, *, #764, .T. ) ;
#476 = ORIENTED_EDGE ( 'NONE', *, *, #741, .F. ) ;
#477 = ORIENTED_EDGE ( 'NONE', *, *, #736, .F. ) ;
#478 = ORIENTED_EDGE ( 'NONE', *, *, #116, .F. ) ;
#479 = EDGE_LOOP ( 'NONE', ( #425, #424 ) ) ;
#480 = ORIENTED_EDGE ( 'NONE', *, *, #746, .T. ) ;
#481 = ORIENTED_EDGE ( 'NONE', *, *, #124, .F. ) ;
#482 = ORIENTED_EDGE ( 'NONE', *, *, #156, .T. ) ;
#483 = EDGE_LOOP ( 'NONE', ( #180, #178, #181, #179 ) ) ;
#484 = ORIENTED_EDGE ( 'NONE', *, *, #150, .T. ) ;
#485 = ORIENTED_EDGE ( 'NONE', *, *, #156, .F. ) ;
#486 = ORIENTED_EDGE ( 'NONE', *, *, #148, .T. ) ;
#487 = ORIENTED_EDGE ( 'NONE', *, *, #722, .F. ) ;
#488 = CALENDAR_DATE ( 2013, 24, 4 ) ;
#489 = ORIENTED_EDGE ( 'NONE', *, *, #727, .F. ) ;
#490 = ORIENTED_EDGE ( 'NONE', *, *, #761, .F. ) ;
#491 = ORIENTED_EDGE ( 'NONE', *, *, #133, .T. ) ;
#492 = EDGE_LOOP ( 'NONE', ( #452, #500, #482, #514 ) ) ;
#493 = ORIENTED_EDGE ( 'NONE', *, *, #119, .F. ) ;
#494 = ORIENTED_EDGE ( 'NONE', *, *, #160, .F. ) ;
#495 = ORIENTED_EDGE ( 'NONE', *, *, #146, .T. ) ;
#496 = ORIENTED_EDGE ( 'NONE', *, *, #734, .F. ) ;
#497 = ORIENTED_EDGE ( 'NONE', *, *, #124, .T. ) ;
#498 = ORIENTED_EDGE ( 'NONE', *, *, #121, .T. ) ;
#499 = ORIENTED_EDGE ( 'NONE', *, *, #122, .F. ) ;
#500 = ORIENTED_EDGE ( 'NONE', *, *, #137, .F. ) ;
#501 = ORIENTED_EDGE ( 'NONE', *, *, #148, .F. ) ;
#502 = ORIENTED_EDGE ( 'NONE', *, *, #166, .F. ) ;
#503 = EDGE_LOOP ( 'NONE', ( #965, #959, #920, #922 ) ) ;
#504 = EDGE_LOOP ( 'NONE', ( #185, #186, #187, #170 ) ) ;
#505 = ORIENTED_EDGE ( 'NONE', *, *, #742, .F. ) ;
#506 = ORIENTED_EDGE ( 'NONE', *, *, #129, .T. ) ;
#507 = EDGE_LOOP ( 'NONE', ( #952, #962, #953, #430 ) ) ;
#508 = ORIENTED_EDGE ( 'NONE', *, *, #146, .F. ) ;
#509 = ORIENTED_EDGE ( 'NONE', *, *, #139, .T. ) ;
#510 = ORIENTED_EDGE ( 'NONE', *, *, #119, .T. ) ;
#511 = ORIENTED_EDGE ( 'NONE', *, *, #756, .F. ) ;
#512 = ORIENTED_EDGE ( 'NONE', *, *, #118, .F. ) ;
#513 = ORIENTED_EDGE ( 'NONE', *, *, #137, .T. ) ;
#514 = ORIENTED_EDGE ( 'NONE', *, *, #160, .T. ) ;
#515 = CARTESIAN_POINT ( 'NONE',  ( 0.03608439182435162900, 0.3749999999999996700, -0.06249999999999989600 ) ) ;
#516 = PLANE ( 'NONE',  #1030 ) ;
#517 = CARTESIAN_POINT ( 'NONE',  ( -0.2600000000000000100, 3.184081677783118700E-017, 0.2187500000000000000 ) ) ;
#518 = DIRECTION ( 'NONE',  ( 1.000000000000000000, 0.0000000000000000000, 0.0000000000000000000 ) ) ;
#519 = DIRECTION ( 'NONE',  ( 0.0000000000000000000, 0.0000000000000000000, 1.000000000000000000 ) ) ;
#520 = PLANE ( 'NONE',  #1022 ) ;
#521 = CARTESIAN_POINT ( 'NONE',  ( 0.0000000000000000000, 0.0000000000000000000, 0.2087499999999999900 ) ) ;
#522 = DIRECTION ( 'NONE',  ( 0.0000000000000000000, 0.0000000000000000000, 1.000000000000000000 ) ) ;
#523 = CARTESIAN_POINT ( 'NONE',  ( 0.0000000000000000000, 0.0000000000000000000, -0.2187500000000000000 ) ) ;
#524 = CARTESIAN_POINT ( 'NONE',  ( -0.03608439182435165000, 0.4999999999999997200, -0.06249999999999989600 ) ) ;
#525 = CARTESIAN_POINT ( 'NONE',  ( 0.07216878364870324400, 0.4999999999999997200, 1.113792453342873100E-016 ) ) ;
#526 = CARTESIAN_POINT ( 'NONE',  ( 0.03608439182435162900, 0.3749999999999996700, -0.06249999999999989600 ) ) ;
#527 = CARTESIAN_POINT ( 'NONE',  ( 0.03608439182435168500, 0.4999999999999997200, 0.06250000000000009700 ) ) ;
#528 = CARTESIAN_POINT ( 'NONE',  ( -0.03608439182435161500, 0.4999999999999997200, 0.06250000000000008300 ) ) ;
#529 = CARTESIAN_POINT ( 'NONE',  ( -1.352022651578206400E-017, 0.5000000000000000000, -0.1249999999999998600 ) ) ;
#530 = CARTESIAN_POINT ( 'NONE',  ( -0.2500000000000000000, 0.0000000000000000000, 0.2087499999999999900 ) ) ;
#531 = CARTESIAN_POINT ( 'NONE',  ( -0.4899999999999999900, 6.062001655779398500E-017, -0.2187500000000000000 ) ) ;
#532 = CARTESIAN_POINT ( 'NONE',  ( 0.2500000000000000000, 3.061616997868383000E-017, -0.2087500000000000200 ) ) ;
#533 = CARTESIAN_POINT ( 'NONE',  ( 1.530796134834183500E-017, 0.5000000000000000000, 0.1250000000000000600 ) ) ;
#534 = CARTESIAN_POINT ( 'NONE',  ( 0.07216878364870324400, 0.3749999999999996700, 1.113792453342873100E-016 ) ) ;
#535 = CARTESIAN_POINT ( 'NONE',  ( -4.091054486051400800E-016, 0.2500000000000011700, -0.1250000000000022500 ) ) ;
#536 = CARTESIAN_POINT ( 'NONE',  ( -0.07216878364870320300, 0.4999999999999997200, 9.317570608764784200E-017 ) ) ;
#537 = CARTESIAN_POINT ( 'NONE',  ( -0.2500000000000000000, 0.0000000000000000000, -0.2087500000000000200 ) ) ;
#538 = CARTESIAN_POINT ( 'NONE',  ( 0.03608439182435162900, 0.5000000000000000000, -0.06249999999999989600 ) ) ;
#539 = DATE_AND_TIME ( #488, #343 ) ;
#540 = CARTESIAN_POINT ( 'NONE',  ( -0.01683849277843931700, 0.2495655483507932000, -0.1241371529521025900 ) ) ;
#542 = CARTESIAN_POINT ( 'NONE',  ( -0.1090274626497948500, 0.2250859155017818100, -0.06329629518295239200 ) ) ;
#541 = APPROVAL_DATE_TIME ( #539, #918 ) ;
#543 = PERSON_AND_ORGANIZATION ( #943, #843 ) ;
#544 = CARTESIAN_POINT ( 'NONE',  ( -0.008397560364003194000, 0.2500000000000000600, -0.1249999999999999000 ) ) ;
#545 = COORDINATED_UNIVERSAL_TIME_OFFSET ( 6, 0, .BEHIND. ) ;
#546 = LOCAL_TIME ( 11, 53, 45.00000000000000000, #545 ) ;
#547 = CALENDAR_DATE ( 2013, 24, 4 ) ;
#548 = DATE_AND_TIME ( #547, #546 ) ;
#549 = CARTESIAN_POINT ( 'NONE',  ( -0.03306628565995675000, 0.2479377311248446600, -0.1208312390682037400 ) ) ;
#550 = PERSON_AND_ORGANIZATION ( #943, #843 ) ;
#551 = APPROVAL_PERSON_ORGANIZATION ( #550, #1064, #200 ) ;
#552 = COORDINATED_UNIVERSAL_TIME_OFFSET ( 6, 0, .BEHIND. ) ;
#553 = LOCAL_TIME ( 11, 53, 45.00000000000000000, #552 ) ;
#554 = CARTESIAN_POINT ( 'NONE',  ( -0.1209087089428464600, 0.2188255211056016600, -0.03278615829466097900 ) ) ;
#556 = CARTESIAN_POINT ( 'NONE',  ( -0.04087685444884459800, 0.2467548272869448400, -0.1184091725748460700 ) ) ;
#555 = CALENDAR_DATE ( 2013, 24, 4 ) ;
#557 = CARTESIAN_POINT ( 'NONE',  ( -0.05593081927641314900, 0.2437839319440706100, -0.1120865417191596600 ) ) ;
#558 = DATE_AND_TIME ( #555, #553 ) ;
#559 = CARTESIAN_POINT ( 'NONE',  ( -0.06321186495358269200, 0.2419768208488060900, -0.1081403668357686900 ) ) ;
#560 = APPROVAL_DATE_TIME ( #558, #1064 ) ;
#561 = CARTESIAN_POINT ( 'NONE',  ( -0.07658773585057959700, 0.2380815835302828900, -0.09911809888999308100 ) ) ;
#562 = PERSON_AND_ORGANIZATION ( #943, #843 ) ;
#563 = PERSON_AND_ORGANIZATION ( #943, #843 ) ;
#564 = PERSON_AND_ORGANIZATION ( #943, #843 ) ;
#565 = CARTESIAN_POINT ( 'NONE',  ( -0.09986577629882899300, 0.2295110058730822400, -0.07688996402054730500 ) ) ;
#566 = COORDINATED_UNIVERSAL_TIME_OFFSET ( 6, 0, .BEHIND. ) ;
#567 = LOCAL_TIME ( 11, 53, 45.00000000000000000, #566 ) ;
#568 = CARTESIAN_POINT ( 'NONE',  ( -0.08277092625382835600, 0.2359790086856111100, -0.09401613546511832000 ) ) ;
#569 = CALENDAR_DATE ( 2013, 24, 4 ) ;
#570 = DATE_AND_TIME ( #569, #567 ) ;
#571 = PERSON_AND_ORGANIZATION ( #943, #843 ) ;
#572 = APPROVAL_PERSON_ORGANIZATION ( #571, #110, #192 ) ;
#573 = COORDINATED_UNIVERSAL_TIME_OFFSET ( 6, 0, .BEHIND. ) ;
#574 = LOCAL_TIME ( 11, 53, 45.00000000000000000, #573 ) ;
#575 = CALENDAR_DATE ( 2013, 24, 4 ) ;
#576 = DATE_AND_TIME ( #575, #574 ) ;
#577 = APPROVAL_DATE_TIME ( #576, #110 ) ;
#578 = CARTESIAN_POINT ( 'NONE',  ( -0.1184993532808554500, 0.2201603222978676100, -0.04062025875045553700 ) ) ;
#579 = DIRECTION ( 'NONE',  ( 0.0000000000000000000, 0.0000000000000000000, 1.000000000000000000 ) ) ;
#580 = B_SPLINE_CURVE_WITH_KNOTS ( 'NONE', 3,
 ( #682, #912, #911, #910, #909, #908, #907, #906, #905, #904, #903, #902, #901, #900, #899, #898, #897, #896, #895, #894, #893, #892, #891, #890, #889, #888, #887, #886, #885, #884, #883, #882 ),
 .UNSPECIFIED., .F., .F.,
 ( 4, 2, 2, 2, 2, 2, 2, 2, 2, 2, 2, 2, 2, 2, 2, 4 ),
 ( 3.335376258003467900E-019, 0.0006228850452894393000, 0.001245770090578878400, 0.001868655135868317300, 0.002491540181157756300, 0.003114425226447195300, 0.003737310271736634300, 0.004360195317026072800, 0.004983080362315511800, 0.005605965407604950700, 0.006228850452894389700, 0.007474620543473267700, 0.008097505588762706600, 0.008720390634052145600, 0.009343275679341584600, 0.009966160724631023500 ),
 .UNSPECIFIED. ) ;
#581 = B_SPLINE_CURVE_WITH_KNOTS ( 'NONE', 3,
 ( #655, #691, #694, #693, #692, #695, #696, #646, #699, #664, #647, #644, #650, #649, #645, #651, #648, #689, #687, #678, #686, #685, #681, #683, #658, #676, #657, #697, #688, #679, #710, #684, #677, #675 ),
 .UNSPECIFIED., .F., .F.,
 ( 4, 2, 2, 2, 2, 2, 2, 2, 2, 2, 2, 2, 2, 2, 2, 2, 4 ),
 ( 2.205459038922955600E-017, 0.0006312262858097334400, 0.001262452571619445000, 0.001893678857429156500, 0.002524905143238867800, 0.003156131429048579200, 0.003787357714858290900, 0.004418584000668001800, 0.005049810286477713100, 0.005681036572287424500, 0.006312262858097135800, 0.006943489143906847100, 0.007574715429716559300, 0.008205941715526271500, 0.008837168001335982800, 0.009468394287145694100, 0.01009962057295540500 ),
 .UNSPECIFIED. ) ;
#582 = MANIFOLD_SOLID_BREP ( 'Fillet1', #946 ) ;
#583 = B_SPLINE_CURVE_WITH_KNOTS ( 'NONE', 3,
 ( #634, #1052, #1051, #1053, #448, #447, #879, #869, #878, #877, #875, #876, #873, #872, #871, #868, #870, #874, #867, #554, #578, #542, #565, #568, #561, #559, #557, #556, #549, #540, #544, #861 ),
 .UNSPECIFIED., .F., .F.,
 ( 4, 2, 2, 2, 2, 2, 2, 2, 2, 2, 2, 2, 2, 2, 2, 4 ),
 ( 0.01009962057295540500, 0.01072974760030902900, 0.01135987462766265300, 0.01199000165501627700, 0.01262012868236990100, 0.01325025570972352500, 0.01388038273707715100, 0.01451050976443077500, 0.01514063679178439900, 0.01577076381913802100, 0.01640089084649164900, 0.01766114490119889700, 0.01829127192855252100, 0.01892139895590614500, 0.01955152598325976900, 0.02018165301061339300 ),
 .UNSPECIFIED. ) ;
#584 = B_SPLINE_CURVE_WITH_KNOTS ( 'NONE', 3,
 ( #931, #1061, #1059, #1057, #1056, #1055, #1054, #851, #853, #852, #850, #849, #848, #847, #846, #1045, #1047, #1046, #1049, #1048, #1050, #274, #261, #262, #269, #272, #266, #264, #260, #271, #273, #270 ),
 .UNSPECIFIED., .F., .F.,
 ( 4, 2, 2, 2, 2, 2, 2, 2, 2, 2, 2, 2, 2, 2, 2, 4 ),
 ( 0.009966160724631023500, 0.01121159510254450700, 0.01183431229150124800, 0.01245702948045799100, 0.01307974666941473200, 0.01370246385837147300, 0.01432518104732821400, 0.01494789823628495500, 0.01557061542524169500, 0.01619333261419843600, 0.01681604980315517700, 0.01743876699211191500, 0.01806148418106865600, 0.01868420137002539700, 0.01930691855898213800, 0.01992963574793887900 ),
 .UNSPECIFIED. ) ;
#585 = MANIFOLD_SOLID_BREP ( 'Cut-Extrude2', #949 ) ;
#586 = ADVANCED_FACE ( 'NONE', ( #338 ), #344, .T. ) ;
#587 = ADVANCED_FACE ( 'NONE', ( #333, #345 ), #516, .F. ) ;
#588 = ADVANCED_FACE ( 'NONE', ( #331 ), #520, .T. ) ;
#589 = ADVANCED_FACE ( 'NONE', ( #346 ), #986, .T. ) ;
#590 = ADVANCED_FACE ( 'NONE', ( #336 ), #341, .T. ) ;
#591 = ADVANCED_FACE ( 'NONE', ( #339 ), #332, .F. ) ;
#592 = ADVANCED_FACE ( 'NONE', ( #347 ), #387, .T. ) ;
#593 = ADVANCED_FACE ( 'NONE', ( #398, #397 ), #400, .T. ) ;
#594 = ADVANCED_FACE ( 'NONE', ( #399 ), #393, .F. ) ;
#595 = ADVANCED_FACE ( 'NONE', ( #396 ), #391, .T. ) ;
#596 = ADVANCED_FACE ( 'NONE', ( #381, #390 ), #234, .T. ) ;
#597 = ADVANCED_FACE ( 'NONE', ( #394 ), #243, .T. ) ;
#598 = ADVANCED_FACE ( 'NONE', ( #389, #386 ), #224, .T. ) ;
#599 = ADVANCED_FACE ( 'NONE', ( #388 ), #383, .T. ) ;
#600 = ADVANCED_FACE ( 'NONE', ( #385 ), #380, .F. ) ;
#601 = ADVANCED_FACE ( 'NONE', ( #395 ), #378, .T. ) ;
#602 = ADVANCED_FACE ( 'NONE', ( #384 ), #334, .T. ) ;
#603 = ADVANCED_FACE ( 'NONE', ( #348 ), #464, .T. ) ;
#604 = ADVANCED_FACE ( 'NONE', ( #392 ), #993, .T. ) ;
#605 = ADVANCED_FACE ( 'NONE', ( #379 ), #217, .T. ) ;
#606 = ADVANCED_FACE ( 'NONE', ( #382 ), #373, .T. ) ;
#607 = ADVANCED_FACE ( 'NONE', ( #788 ), #789, .T. ) ;
#608 = ADVANCED_FACE ( 'NONE', ( #790 ), #793, .F. ) ;
#609 = ADVANCED_FACE ( 'NONE', ( #787 ), #795, .T. ) ;
#610 = ADVANCED_FACE ( 'NONE', ( #791 ), #797, .F. ) ;
#611 = ADVANCED_FACE ( 'NONE', ( #786 ), #107, .T. ) ;
#612 = ADVANCED_FACE ( 'NONE', ( #792 ), #796, .T. ) ;
#613 = ADVANCED_FACE ( 'NONE', ( #799 ), #798, .T. ) ;
#614 = ADVANCED_FACE ( 'NONE', ( #801 ), #16, .T. ) ;
#615 = ADVANCED_FACE ( 'NONE', ( #794, #803 ), #96, .T. ) ;
#616 = ADVANCED_FACE ( 'NONE', ( #800 ), #802, .T. ) ;
#617 = ADVANCED_FACE ( 'NONE', ( #806, #807 ), #804, .F. ) ;
#618 = ADVANCED_FACE ( 'NONE', ( #805 ), #811, .T. ) ;
#619 = DIMENSIONAL_EXPONENTS ( 1.000000000000000000, 0.0000000000000000000, 0.0000000000000000000, 0.0000000000000000000, 0.0000000000000000000, 0.0000000000000000000, 0.0000000000000000000 ) ;
#620 = CARTESIAN_POINT ( 'NONE',  ( 0.2600000000000000100, 0.0000000000000000000, 0.2087499999999999900 ) ) ;
#621 = VERTEX_POINT ( 'NONE', #93 ) ;
#622 = VERTEX_POINT ( 'NONE', #72 ) ;
#623 = VERTEX_POINT ( 'NONE', #71 ) ;
#624 = VERTEX_POINT ( 'NONE', #70 ) ;
#625 = VERTEX_POINT ( 'NONE', #69 ) ;
#626 = VERTEX_POINT ( 'NONE', #67 ) ;
#627 = VERTEX_POINT ( 'NONE', #66 ) ;
#628 = CARTESIAN_POINT ( 'NONE',  ( 0.03608439182435162900, 0.3749999999999996700, -0.06249999999999989600 ) ) ;
#629 = VERTEX_POINT ( 'NONE', #65 ) ;
#630 = VERTEX_POINT ( 'NONE', #73 ) ;
#631 = VERTEX_POINT ( 'NONE', #63 ) ;
#632 = VERTEX_POINT ( 'NONE', #62 ) ;
#633 = DIRECTION ( 'NONE',  ( 0.0000000000000000000, 1.000000000000000000, 0.0000000000000000000 ) ) ;
#634 = CARTESIAN_POINT ( 'NONE',  ( 1.530808632251267600E-017, 0.2500000000000000000, 0.1250000000000000600 ) ) ;
#635 = DIRECTION ( 'NONE',  ( 1.224646799147353200E-016, 1.000000000000000000, -0.0000000000000000000 ) ) ;
#636 = DIRECTION ( 'NONE',  ( -0.0000000000000000000, -1.000000000000000000, -0.0000000000000000000 ) ) ;
#637 = CARTESIAN_POINT ( 'NONE',  ( 0.0000000000000000000, 0.5000000000000000000, -0.1249999999999998600 ) ) ;
#638 = CARTESIAN_POINT ( 'NONE',  ( -0.03608439182435165000, 0.4999999999999997200, -0.06249999999999989600 ) ) ;
#639 = CARTESIAN_POINT ( 'NONE',  ( 0.4899999999999999900, 0.0000000000000000000, 0.2187500000000000000 ) ) ;
#640 = CARTESIAN_POINT ( 'NONE',  ( 0.0000000000000000000, 0.0000000000000000000, 0.2187500000000000000 ) ) ;
#641 = DIRECTION ( 'NONE',  ( 1.000000000000000000, 0.0000000000000000000, 0.0000000000000000000 ) ) ;
#642 = DIRECTION ( 'NONE',  ( -1.000000000000000000, 1.224646799147346800E-016, 0.0000000000000000000 ) ) ;
#643 = CARTESIAN_POINT ( 'NONE',  ( -0.2500000000000000000, 0.0000000000000000000, 0.2187500000000000000 ) ) ;
#644 = CARTESIAN_POINT ( 'NONE',  ( 0.1083237360778976100, 0.2253675830373183500, -0.06290095580718543800 ) ) ;
#645 = CARTESIAN_POINT ( 'NONE',  ( 0.1208923248124712200, 0.2188345564783030800, -0.03283691446876049700 ) ) ;
#646 = CARTESIAN_POINT ( 'NONE',  ( 0.07657266471441065400, 0.2380881317157013100, -0.09913496881656033700 ) ) ;
#647 = CARTESIAN_POINT ( 'NONE',  ( 0.09930355428883327900, 0.2294850395724334400, -0.07635028582092047400 ) ) ;
#648 = CARTESIAN_POINT ( 'NONE',  ( 0.1249919061149016300, 0.2165110239499538300, -0.008439752565007481800 ) ) ;
#649 = CARTESIAN_POINT ( 'NONE',  ( 0.1184207704445506000, 0.2202022443278466600, -0.04083406884749209800 ) ) ;
#650 = CARTESIAN_POINT ( 'NONE',  ( 0.1121445571849960100, 0.2234638797960037400, -0.05580769073437677500 ) ) ;
#651 = CARTESIAN_POINT ( 'NONE',  ( 0.1241618376977365600, 0.2169962104902769800, -0.01664497551556238700 ) ) ;
#652 = DIRECTION ( 'NONE',  ( -0.0000000000000000000, -0.0000000000000000000, -1.000000000000000000 ) ) ;
#653 = DIRECTION ( 'NONE',  ( -0.0000000000000000000, -0.0000000000000000000, -1.000000000000000000 ) ) ;
#654 = DIRECTION ( 'NONE',  ( 0.7071067811865474600, -0.7071067811865475700, 0.0000000000000000000 ) ) ;
#655 = CARTESIAN_POINT ( 'NONE',  ( -4.091054486051400800E-016, 0.2500000000000011700, -0.1250000000000022500 ) ) ;
#656 = CARTESIAN_POINT ( 'NONE',  ( 0.0000000000000000000, 0.0000000000000000000, -0.2187500000000000000 ) ) ;
#657 = CARTESIAN_POINT ( 'NONE',  ( 0.07652985350406367500, 0.2381026849800319300, 0.09917031537354459300 ) ) ;
#658 = CARTESIAN_POINT ( 'NONE',  ( 0.09406697667641561500, 0.2317070434403765700, 0.08270868504573958300 ) ) ;
#659 = CARTESIAN_POINT ( 'NONE',  ( 8.470329472542912500E-018, 0.2500000000000000000, 0.0000000000000000000 ) ) ;
#660 = DIRECTION ( 'NONE',  ( 0.0000000000000000000, -1.000000000000000000, 0.0000000000000000000 ) ) ;
#661 = DIRECTION ( 'NONE',  ( 0.0000000000000000000, 1.000000000000000000, 0.0000000000000000000 ) ) ;
#662 = DIRECTION ( 'NONE',  ( 3.388131789017165000E-017, 1.000000000000000000, -0.0000000000000000000 ) ) ;
#663 = DIRECTION ( 'NONE',  ( 0.0000000000000000000, 0.0000000000000000000, -1.000000000000000000 ) ) ;
#664 = CARTESIAN_POINT ( 'NONE',  ( 0.09414971904405955400, 0.2316731972127785100, -0.08261401287167972900 ) ) ;
#665 = CARTESIAN_POINT ( 'NONE',  ( 0.07216878364870324400, 0.3749999999999996700, 1.113792453342873100E-016 ) ) ;
#666 = DIRECTION ( 'NONE',  ( 1.000000000000000000, 0.0000000000000000000, 0.0000000000000000000 ) ) ;
#667 = CARTESIAN_POINT ( 'NONE',  ( 0.0000000000000000000, 0.0000000000000000000, -0.2087500000000000200 ) ) ;
#668 = DIRECTION ( 'NONE',  ( -1.000000000000000000, 0.0000000000000000000, 0.0000000000000000000 ) ) ;
#669 = DIRECTION ( 'NONE',  ( -0.0000000000000000000, -0.0000000000000000000, -1.000000000000000000 ) ) ;
#670 = DIRECTION ( 'NONE',  ( -0.0000000000000000000, -0.0000000000000000000, -1.000000000000000000 ) ) ;
#671 = DIRECTION ( 'NONE',  ( -1.000000000000000000, 0.0000000000000000000, 0.0000000000000000000 ) ) ;
#672 = CARTESIAN_POINT ( 'NONE',  ( 0.4899999999999999900, 0.0000000000000000000, -0.2087500000000000200 ) ) ;
#673 = DIRECTION ( 'NONE',  ( -0.0000000000000000000, -0.0000000000000000000, -1.000000000000000000 ) ) ;
#674 = DIRECTION ( 'NONE',  ( 1.000000000000000000, 0.0000000000000000000, 0.0000000000000000000 ) ) ;
#675 = CARTESIAN_POINT ( 'NONE',  ( 1.530808632251267600E-017, 0.2500000000000000000, 0.1250000000000000600 ) ) ;
#676 = CARTESIAN_POINT ( 'NONE',  ( 0.08272581550592653100, 0.2359940455388679400, 0.09405191189931271000 ) ) ;
#677 = CARTESIAN_POINT ( 'NONE',  ( 0.008299749555436665800, 0.2500000000000000600, 0.1250000000000001400 ) ) ;
#678 = CARTESIAN_POINT ( 'NONE',  ( 0.1209008319619802600, 0.2188298251684606700, 0.03280368009882540800 ) ) ;
#679 = CARTESIAN_POINT ( 'NONE',  ( 0.04081201192749059300, 0.2467648167636860800, 0.1184296442269134300 ) ) ;
#680 = CARTESIAN_POINT ( 'NONE',  ( 0.0000000000000000000, 0.0000000000000000000, 0.2087499999999999900 ) ) ;
#681 = CARTESIAN_POINT ( 'NONE',  ( 0.1082702578474259600, 0.2253932308418217000, 0.06299145039904829900 ) ) ;
#682 = CARTESIAN_POINT ( 'NONE',  ( -1.352022651578206400E-017, 0.5000000000000000000, -0.1249999999999998600 ) ) ;
#683 = CARTESIAN_POINT ( 'NONE',  ( 0.09925318142174550900, 0.2295067825170421200, 0.07641451128801345100 ) ) ;
#684 = CARTESIAN_POINT ( 'NONE',  ( 0.01653458501096523000, 0.2495876789751086400, 0.1241815777748003100 ) ) ;
#685 = CARTESIAN_POINT ( 'NONE',  ( 0.1121179615806313600, 0.2234778071967432100, 0.05587371032851346000 ) ) ;
#686 = CARTESIAN_POINT ( 'NONE',  ( 0.1184590711039274800, 0.2201822338238380900, 0.04074011890097051200 ) ) ;
#687 = CARTESIAN_POINT ( 'NONE',  ( 0.1241639009832784100, 0.2169949982026605200, 0.01662583200142740000 ) ) ;
#688 = CARTESIAN_POINT ( 'NONE',  ( 0.05582004419464441100, 0.2438085678890165600, 0.1121397503804555000 ) ) ;
#689 = CARTESIAN_POINT ( 'NONE',  ( 0.1250079772579126800, 0.2165017452769816000, 0.008198270517622377800 ) ) ;
#690 = DIRECTION ( 'NONE',  ( 1.000000000000000000, 0.0000000000000000000, 0.0000000000000000000 ) ) ;
#691 = CARTESIAN_POINT ( 'NONE',  ( 0.008412209932804266500, 0.2499999999999999200, -0.1249999999999998300 ) ) ;
#692 = CARTESIAN_POINT ( 'NONE',  ( 0.04085413050514064000, 0.2467592533003145100, -0.1184185754898510100 ) ) ;
#693 = CARTESIAN_POINT ( 'NONE',  ( 0.03283863459610896600, 0.2479671832549018300, -0.1208914659320786300 ) ) ;
#694 = CARTESIAN_POINT ( 'NONE',  ( 0.01665813608995835000, 0.2495768546871188800, -0.1241596913629867700 ) ) ;
#695 = CARTESIAN_POINT ( 'NONE',  ( 0.05594988112101518400, 0.2437802286306338400, -0.1120786768431929500 ) ) ;
#696 = CARTESIAN_POINT ( 'NONE',  ( 0.06308448025738294700, 0.2420117348311741900, -0.1082195147576526900 ) ) ;
#697 = CARTESIAN_POINT ( 'NONE',  ( 0.06298928302527541400, 0.2420373055874145100, 0.1082770527517418600 ) ) ;
#698 = CARTESIAN_POINT ( 'NONE',  ( -0.03608439182435161500, 0.3749999999999996700, 0.06250000000000008300 ) ) ;
#699 = CARTESIAN_POINT ( 'NONE',  ( 0.08282725796848203200, 0.2359582277444226300, -0.09396217353946183200 ) ) ;
#700 = CARTESIAN_POINT ( 'NONE',  ( 1.530808498934190900E-017, 0.5000000000000000000, 0.1250000000000000600 ) ) ;
#701 = CARTESIAN_POINT ( 'NONE',  ( 0.0000000000000000000, 0.0000000000000000000, 0.2187500000000000000 ) ) ;
#702 = DIRECTION ( 'NONE',  ( -0.0000000000000000000, -0.0000000000000000000, -1.000000000000000000 ) ) ;
#703 = CARTESIAN_POINT ( 'NONE',  ( 0.03608439182435168500, 0.3749999999999996700, 0.06250000000000009700 ) ) ;
#704 = DIRECTION ( 'NONE',  ( -1.000000000000000000, 0.0000000000000000000, -1.182924880895400000E-016 ) ) ;
#705 = CARTESIAN_POINT ( 'NONE',  ( 0.2500000000000000000, 3.061616997868383000E-017, 0.2187500000000000000 ) ) ;
#706 = DIRECTION ( 'NONE',  ( -0.0000000000000000000, -1.000000000000000000, -0.0000000000000000000 ) ) ;
#707 = CARTESIAN_POINT ( 'NONE',  ( 8.470329472542912500E-018, 0.2500000000000000000, 0.0000000000000000000 ) ) ;
#708 = DIRECTION ( 'NONE',  ( 3.388131789017165000E-017, 1.000000000000000000, -0.0000000000000000000 ) ) ;
#709 = DIRECTION ( 'NONE',  ( 1.000000000000000000, 0.0000000000000000000, 0.0000000000000000000 ) ) ;
#710 = CARTESIAN_POINT ( 'NONE',  ( 0.03287396435769295700, 0.2479651275181166700, 0.1208873824165812600 ) ) ;
#711 = CARTESIAN_POINT ( 'NONE',  ( 0.03622711978374637500, 0.2500000000000000000, 0.0000000000000000000 ) ) ;
#712 = DIRECTION ( 'NONE',  ( 1.000000000000000000, 0.0000000000000000000, 0.0000000000000000000 ) ) ;
#713 = CARTESIAN_POINT ( 'NONE',  ( -0.2600000000000000100, 3.184081677783118700E-017, -0.2087500000000000200 ) ) ;
#714 = CC_DESIGN_PERSON_AND_ORGANIZATION_ASSIGNMENT ( #562, #199, ( #1063 ) ) ;
#715 = CC_DESIGN_APPROVAL ( #1064, ( #1063 ) ) ;
#716 = AXIS2_PLACEMENT_3D ( 'NONE', #659, #662, #668 ) ;
#717 = AXIS2_PLACEMENT_3D ( 'NONE', #1072, #1070, #1069 ) ;
#718 = EDGE_CURVE ( 'NONE', #278, #276, #813, .T. ) ;
#719 = AXIS2_PLACEMENT_3D ( 'NONE', #1065, #440, #446 ) ;
#720 = AXIS2_PLACEMENT_3D ( 'NONE', #713, #866, #865 ) ;
#721 = EDGE_CURVE ( 'NONE', #626, #630, #814, .T. ) ;
#722 = EDGE_CURVE ( 'NONE', #623, #621, #810, .T. ) ;
#723 = AXIS2_PLACEMENT_3D ( 'NONE', #913, #881, #880 ) ;
#724 = AXIS2_PLACEMENT_3D ( 'NONE', #701, #702, #709 ) ;
#725 = EDGE_CURVE ( 'NONE', #305, #278, #818, .T. ) ;
#726 = AXIS2_PLACEMENT_3D ( 'NONE', #1068, #438, #938 ) ;
#727 = EDGE_CURVE ( 'NONE', #323, #324, #817, .T. ) ;
#728 = AXIS2_PLACEMENT_3D ( 'NONE', #296, #295, #294 ) ;
#729 = EDGE_CURVE ( 'NONE', #625, #622, #819, .T. ) ;
#730 = AXIS2_PLACEMENT_3D ( 'NONE', #38, #28, #27 ) ;
#731 = AXIS2_PLACEMENT_3D ( 'NONE', #17, #10, #9 ) ;
#732 = AXIS2_PLACEMENT_3D ( 'NONE', #863, #856, #860 ) ;
#733 = AXIS2_PLACEMENT_3D ( 'NONE', #299, #298, #297 ) ;
#734 = EDGE_CURVE ( 'NONE', #629, #632, #821, .T. ) ;
#735 = EDGE_CURVE ( 'NONE', #622, #627, #816, .T. ) ;
#736 = EDGE_CURVE ( 'NONE', #621, #624, #824, .T. ) ;
#737 = AXIS2_PLACEMENT_3D ( 'NONE', #263, #635, #642 ) ;
#738 = AXIS2_PLACEMENT_3D ( 'NONE', #656, #652, #916 ) ;
#739 = AXIS2_PLACEMENT_3D ( 'NONE', #672, #660, #663 ) ;
#740 = AXIS2_PLACEMENT_3D ( 'NONE', #936, #1060, #1058 ) ;
#741 = EDGE_CURVE ( 'NONE', #312, #326, #815, .T. ) ;
#742 = EDGE_CURVE ( 'NONE', #625, #623, #830, .T. ) ;
#743 = EDGE_CURVE ( 'NONE', #622, #621, #832, .T. ) ;
#744 = AXIS2_PLACEMENT_3D ( 'NONE', #1079, #1078, #1077 ) ;
#745 = AXIS2_PLACEMENT_3D ( 'NONE', #667, #670, #666 ) ;
#746 = EDGE_CURVE ( 'NONE', #630, #624, #827, .T. ) ;
#747 = AXIS2_PLACEMENT_3D ( 'NONE', #33, #24, #23 ) ;
#748 = AXIS2_PLACEMENT_3D ( 'NONE', #680, #669, #674 ) ;
#749 = AXIS2_PLACEMENT_3D ( 'NONE', #854, #859, #857 ) ;
#750 = AXIS2_PLACEMENT_3D ( 'NONE', #1075, #1067, #1066 ) ;
#751 = EDGE_CURVE ( 'NONE', #311, #276, #835, .T. ) ;
#752 = AXIS2_PLACEMENT_3D ( 'NONE', #293, #292, #291 ) ;
#753 = AXIS2_PLACEMENT_3D ( 'NONE', #640, #579, #712 ) ;
#754 = AXIS2_PLACEMENT_3D ( 'NONE', #935, #933, #932 ) ;
#755 = AXIS2_PLACEMENT_3D ( 'NONE', #443, #934, #937 ) ;
#756 = EDGE_CURVE ( 'NONE', #326, #323, #834, .T. ) ;
#757 = AXIS2_PLACEMENT_3D ( 'NONE', #914, #1074, #1073 ) ;
#758 = AXIS2_PLACEMENT_3D ( 'NONE', #285, #284, #283 ) ;
#759 = AXIS2_PLACEMENT_3D ( 'NONE', #707, #708, #671 ) ;
#760 = AXIS2_PLACEMENT_3D ( 'NONE', #20, #519, #864 ) ;
#761 = EDGE_CURVE ( 'NONE', #626, #627, #836, .T. ) ;
#762 = EDGE_CURVE ( 'NONE', #324, #315, #808, .T. ) ;
#763 = EDGE_CURVE ( 'NONE', #627, #624, #839, .T. ) ;
#764 = EDGE_CURVE ( 'NONE', #315, #327, #831, .T. ) ;
#765 = CIRCLE ( 'NONE', #728, 0.09481073351354461800 ) ;
#766 = LINE ( 'NONE', #628, #768 ) ;
#767 = CIRCLE ( 'NONE', #752, 0.2600000000000000100 ) ;
#768 = VECTOR ( 'NONE', #289, 39.37007874015748900 ) ;
#769 = VECTOR ( 'NONE', #286, 39.37007874015748100 ) ;
#770 = LINE ( 'NONE', #705, #784 ) ;
#771 = LINE ( 'NONE', #282, #777 ) ;
#772 = LINE ( 'NONE', #287, #775 ) ;
#773 = CIRCLE ( 'NONE', #745, 0.2500000000000000000 ) ;
#774 = CIRCLE ( 'NONE', #758, 0.2500000000000000000 ) ;
#775 = VECTOR ( 'NONE', #690, 39.37007874015748100 ) ;
#776 = LINE ( 'NONE', #665, #778 ) ;
#777 = VECTOR ( 'NONE', #288, 39.37007874015748900 ) ;
#778 = VECTOR ( 'NONE', #661, 39.37007874015748100 ) ;
#779 = LINE ( 'NONE', #1071, #785 ) ;
#780 = LINE ( 'NONE', #700, #782 ) ;
#781 = CIRCLE ( 'NONE', #724, 0.2600000000000000100 ) ;
#782 = VECTOR ( 'NONE', #706, 39.37007874015748100 ) ;
#783 = CIRCLE ( 'NONE', #759, 0.03622711978374636800 ) ;
#784 = VECTOR ( 'NONE', #653, 39.37007874015748100 ) ;
#785 = VECTOR ( 'NONE', #1076, 39.37007874015748100 ) ;
#786 = FACE_OUTER_BOUND ( 'NONE', #466, .T. ) ;
#787 = FACE_OUTER_BOUND ( 'NONE', #431, .T. ) ;
#788 = FACE_OUTER_BOUND ( 'NONE', #421, .T. ) ;
#789 = TOROIDAL_SURFACE ( 'NONE', #1024, 0.2600000000000000100, 0.01000000000000000000 ) ;
#790 = FACE_OUTER_BOUND ( 'NONE', #507, .T. ) ;
#791 = FACE_OUTER_BOUND ( 'NONE', #432, .T. ) ;
#792 = FACE_OUTER_BOUND ( 'NONE', #429, .T. ) ;
#793 = CYLINDRICAL_SURFACE ( 'NONE', #1037, 0.2500000000000000000 ) ;
#794 = FACE_BOUND ( 'NONE', #479, .T. ) ;
#795 = CONICAL_SURFACE ( 'NONE', #1032, 0.09481073351354463200, 0.7853981633974480600 ) ;
#796 = TOROIDAL_SURFACE ( 'NONE', #1014, 0.2600000000000000100, 0.01000000000000000000 ) ;
#797 = CYLINDRICAL_SURFACE ( 'NONE', #1015, 0.1249999999999999600 ) ;
#798 = TOROIDAL_SURFACE ( 'NONE', #1027, 0.4899999999999999900, 0.01000000000000000000 ) ;
#799 = FACE_OUTER_BOUND ( 'NONE', #411, .T. ) ;
#800 = FACE_OUTER_BOUND ( 'NONE', #504, .T. ) ;
#801 = FACE_OUTER_BOUND ( 'NONE', #428, .T. ) ;
#802 = TOROIDAL_SURFACE ( 'NONE', #1007, 0.2600000000000000100, 0.01000000000000000000 ) ;
#803 = FACE_OUTER_BOUND ( 'NONE', #433, .T. ) ;
#804 = CYLINDRICAL_SURFACE ( 'NONE', #1019, 0.2500000000000000000 ) ;
#805 = FACE_OUTER_BOUND ( 'NONE', #436, .T. ) ;
#806 = FACE_OUTER_BOUND ( 'NONE', #503, .T. ) ;
#807 = FACE_BOUND ( 'NONE', #404, .T. ) ;
#808 = LINE ( 'NONE', #22, #838 ) ;
#809 = VECTOR ( 'NONE', #45, 39.37007874015748100 ) ;
#810 = LINE ( 'NONE', #52, #812 ) ;
#811 = CONICAL_SURFACE ( 'NONE', #919, 0.09481073351354463200, 0.7853981633974480600 ) ;
#812 = VECTOR ( 'NONE', #51, 39.37007874015748100 ) ;
#813 = CIRCLE ( 'NONE', #1025, 0.4899999999999999900 ) ;
#814 = CIRCLE ( 'NONE', #1029, 0.09481073351354461800 ) ;
#815 = LINE ( 'NONE', #40, #826 ) ;
#816 = LINE ( 'NONE', #46, #823 ) ;
#817 = LINE ( 'NONE', #53, #809 ) ;
#818 = CIRCLE ( 'NONE', #1039, 0.009999999999999995000 ) ;
#819 = LINE ( 'NONE', #44, #820 ) ;
#820 = VECTOR ( 'NONE', #43, 39.37007874015748100 ) ;
#821 = LINE ( 'NONE', #42, #822 ) ;
#822 = VECTOR ( 'NONE', #41, 39.37007874015748100 ) ;
#823 = VECTOR ( 'NONE', #39, 39.37007874015748100 ) ;
#824 = LINE ( 'NONE', #37, #825 ) ;
#825 = VECTOR ( 'NONE', #36, 39.37007874015748100 ) ;
#826 = VECTOR ( 'NONE', #34, 39.37007874015748900 ) ;
#827 = LINE ( 'NONE', #26, #829 ) ;
#828 = VECTOR ( 'NONE', #21, 39.37007874015748900 ) ;
#829 = VECTOR ( 'NONE', #25, 39.37007874015748100 ) ;
#830 = CIRCLE ( 'NONE', #1031, 0.09481073351354461800 ) ;
#831 = LINE ( 'NONE', #7, #833 ) ;
#832 = CIRCLE ( 'NONE', #730, 0.1249999999999999000 ) ;
#833 = VECTOR ( 'NONE', #6, 39.37007874015748900 ) ;
#834 = LINE ( 'NONE', #30, #828 ) ;
#835 = CIRCLE ( 'NONE', #747, 0.01000000000000003000 ) ;
#836 = LINE ( 'NONE', #19, #837 ) ;
#837 = VECTOR ( 'NONE', #18, 39.37007874015748100 ) ;
#838 = VECTOR ( 'NONE', #14, 39.37007874015748900 ) ;
#839 = CIRCLE ( 'NONE', #731, 0.1249999999999999000 ) ;
#840 = LENGTH_MEASURE_WITH_UNIT ( LENGTH_MEASURE( 0.02539999999999999900 ), #5 );
#841 =( GEOMETRIC_REPRESENTATION_CONTEXT ( 3 ) GLOBAL_UNCERTAINTY_ASSIGNED_CONTEXT ( ( #207 ) ) GLOBAL_UNIT_ASSIGNED_CONTEXT ( ( #8, #4, #3 ) ) REPRESENTATION_CONTEXT ( 'NONE', 'WORKASPACE' ) );
#842 = SHAPE_DEFINITION_REPRESENTATION ( #275, #208 ) ;
#843 = ORGANIZATION ( 'UNSPECIFIED', 'UNSPECIFIED', '' ) ;
#844 = PERSON_AND_ORGANIZATION ( #943, #843 ) ;
#845 = PERSON_AND_ORGANIZATION ( #943, #843 ) ;
#846 = CARTESIAN_POINT ( 'NONE',  ( -0.1249974198837044600, 0.4841235844590553400, 0.008283876072546169500 ) ) ;
#847 = CARTESIAN_POINT ( 'NONE',  ( -0.1241698134483117900, 0.4843393281937485300, 0.01653492409457207500 ) ) ;
#848 = CARTESIAN_POINT ( 'NONE',  ( -0.1209676200526916000, 0.4851490104140663300, 0.03253277094545524400 ) ) ;
#849 = CARTESIAN_POINT ( 'NONE',  ( -0.1185774603027143400, 0.4857467906945093200, 0.04040013539065880100 ) ) ;
#850 = CARTESIAN_POINT ( 'NONE',  ( -0.1122541203495699100, 0.4872469304432831000, 0.05560393417708529900 ) ) ;
#851 = CARTESIAN_POINT ( 'NONE',  ( -0.09411754686572979000, 0.4910969266306407000, 0.08266377423578727400 ) ) ;
#852 = CARTESIAN_POINT ( 'NONE',  ( -0.1084023063519267700, 0.4881293515762429900, 0.06276866902993358300 ) ) ;
#853 = CARTESIAN_POINT ( 'NONE',  ( -0.09936828849954090800, 0.4900482293951610200, 0.07626866378060077900 ) ) ;
#854 = CARTESIAN_POINT ( 'NONE',  ( 8.470329472542912500E-018, 0.2500000000000000000, 0.0000000000000000000 ) ) ;
#855 = CARTESIAN_POINT ( 'NONE',  ( -0.03608439182435161500, 0.3749999999999996700, 0.06250000000000008300 ) ) ;
#856 = DIRECTION ( 'NONE',  ( -0.0000000000000000000, -0.0000000000000000000, -1.000000000000000000 ) ) ;
#857 = DIRECTION ( 'NONE',  ( -1.000000000000000000, 0.0000000000000000000, 0.0000000000000000000 ) ) ;
#858 = CARTESIAN_POINT ( 'NONE',  ( -0.4899999999999999900, 6.062001655779398500E-017, 0.2187500000000000000 ) ) ;
#859 = DIRECTION ( 'NONE',  ( 3.388131789017165000E-017, 1.000000000000000000, -0.0000000000000000000 ) ) ;
#860 = DIRECTION ( 'NONE',  ( 1.000000000000000000, 0.0000000000000000000, 0.0000000000000000000 ) ) ;
#861 = CARTESIAN_POINT ( 'NONE',  ( -4.091054486051400800E-016, 0.2500000000000011700, -0.1250000000000022500 ) ) ;
#862 = CARTESIAN_POINT ( 'NONE',  ( 0.4899999999999999900, 0.0000000000000000000, -0.2187500000000000000 ) ) ;
#863 = CARTESIAN_POINT ( 'NONE',  ( 0.0000000000000000000, 0.0000000000000000000, -0.2087500000000000200 ) ) ;
#864 = DIRECTION ( 'NONE',  ( 1.000000000000000000, 0.0000000000000000000, 0.0000000000000000000 ) ) ;
#865 = DIRECTION ( 'NONE',  ( -1.000000000000000000, 1.224646799147354900E-016, 0.0000000000000000000 ) ) ;
#866 = DIRECTION ( 'NONE',  ( 1.224646799147353200E-016, 1.000000000000000000, -0.0000000000000000000 ) ) ;
#867 = CARTESIAN_POINT ( 'NONE',  ( -0.1241814505853548300, 0.2169850038963087900, -0.01651712458225092900 ) ) ;
#868 = CARTESIAN_POINT ( 'NONE',  ( -0.1241556017739053200, 0.2169999851253456000, 0.01672133722833263000 ) ) ;
#869 = CARTESIAN_POINT ( 'NONE',  ( -0.07653678860476556500, 0.2380981774973648400, 0.09915792083235855400 ) ) ;
#870 = CARTESIAN_POINT ( 'NONE',  ( -0.1249909771892654500, 0.2165115602642628500, 0.008402568622418437100 ) ) ;
#871 = CARTESIAN_POINT ( 'NONE',  ( -0.1208444351017641700, 0.2188612105905847800, 0.03302785302558586300 ) ) ;
#872 = CARTESIAN_POINT ( 'NONE',  ( -0.1184246357661278600, 0.2202000297060033600, 0.04081986296097617200 ) ) ;
#873 = CARTESIAN_POINT ( 'NONE',  ( -0.1121636229043288500, 0.2234541768144877000, 0.05576717014040110500 ) ) ;
#874 = CARTESIAN_POINT ( 'NONE',  ( -0.1250088763263066900, 0.2165012262007472200, -0.008131935674614527300 ) ) ;
#875 = CARTESIAN_POINT ( 'NONE',  ( -0.09926508191640529000, 0.2295014595601546400, 0.07639771676044640500 ) ) ;
#876 = CARTESIAN_POINT ( 'NONE',  ( -0.1082672288522209400, 0.2253945065541145000, 0.06299503766758819700 ) ) ;
#877 = CARTESIAN_POINT ( 'NONE',  ( -0.09418375181808670600, 0.2316596724419180700, 0.08257690703121678400 ) ) ;
#878 = CARTESIAN_POINT ( 'NONE',  ( -0.08283963741207561700, 0.2359541849933236000, 0.09395274958620962500 ) ) ;
#879 = CARTESIAN_POINT ( 'NONE',  ( -0.06314613374457682400, 0.2419941898695281400, 0.1081791988639168700 ) ) ;
#880 = DIRECTION ( 'NONE',  ( -1.000000000000000000, 0.0000000000000000000, 0.0000000000000000000 ) ) ;
#881 = DIRECTION ( 'NONE',  ( 3.388131789017165000E-017, 1.000000000000000000, -0.0000000000000000000 ) ) ;
#882 = CARTESIAN_POINT ( 'NONE',  ( 1.530796134834183500E-017, 0.5000000000000000000, 0.1250000000000000600 ) ) ;
#883 = CARTESIAN_POINT ( 'NONE',  ( 0.008177448580631343700, 0.5000000000000001100, 0.1250000000000000800 ) ) ;
#884 = CARTESIAN_POINT ( 'NONE',  ( 0.01647636060655031900, 0.4997934531581556000, 0.1241810557203758000 ) ) ;
#885 = CARTESIAN_POINT ( 'NONE',  ( 0.03257728639534260300, 0.4990026920665925300, 0.1209591892738207100 ) ) ;
#886 = CARTESIAN_POINT ( 'NONE',  ( 0.04037232620646169500, 0.4984250566375263400, 0.1185825330067166700 ) ) ;
#887 = CARTESIAN_POINT ( 'NONE',  ( 0.05546325749936596000, 0.4969721208226890500, 0.1123190496984773800 ) ) ;
#888 = CARTESIAN_POINT ( 'NONE',  ( 0.06278703941617361200, 0.4960890497239974200, 0.1083923975347117600 ) ) ;
#889 = CARTESIAN_POINT ( 'NONE',  ( 0.07630101673356677600, 0.4941909675622683200, 0.09934424496363687700 ) ) ;
#890 = CARTESIAN_POINT ( 'NONE',  ( 0.08257771144136549800, 0.4931688802671481700, 0.09419647190728400200 ) ) ;
#891 = CARTESIAN_POINT ( 'NONE',  ( 0.09995219120458871700, 0.4900490292172672300, 0.07682951555290272500 ) ) ;
#892 = CARTESIAN_POINT ( 'NONE',  ( 0.1091546235090600200, 0.4879827509773117500, 0.06308900017563970300 ) ) ;
#893 = CARTESIAN_POINT ( 'NONE',  ( 0.1186014387961075600, 0.4857408496170468300, 0.04032601095614073800 ) ) ;
#894 = CARTESIAN_POINT ( 'NONE',  ( 0.1209737906851130200, 0.4851474822866211300, 0.03251747652182487800 ) ) ;
#895 = CARTESIAN_POINT ( 'NONE',  ( 0.1241819479434713600, 0.4843362276422630800, 0.01645867907937749100 ) ) ;
#896 = CARTESIAN_POINT ( 'NONE',  ( 0.1250034226774477700, 0.4841220345444929900, 0.008137184273495148800 ) ) ;
#897 = CARTESIAN_POINT ( 'NONE',  ( 0.1249965553489658100, 0.4841238076809164000, -0.008242002176073877700 ) ) ;
#898 = CARTESIAN_POINT ( 'NONE',  ( 0.1241960978562213600, 0.4843326235599740300, -0.01637523738346385500 ) ) ;
#899 = CARTESIAN_POINT ( 'NONE',  ( 0.1209742911901541700, 0.4851473815638289200, -0.03252752669842424300 ) ) ;
#900 = CARTESIAN_POINT ( 'NONE',  ( 0.1185568011457260000, 0.4857515595284954700, -0.04044118680094118500 ) ) ;
#901 = CARTESIAN_POINT ( 'NONE',  ( 0.1123137025353137900, 0.4872329267455985900, -0.05546924292420870500 ) ) ;
#902 = CARTESIAN_POINT ( 'NONE',  ( 0.1084535155895649000, 0.4881184785886191800, -0.06269223480295481300 ) ) ;
#903 = CARTESIAN_POINT ( 'NONE',  ( 0.09931622870156765800, 0.4900592830463495500, -0.07634636903496279400 ) ) ;
#904 = CARTESIAN_POINT ( 'NONE',  ( 0.09415432556623341800, 0.4910895683582205400, -0.08261887775341017500 ) ) ;
#905 = CARTESIAN_POINT ( 'NONE',  ( 0.08267599961836497000, 0.4931517821727908800, -0.09410417138028115400 ) ) ;
#906 = CARTESIAN_POINT ( 'NONE',  ( 0.07628086051965479700, 0.4941944280829997900, -0.09936200065001719900 ) ) ;
#907 = CARTESIAN_POINT ( 'NONE',  ( 0.06271675211807166400, 0.4960982880777384800, -0.1084351689192828100 ) ) ;
#908 = CARTESIAN_POINT ( 'NONE',  ( 0.05554896158147699900, 0.4969628058154707500, -0.1122781511780510400 ) ) ;
#909 = CARTESIAN_POINT ( 'NONE',  ( 0.04042469443055407600, 0.4984210685524458900, -0.1185660762821221900 ) ) ;
#910 = CARTESIAN_POINT ( 'NONE',  ( 0.03246652929598432800, 0.4990092778179004400, -0.1209861966771425500 ) ) ;
#911 = CARTESIAN_POINT ( 'NONE',  ( 0.01644392415218294200, 0.4997938897499116800, -0.1241826584890358000 ) ) ;
#912 = CARTESIAN_POINT ( 'NONE',  ( 0.008294483708339484400, 0.5000000000000001100, -0.1249999999999998500 ) ) ;
#913 = CARTESIAN_POINT ( 'NONE',  ( 9.493181607241609700E-018, 0.2801892664864552600, 0.0000000000000000000 ) ) ;
#914 = CARTESIAN_POINT ( 'NONE',  ( 0.2600000000000000100, 0.0000000000000000000, -0.2087500000000000200 ) ) ;
#915 = DIRECTION ( 'NONE',  ( 0.0000000000000000000, 1.000000000000000000, 0.0000000000000000000 ) ) ;
#916 = DIRECTION ( 'NONE',  ( 1.000000000000000000, 0.0000000000000000000, 0.0000000000000000000 ) ) ;
#917 = CC_DESIGN_APPROVAL ( #918, ( #159 ) ) ;
#918 = APPROVAL ( #206, 'UNSPECIFIED' ) ;
#919 = AXIS2_PLACEMENT_3D ( 'NONE', #75, #76, #81 ) ;
#920 = ORIENTED_EDGE ( 'NONE', *, *, #135, .T. ) ;
#921 = ORIENTED_EDGE ( 'NONE', *, *, #134, .F. ) ;
#922 = ORIENTED_EDGE ( 'NONE', *, *, #128, .T. ) ;
#923 = ORIENTED_EDGE ( 'NONE', *, *, #138, .F. ) ;
#924 = ORIENTED_EDGE ( 'NONE', *, *, #165, .F. ) ;
#925 = ORIENTED_EDGE ( 'NONE', *, *, #115, .F. ) ;
#926 = ORIENTED_EDGE ( 'NONE', *, *, #131, .T. ) ;
#927 = ORIENTED_EDGE ( 'NONE', *, *, #164, .F. ) ;
#928 = ORIENTED_EDGE ( 'NONE', *, *, #161, .T. ) ;
#929 = ORIENTED_EDGE ( 'NONE', *, *, #125, .F. ) ;
#930 = ORIENTED_EDGE ( 'NONE', *, *, #134, .T. ) ;
#931 = CARTESIAN_POINT ( 'NONE',  ( 1.530796134834183500E-017, 0.5000000000000000000, 0.1250000000000000600 ) ) ;
#932 = DIRECTION ( 'NONE',  ( 1.000000000000000000, 0.0000000000000000000, 0.0000000000000000000 ) ) ;
#933 = DIRECTION ( 'NONE',  ( -0.0000000000000000000, -0.0000000000000000000, -1.000000000000000000 ) ) ;
#934 = DIRECTION ( 'NONE',  ( 3.388131789017165000E-017, 1.000000000000000000, -0.0000000000000000000 ) ) ;
#935 = CARTESIAN_POINT ( 'NONE',  ( 0.0000000000000000000, 0.0000000000000000000, -0.2187500000000000000 ) ) ;
#936 = CARTESIAN_POINT ( 'NONE',  ( -0.2600000000000000100, 3.184081677783118700E-017, 0.2087499999999999900 ) ) ;
#937 = DIRECTION ( 'NONE',  ( -1.000000000000000000, 0.0000000000000000000, 0.0000000000000000000 ) ) ;
#938 = DIRECTION ( 'NONE',  ( 1.000000000000000000, 0.0000000000000000000, 0.0000000000000000000 ) ) ;
#939 = DIRECTION ( 'NONE',  ( -0.4999999999999995600, 0.0000000000000000000, 0.8660254037844388200 ) ) ;
#940 = CARTESIAN_POINT ( 'NONE',  ( 0.07216878364870324400, 0.3749999999999996700, 1.113792453342873100E-016 ) ) ;
#941 = CARTESIAN_POINT ( 'NONE',  ( -0.5000000000000000000, 0.0000000000000000000, 0.2087499999999999900 ) ) ;
#942 = PRODUCT ( '9414T11', '9414T11', '', ( #1 ) ) ;
#943 = PERSON ( 'UNSPECIFIED', 'UNSPECIFIED', 'UNSPECIFIED', ('UNSPECIFIED'), ('UNSPECIFIED'), ('UNSPECIFIED') ) ;
#944 = ORIENTED_EDGE ( 'NONE', *, *, #152, .T. ) ;
#945 = ORIENTED_EDGE ( 'NONE', *, *, #147, .F. ) ;
#946 = CLOSED_SHELL ( 'NONE', ( #586, #592, #616, #590, #610, #608, #593, #615, #587, #599, #617, #594, #612, #607, #602, #613 ) ) ;
#947 = ORIENTED_EDGE ( 'NONE', *, *, #167, .F. ) ;
#948 = ORIENTED_EDGE ( 'NONE', *, *, #136, .T. ) ;
#949 = CLOSED_SHELL ( 'NONE', ( #600, #595, #603, #618, #598, #609, #604, #601, #596, #591, #588, #605, #611, #606, #614, #597, #589 ) ) ;
#950 = ORIENTED_EDGE ( 'NONE', *, *, #145, .T. ) ;
#951 = ORIENTED_EDGE ( 'NONE', *, *, #140, .T. ) ;
#952 = ORIENTED_EDGE ( 'NONE', *, *, #120, .T. ) ;
#953 = ORIENTED_EDGE ( 'NONE', *, *, #167, .T. ) ;
#954 = ORIENTED_EDGE ( 'NONE', *, *, #123, .F. ) ;
#955 = ORIENTED_EDGE ( 'NONE', *, *, #147, .T. ) ;
#956 = ORIENTED_EDGE ( 'NONE', *, *, #163, .T. ) ;
#957 = ORIENTED_EDGE ( 'NONE', *, *, #153, .F. ) ;
#958 = ORIENTED_EDGE ( 'NONE', *, *, #718, .T. ) ;
#959 = ORIENTED_EDGE ( 'NONE', *, *, #142, .T. ) ;
#960 = LINE ( 'NONE', #290, #769 ) ;
#961 = ORIENTED_EDGE ( 'NONE', *, *, #141, .T. ) ;
#962 = ORIENTED_EDGE ( 'NONE', *, *, #127, .T. ) ;
#963 = ORIENTED_EDGE ( 'NONE', *, *, #143, .T. ) ;
#964 = ORIENTED_EDGE ( 'NONE', *, *, #136, .F. ) ;
#965 = ORIENTED_EDGE ( 'NONE', *, *, #127, .F. ) ;
#966 = ORIENTED_EDGE ( 'NONE', *, *, #114, .T. ) ;
#967 = ORIENTED_EDGE ( 'NONE', *, *, #158, .F. ) ;
#968 = ORIENTED_EDGE ( 'NONE', *, *, #120, .F. ) ;
#969 = ORIENTED_EDGE ( 'NONE', *, *, #144, .F. ) ;
#970 = ORIENTED_EDGE ( 'NONE', *, *, #115, .T. ) ;
#971 = ORIENTED_EDGE ( 'NONE', *, *, #132, .T. ) ;
#972 = CARTESIAN_POINT ( 'NONE',  ( 0.5000000000000000000, 6.123233995736766000E-017, -0.2087500000000000200 ) ) ;
#973 = CARTESIAN_POINT ( 'NONE',  ( 0.5000000000000000000, 6.123233995736766000E-017, 0.2087499999999999900 ) ) ;
#974 = CARTESIAN_POINT ( 'NONE',  ( -0.07216878364870320300, 0.3749999999999996700, 9.317570608764784200E-017 ) ) ;
#975 = CARTESIAN_POINT ( 'NONE',  ( 0.2500000000000000000, 3.061616997868383000E-017, 0.2087499999999999900 ) ) ;
#976 = CARTESIAN_POINT ( 'NONE',  ( -0.5000000000000000000, 0.0000000000000000000, -0.2087500000000000200 ) ) ;
#977 = CARTESIAN_POINT ( 'NONE',  ( 0.2600000000000000100, 0.0000000000000000000, -0.2187500000000000300 ) ) ;
#978 = CARTESIAN_POINT ( 'NONE',  ( 0.2600000000000000100, 0.0000000000000000000, 0.2187500000000000000 ) ) ;
#979 = CARTESIAN_POINT ( 'NONE',  ( 0.03608439182435168500, 0.3749999999999996700, 0.06250000000000009700 ) ) ;
#980 = CARTESIAN_POINT ( 'NONE',  ( -0.03608439182435165000, 0.3749999999999996700, -0.06249999999999989600 ) ) ;
#981 = CARTESIAN_POINT ( 'NONE',  ( 1.530808632251267600E-017, 0.2500000000000000000, 0.1250000000000000600 ) ) ;
#982 = CARTESIAN_POINT ( 'NONE',  ( 8.470329472542912500E-018, 0.2500000000000000000, 0.0000000000000000000 ) ) ;
#983 = DIRECTION ( 'NONE',  ( 1.000000000000000000, 0.0000000000000000000, -0.0000000000000000000 ) ) ;
#984 = DIRECTION ( 'NONE',  ( 0.4999999999999998900, 0.0000000000000000000, 0.8660254037844386000 ) ) ;
#985 = DIRECTION ( 'NONE',  ( 0.0000000000000000000, 0.0000000000000000000, 1.000000000000000000 ) ) ;
#986 = PLANE ( 'NONE',  #1033 ) ;
#987 = DIRECTION ( 'NONE',  ( -0.8660254037844387100, 0.0000000000000000000, 0.4999999999999999400 ) ) ;
#988 = VECTOR ( 'NONE', #441, 39.37007874015748100 ) ;
#989 = LINE ( 'NONE', #637, #328 ) ;
#990 = CIRCLE ( 'NONE', #737, 0.01000000000000003000 ) ;
#991 = LINE ( 'NONE', #1062, #996 ) ;
#992 = LINE ( 'NONE', #437, #995 ) ;
#993 = CYLINDRICAL_SURFACE ( 'NONE', #1040, 0.1249999999999999200 ) ;
#994 = CIRCLE ( 'NONE', #740, 0.009999999999999995000 ) ;
#995 = VECTOR ( 'NONE', #444, 39.37007874015748100 ) ;
#996 = VECTOR ( 'NONE', #633, 39.37007874015748100 ) ;
#997 = CIRCLE ( 'NONE', #754, 0.4899999999999999900 ) ;
#998 = CIRCLE ( 'NONE', #755, 0.1249999999999999000 ) ;
#999 = VECTOR ( 'NONE', #265, 39.37007874015748900 ) ;
#1000 = VECTOR ( 'NONE', #939, 39.37007874015748900 ) ;
#1001 = CIRCLE ( 'NONE', #726, 0.5000000000000000000 ) ;
#1002 = COORDINATED_UNIVERSAL_TIME_OFFSET ( 6, 0, .BEHIND. ) ;
#1003 = LINE ( 'NONE', #268, #999 ) ;
#1004 = CIRCLE ( 'NONE', #719, 0.2600000000000000100 ) ;
#1005 = CC_DESIGN_PERSON_AND_ORGANIZATION_ASSIGNMENT ( #543, #204, ( #159 ) ) ;
#1006 = CC_DESIGN_DATE_AND_TIME_ASSIGNMENT ( #548, #203, ( #159 ) ) ;
#1007 = AXIS2_PLACEMENT_3D ( 'NONE', #87, #86, #80 ) ;
#1008 = AXIS2_PLACEMENT_3D ( 'NONE', #253, #254, #213 ) ;
#1009 = AXIS2_PLACEMENT_3D ( 'NONE', #223, #215, #214 ) ;
#1010 = AXIS2_PLACEMENT_3D ( 'NONE', #521, #522, #518 ) ;
#1011 = AXIS2_PLACEMENT_3D ( 'NONE', #252, #255, #247 ) ;
#1012 = AXIS2_PLACEMENT_3D ( 'NONE', #251, #219, #218 ) ;
#1013 = SECURITY_CLASSIFICATION ( '', '', #197 ) ;
#1014 = AXIS2_PLACEMENT_3D ( 'NONE', #105, #106, #98 ) ;
#1015 = AXIS2_PLACEMENT_3D ( 'NONE', #11, #12, #60 ) ;
#1016 = CC_DESIGN_PERSON_AND_ORGANIZATION_ASSIGNMENT ( #563, #198, ( #1063 ) ) ;
#1017 = AXIS2_PLACEMENT_3D ( 'NONE', #216, #236, #211 ) ;
#1018 = AXIS2_PLACEMENT_3D ( 'NONE', #226, #233, #245 ) ;
#1019 = AXIS2_PLACEMENT_3D ( 'NONE', #78, #79, #83 ) ;
#1020 = AXIS2_PLACEMENT_3D ( 'NONE', #240, #246, #210 ) ;
#1021 = AXIS2_PLACEMENT_3D ( 'NONE', #232, #212, #259 ) ;
#1022 = AXIS2_PLACEMENT_3D ( 'NONE', #515, #987, #984 ) ;
#1023 = AXIS2_PLACEMENT_3D ( 'NONE', #230, #222, #248 ) ;
#1024 = AXIS2_PLACEMENT_3D ( 'NONE', #104, #74, #68 ) ;
#1025 = AXIS2_PLACEMENT_3D ( 'NONE', #59, #58, #57 ) ;
#1026 = AXIS2_PLACEMENT_3D ( 'NONE', #258, #257, #237 ) ;
#1027 = AXIS2_PLACEMENT_3D ( 'NONE', #101, #99, #94 ) ;
#1028 = AXIS2_PLACEMENT_3D ( 'NONE', #238, #256, #228 ) ;
#1029 = AXIS2_PLACEMENT_3D ( 'NONE', #61, #55, #54 ) ;
#1030 = AXIS2_PLACEMENT_3D ( 'NONE', #523, #985, #983 ) ;
#1031 = AXIS2_PLACEMENT_3D ( 'NONE', #35, #32, #31 ) ;
#1032 = AXIS2_PLACEMENT_3D ( 'NONE', #50, #56, #100 ) ;
#1033 = AXIS2_PLACEMENT_3D ( 'NONE', #244, #242, #241 ) ;
#1034 = AXIS2_PLACEMENT_3D ( 'NONE', #374, #89, #88 ) ;
#1035 = AXIS2_PLACEMENT_3D ( 'NONE', #92, #85, #84 ) ;
#1036 = AXIS2_PLACEMENT_3D ( 'NONE', #231, #221, #220 ) ;
#1037 = AXIS2_PLACEMENT_3D ( 'NONE', #64, #82, #77 ) ;
#1038 = AXIS2_PLACEMENT_3D ( 'NONE', #235, #227, #225 ) ;
#1039 = AXIS2_PLACEMENT_3D ( 'NONE', #49, #48, #47 ) ;
#1040 = AXIS2_PLACEMENT_3D ( 'NONE', #982, #376, #375 ) ;
#1041 = AXIS2_PLACEMENT_3D ( 'NONE', #249, #250, #239 ) ;
#1042 = AXIS2_PLACEMENT_3D ( 'NONE', #229, #13, #97 ) ;
#1043 = AXIS2_PLACEMENT_3D ( 'NONE', #29, #103, #102 ) ;
#1044 = AXIS2_PLACEMENT_3D ( 'NONE', #95, #91, #90 ) ;
#1045 = CARTESIAN_POINT ( 'NONE',  ( -0.1250025679328618800, 0.4841222552385476300, -0.008205826622507662900 ) ) ;
#1046 = CARTESIAN_POINT ( 'NONE',  ( -0.1210063575899649200, 0.4851393303002349300, -0.03239513452234428500 ) ) ;
#1047 = CARTESIAN_POINT ( 'NONE',  ( -0.1241973075191816400, 0.4843322590808265000, -0.01634050558878425200 ) ) ;
#1048 = CARTESIAN_POINT ( 'NONE',  ( -0.1123255197390108500, 0.4872302474870182100, -0.05544894781536829900 ) ) ;
#1049 = CARTESIAN_POINT ( 'NONE',  ( -0.1185818221415417100, 0.4857454970542614500, -0.04037275883640013800 ) ) ;
#1050 = CARTESIAN_POINT ( 'NONE',  ( -0.1084905357516154600, 0.4881101040073317400, -0.06262576802148939200 ) ) ;
#1051 = CARTESIAN_POINT ( 'NONE',  ( -0.01671697997816293600, 0.2495732499589070100, 0.1241525127791916200 ) ) ;
#1052 = CARTESIAN_POINT ( 'NONE',  ( -0.008285295832441695200, 0.2500000000000000000, 0.1250000000000001400 ) ) ;
#1053 = CARTESIAN_POINT ( 'NONE',  ( -0.03291716901330259800, 0.2479571021342018600, 0.1208708560122219700 ) ) ;
#1054 = CARTESIAN_POINT ( 'NONE',  ( -0.08258796090566863900, 0.4931668406204209900, 0.09418407993059020600 ) ) ;
#1055 = CARTESIAN_POINT ( 'NONE',  ( -0.07631816331990280700, 0.4941886753685899000, 0.09933355061840830300 ) ) ;
#1056 = CARTESIAN_POINT ( 'NONE',  ( -0.06275325914775993500, 0.4960936780300864700, 0.1084142278361901300 ) ) ;
#1057 = CARTESIAN_POINT ( 'NONE',  ( -0.05544228817820103700, 0.4969741889674662000, 0.1123279995763735700 ) ) ;
#1058 = DIRECTION ( 'NONE',  ( -1.000000000000000000, 1.224646799147354900E-016, 0.0000000000000000000 ) ) ;
#1059 = CARTESIAN_POINT ( 'NONE',  ( -0.03285911926525230500, 0.4991483201958449900, 0.1217003923994074300 ) ) ;
#1060 = DIRECTION ( 'NONE',  ( 1.224646799147353200E-016, 1.000000000000000000, -0.0000000000000000000 ) ) ;
#1061 = CARTESIAN_POINT ( 'NONE',  ( -0.01635048981021141800, 0.5000000000000001100, 0.1250000000000000800 ) ) ;
#1062 = CARTESIAN_POINT ( 'NONE',  ( -0.07216878364870320300, 0.3749999999999996700, 9.317570608764784200E-017 ) ) ;
#1063 = PRODUCT_DEFINITION_FORMATION_WITH_SPECIFIED_SOURCE ( 'ANY', '', #942, .NOT_KNOWN. ) ;
#1064 = APPROVAL ( #201, 'UNSPECIFIED' ) ;
#1065 = CARTESIAN_POINT ( 'NONE',  ( 0.0000000000000000000, 0.0000000000000000000, -0.2187500000000000000 ) ) ;
#1066 = DIRECTION ( 'NONE',  ( 1.000000000000000000, 0.0000000000000000000, 0.0000000000000000000 ) ) ;
#1067 = DIRECTION ( 'NONE',  ( 0.0000000000000000000, 0.0000000000000000000, 1.000000000000000000 ) ) ;
#1068 = CARTESIAN_POINT ( 'NONE',  ( 0.0000000000000000000, 0.0000000000000000000, -0.2087500000000000200 ) ) ;
#1069 = DIRECTION ( 'NONE',  ( 1.000000000000000000, 0.0000000000000000000, 0.0000000000000000000 ) ) ;
#1070 = DIRECTION ( 'NONE',  ( 0.0000000000000000000, 0.0000000000000000000, 1.000000000000000000 ) ) ;
#1071 = CARTESIAN_POINT ( 'NONE',  ( 0.5000000000000000000, 6.123233995736766000E-017, 0.2187500000000000000 ) ) ;
#1072 = CARTESIAN_POINT ( 'NONE',  ( 0.0000000000000000000, 0.0000000000000000000, 0.2087499999999999900 ) ) ;
#1073 = DIRECTION ( 'NONE',  ( 0.0000000000000000000, 0.0000000000000000000, -1.000000000000000000 ) ) ;
#1074 = DIRECTION ( 'NONE',  ( 0.0000000000000000000, -1.000000000000000000, 0.0000000000000000000 ) ) ;
#1075 = CARTESIAN_POINT ( 'NONE',  ( 0.0000000000000000000, 0.0000000000000000000, -0.2187500000000000000 ) ) ;
#1076 = DIRECTION ( 'NONE',  ( -0.0000000000000000000, -0.0000000000000000000, -1.000000000000000000 ) ) ;
#1077 = DIRECTION ( 'NONE',  ( 1.000000000000000000, 0.0000000000000000000, 0.0000000000000000000 ) ) ;
#1078 = DIRECTION ( 'NONE',  ( -0.0000000000000000000, -0.0000000000000000000, -1.000000000000000000 ) ) ;
#1079 = CARTESIAN_POINT ( 'NONE',  ( 0.0000000000000000000, 0.0000000000000000000, 0.2087499999999999900 ) ) ;
#1080 = CIRCLE ( 'NONE', #716, 0.03622711978374636800 ) ;
#1081 = CIRCLE ( 'NONE', #750, 0.2600000000000000100 ) ;
#1082 = LINE ( 'NONE', #442, #988 ) ;
#1083 = VECTOR ( 'NONE', #654, 39.37007874015748100 ) ;
#1084 = CIRCLE ( 'NONE', #717, 0.2500000000000000000 ) ;
#1085 = LINE ( 'NONE', #940, #1000 ) ;
#1086 = CIRCLE ( 'NONE', #739, 0.009999999999999995000 ) ;
#1087 = LINE ( 'NONE', #711, #1083 ) ;
#1088 = CIRCLE ( 'NONE', #748, 0.5000000000000000000 ) ;
#1089 = LINE ( 'NONE', #643, #1090 ) ;
#1090 = VECTOR ( 'NONE', #673, 39.37007874015748100 ) ;
#1091 = LINE ( 'NONE', #445, #1096 ) ;
#1092 = LINE ( 'NONE', #698, #1094 ) ;
#1093 = CIRCLE ( 'NONE', #738, 0.4899999999999999900 ) ;
#1094 = VECTOR ( 'NONE', #915, 39.37007874015748100 ) ;
#1095 = CIRCLE ( 'NONE', #744, 0.5000000000000000000 ) ;
#1096 = VECTOR ( 'NONE', #439, 39.37007874015748100 ) ;
#1097 = CIRCLE ( 'NONE', #757, 0.009999999999999995000 ) ;
#1098 = CIRCLE ( 'NONE', #723, 0.1249999999999999000 ) ;
ENDSEC;
END-ISO-10303-21;
