# Blender 4.0.2
# www.blender.org
o wrist3
v 0.030011 0.022381 -0.053147
v -0.017661 0.032889 -0.053145
v 0.037627 -0.004105 -0.053147
v 0.036906 -0.008682 -0.089977
v 0.034229 -0.016003 -0.053148
v 0.037174 0.005356 -0.089905
v 0.002392 -0.038037 -0.053148
v -0.008608 -0.037564 -0.089865
v 0.010305 -0.036920 -0.089806
v -0.022370 -0.030835 -0.053148
v -0.025841 -0.028164 -0.090069
v 0.023185 -0.030216 -0.053148
v 0.021617 -0.021532 -0.098748
v 0.022636 0.019123 -0.098959
v 0.030614 -0.007193 -0.098733
v 0.031060 -0.021829 -0.089905
v 0.036127 0.009998 -0.053148
v -0.036094 0.010579 -0.053147
v -0.037207 -0.007730 -0.053147
v -0.037479 0.004081 -0.089930
v -0.034031 0.015313 -0.089902
v -0.019093 0.031903 -0.089858
v -0.006129 0.036594 -0.089973
v -0.013465 0.027612 -0.098728
v -0.000265 0.043258 -0.070886
v 0.008974 0.036107 -0.089954
v -0.003541 0.043127 -0.068237
v -0.001570 0.043517 -0.065094
v -0.020127 0.023813 -0.097918
v -0.028578 0.023936 -0.089905
v -0.035829 -0.012601 -0.089866
v -0.013617 -0.033273 -0.092428
v 0.032564 0.018663 -0.089782
v 0.022275 0.029853 -0.089838
v 0.014624 0.027035 -0.098661
v 0.006726 0.029454 -0.098907
v -0.003585 0.036875 -0.053148
v 0.009478 0.035964 -0.053148
v 0.020660 0.030801 -0.053148
v 0.012503 -0.036067 -0.053148
v 0.028441 0.012825 -0.098687
v 0.035265 -0.002959 -0.092410
v 0.022644 -0.030634 -0.089905
v 0.028003 -0.014452 -0.098637
v 0.030110 -0.023000 -0.053148
v 0.003528 0.043211 -0.067623
v -0.005608 0.030119 -0.098654
v -0.029016 0.023411 -0.053148
v -0.028386 -0.021461 -0.092398
v -0.030864 -0.022108 -0.053148
v -0.004644 -0.031369 -0.098775
v -0.022771 -0.020046 -0.098882
v -0.021047 0.021047 -0.098864
v -0.007023 -0.036515 -0.053148
v -0.010935 -0.035524 -0.053148
v -0.014714 -0.034109 -0.053148
v 0.021239 0.022963 -0.097836
v 0.031469 0.003630 -0.097779
v 0.021940 -0.023366 -0.097877
v 0.002387 0.043209 -0.064767
v 0.004241 0.030858 -0.097878
v -0.022142 -0.023170 -0.097877
v -0.012831 -0.029145 -0.098591
v -0.030662 0.005446 -0.098660
v -0.010037 -0.036963 -0.053148
v 0.030142 0.018497 -0.092397
v 0.014984 -0.027976 -0.098623
v -0.020957 -0.022189 -0.098811
v -0.031201 -0.005159 -0.098452
v -0.033530 0.011250 -0.092416
v -0.027278 0.014898 -0.098498
v 0.005054 -0.031524 -0.098530
v -0.027403 -0.015615 -0.098489
vn 0.5902 0.4494 0.6707
vn -0.3987 0.5951 0.6978
vn 0.7391 -0.0636 0.6706
vn 0.9312 -0.2034 -0.3025
vn 0.6710 -0.2900 0.6824
vn 0.9415 0.1471 -0.3032
vn 0.0392 -0.7327 0.6794
vn -0.2149 -0.9320 -0.2919
vn 0.2442 -0.9238 -0.2950
vn -0.4322 -0.6008 0.6725
vn -0.6495 -0.6972 -0.3034
vn 0.4499 -0.5854 0.6745
vn 0.1994 -0.1866 -0.9620
vn 0.2466 0.2144 -0.9451
vn 0.4838 -0.0887 -0.8707
vn 0.7888 -0.5358 -0.3011
vn 0.7095 0.2053 0.6741
vn -0.7149 0.2108 0.6667
vn -0.7362 -0.1335 0.6635
vn -0.9490 0.0999 -0.2990
vn -0.8655 0.4011 -0.2999
vn -0.5048 0.8005 -0.3230
vn -0.1600 0.8880 -0.4310
vn -0.2138 0.4540 -0.8650
vn -0.0091 0.9783 -0.2068
vn 0.2403 0.8786 -0.4127
vn -0.3533 0.9346 -0.0413
vn -0.1434 0.9642 0.2232
vn -0.4552 0.5250 -0.7191
vn -0.7170 0.6281 -0.3024
vn -0.9024 -0.3134 -0.2957
vn -0.3966 -0.7559 -0.5210
vn 0.8178 0.4928 -0.2974
vn 0.5816 0.7500 -0.3151
vn 0.2514 0.4724 -0.8448
vn 0.1084 0.4355 -0.8936
vn -0.0716 0.5491 0.8327
vn 0.1923 0.5721 0.7973
vn 0.4300 0.5746 0.6964
vn 0.2523 -0.6921 0.6762
vn 0.4711 0.2179 -0.8547
vn 0.8121 -0.0130 -0.5834
vn 0.5712 -0.7648 -0.2981
vn 0.4510 -0.2416 -0.8592
vn 0.5813 -0.4431 0.6824
vn 0.3290 0.9441 -0.0217
vn -0.0844 0.5083 -0.8570
vn -0.5712 0.4736 0.6703
vn -0.7103 -0.4537 -0.5382
vn -0.6127 -0.4140 0.6732
vn -0.0536 -0.4796 -0.8758
vn -0.2131 -0.1826 -0.9598
vn -0.2411 0.2277 -0.9434
vn -0.0000 -0.0002 1.0000
vn -0.0001 -0.0002 1.0000
vn 0.4794 0.4998 -0.7213
vn 0.6508 0.0716 -0.7559
vn 0.4782 -0.4804 -0.7352
vn 0.2026 0.9427 0.2650
vn 0.0592 0.7319 -0.6788
vn -0.4739 -0.4887 -0.7326
vn -0.2366 -0.4755 -0.8473
vn -0.4801 0.0967 -0.8718
vn -0.2044 -0.7144 0.6692
vn 0.6218 0.4933 -0.6083
vn 0.2366 -0.4393 -0.8666
vn -0.2072 -0.2367 -0.9492
vn -0.5246 -0.0783 -0.8477
vn -0.7722 0.2577 -0.5808
vn -0.4674 0.2685 -0.8423
vn 0.0802 -0.5300 -0.8442
vn -0.4768 -0.2598 -0.8397
s 1
f 1//1 2//2 3//3
f 4//4 3//3 5//5
f 4//4 6//6 3//3
f 7//7 8//8 9//9
f 8//8 10//10 11//11
f 2//2 12//12 3//3
f 13//13 14//14 15//15
f 5//5 16//16 4//4
f 3//3 17//17 1//1
f 6//6 17//17 3//3
f 2//2 18//18 19//19
f 19//19 18//18 20//20
f 21//21 20//20 18//18
f 22//22 23//23 24//24
f 23//23 25//25 26//26
f 27//27 2//2 28//28
f 2//2 27//27 22//22
f 25//25 27//27 28//28
f 23//23 22//22 27//27
f 23//23 27//27 25//25
f 22//22 24//24 29//29
f 22//22 29//29 30//30
f 31//31 19//19 20//20
f 8//8 11//11 32//32
f 1//1 33//33 34//34
f 17//17 33//33 1//1
f 17//17 6//6 33//33
f 35//35 36//36 26//26
f 34//34 35//35 26//26
f 36//36 35//35 14//14
f 2//2 37//37 28//28
f 38//38 37//37 2//2
f 1//1 39//39 2//2
f 39//39 38//38 2//2
f 34//34 39//39 1//1
f 9//9 40//40 7//7
f 2//2 7//7 40//40
f 2//2 40//40 12//12
f 15//15 14//14 41//41
f 41//41 33//33 6//6
f 4//4 42//42 6//6
f 15//15 42//42 4//4
f 9//9 43//43 40//40
f 40//40 43//43 12//12
f 15//15 44//44 13//13
f 4//4 44//44 15//15
f 16//16 44//44 4//4
f 16//16 5//5 45//45
f 5//5 3//3 45//45
f 12//12 45//45 3//3
f 43//43 45//45 12//12
f 43//43 16//16 45//45
f 34//34 26//26 46//46
f 25//25 46//46 26//26
f 39//39 34//34 46//46
f 28//28 46//46 25//25
f 24//24 47//47 36//36
f 23//23 47//47 24//24
f 18//18 48//48 21//21
f 30//30 21//21 48//48
f 48//48 18//18 2//2
f 22//22 48//48 2//2
f 30//30 48//48 22//22
f 31//31 49//49 11//11
f 10//10 50//50 11//11
f 31//31 11//11 50//50
f 31//31 50//50 19//19
f 50//50 2//2 19//19
f 2//2 50//50 10//10
f 13//13 51//51 14//14
f 51//51 52//52 14//14
f 36//36 53//53 24//24
f 29//29 24//24 53//53
f 14//14 53//53 36//36
f 52//52 53//53 14//14
f 2//2 54//54 7//7
f 55//55 54//54 2//2
f 10//10 56//55 2//2
f 56//55 55//55 2//2
f 33//33 57//56 34//34
f 35//35 57//56 14//14
f 35//35 34//34 57//56
f 41//41 14//14 57//56
f 6//6 58//57 41//41
f 41//41 58//57 15//15
f 42//42 58//57 6//6
f 58//57 42//42 15//15
f 43//43 59//58 16//16
f 44//44 59//58 13//13
f 44//44 16//16 59//58
f 28//28 60//59 46//46
f 37//37 60//59 28//28
f 37//37 38//38 60//59
f 39//39 60//59 38//38
f 46//46 60//59 39//39
f 23//23 26//26 61//60
f 61//60 47//47 23//23
f 36//36 61//60 26//26
f 47//47 61//60 36//36
f 62//61 63//62 11//11
f 32//32 11//11 63//62
f 32//32 63//62 8//8
f 8//8 63//62 51//51
f 64//63 53//53 52//52
f 56//55 65//64 55//55
f 65//64 54//54 55//55
f 8//8 65//64 10//10
f 65//64 56//55 10//10
f 7//7 65//64 8//8
f 54//54 65//64 7//7
f 41//41 66//65 33//33
f 33//33 66//65 57//56
f 57//56 66//65 41//41
f 51//51 13//13 67//66
f 59//58 67//66 13//13
f 43//43 67//66 59//58
f 9//9 67//66 43//43
f 51//51 68//67 52//52
f 63//62 68//67 51//51
f 52//52 68//67 62//61
f 62//61 68//67 63//62
f 20//20 69//68 31//31
f 64//63 69//68 20//20
f 52//52 69//68 64//63
f 21//21 70//69 20//20
f 20//20 70//69 64//63
f 64//63 71//70 53//53
f 30//30 71//70 21//21
f 71//70 70//69 21//21
f 70//69 71//70 64//63
f 29//29 71//70 30//30
f 53//53 71//70 29//29
f 67//66 72//71 51//51
f 72//71 67//66 9//9
f 8//8 72//71 9//9
f 51//51 72//71 8//8
f 69//68 73//72 31//31
f 49//49 31//31 73//72
f 73//72 52//52 62//61
f 52//52 73//72 69//68
f 62//61 11//11 73//72
f 49//49 73//72 11//11
