ISO-10303-21;
HEADER;
FILE_DESCRIPTION (( 'STEP AP203' ),
    '1' );
FILE_NAME ('57485K69.step',
    '2013-04-26T15:09:42',
    ( '' ),
    ( '' ),
    'SwSTEP 2.0',
    'SolidWorks 2010',
    '' );
FILE_SCHEMA (( 'CONFIG_CONTROL_DESIGN' ));
ENDSEC;

DATA;
#1 =( LENGTH_UNIT ( ) NAMED_UNIT ( * ) SI_UNIT ( .MILLI., .METRE. ) );
#2 = DIRECTION ( 'NONE',  ( 1.000000000000000000, 0.0000000000000000000, 0.0000000000000000000 ) ) ;
#3 = DIRECTION ( 'NONE',  ( 4.431172994339996500E-017, -1.000000000000000000, -0.0000000000000000000 ) ) ;
#4 = DIRECTION ( 'NONE',  ( 0.0000000000000000000, 0.0000000000000000000, 1.000000000000000000 ) ) ;
#5 =( NAMED_UNIT ( * ) PLANE_ANGLE_UNIT ( ) SI_UNIT ( $, .RADIAN. ) );
#6 = DIRECTION ( 'NONE',  ( 1.000000000000000000, 0.0000000000000000000, 0.0000000000000000000 ) ) ;
#7 = DIRECTION ( 'NONE',  ( -0.0000000000000000000, -0.0000000000000000000, -1.000000000000000000 ) ) ;
#8 = DIRECTION ( 'NONE',  ( -0.4999999999999991100, 0.0000000000000000000, 0.8660254037844390400 ) ) ;
#9 = CARTESIAN_POINT ( 'NONE',  ( 0.0000000000000000000, 0.0000000000000000000, 12.00000000000000000 ) ) ;
#10 = CARTESIAN_POINT ( 'NONE',  ( -0.8660254037844107300, 8.599999999999999600, 4.500000000000001800 ) ) ;
#11 = DIRECTION ( 'NONE',  ( 0.0000000000000000000, 0.0000000000000000000, 1.000000000000000000 ) ) ;
#12 = DIRECTION ( 'NONE',  ( 4.431172994339996500E-017, -1.000000000000000000, -0.0000000000000000000 ) ) ;
#13 = CARTESIAN_POINT ( 'NONE',  ( -3.000000000000000400, 6.299038105676666000, 6.000000000000001800 ) ) ;
#14 = DIRECTION ( 'NONE',  ( -0.0000000000000000000, -0.0000000000000000000, -1.000000000000000000 ) ) ;
#15 = DIRECTION ( 'NONE',  ( -1.608122649676636600E-016, 1.000000000000000000, -0.0000000000000000000 ) ) ;
#16 = CARTESIAN_POINT ( 'NONE',  ( 0.8660254037844683500, 8.599999999999999600, 4.500000000000002700 ) ) ;
#17 = CARTESIAN_POINT ( 'NONE',  ( 0.0000000000000000000, 0.0000000000000000000, 11.78000000000000100 ) ) ;
#18 = CARTESIAN_POINT ( 'NONE',  ( 3.000000000000000400, 6.299038105676666000, 6.000000000000001800 ) ) ;
#19 = DIRECTION ( 'NONE',  ( 1.000000000000000000, 0.0000000000000000000, 0.0000000000000000000 ) ) ;
#20 = DIRECTION ( 'NONE',  ( 4.431172994339996500E-017, -1.000000000000000000, -0.0000000000000000000 ) ) ;
#21 = CARTESIAN_POINT ( 'NONE',  ( 2.288728993717489400E-016, 5.834936490538921400, 6.000000000000001800 ) ) ;
#22 = CARTESIAN_POINT ( 'NONE',  ( 0.0000000000000000000, 11.00000000000000000, 6.000000000000001800 ) ) ;
#23 = DIRECTION ( 'NONE',  ( 1.000000000000000000, 0.0000000000000000000, 0.0000000000000000000 ) ) ;
#24 = DIRECTION ( 'NONE',  ( 4.431172994339996500E-017, -1.000000000000000000, -0.0000000000000000000 ) ) ;
#25 = DIRECTION ( 'NONE',  ( -1.000000000000000000, 0.0000000000000000000, 0.0000000000000000000 ) ) ;
#26 = CARTESIAN_POINT ( 'NONE',  ( 0.0000000000000000000, 0.0000000000000000000, 11.78000000000000100 ) ) ;
#27 = DIRECTION ( 'NONE',  ( -1.608122649676636600E-016, 1.000000000000000000, -0.0000000000000000000 ) ) ;
#28 = DIRECTION ( 'NONE',  ( 4.431172994339996500E-017, -1.000000000000000000, -0.0000000000000000000 ) ) ;
#29 = CARTESIAN_POINT ( 'NONE',  ( -1.732050807568847700, 8.599999999999999600, 6.000000000000001800 ) ) ;
#30 = DIRECTION ( 'NONE',  ( -4.431172994339996500E-017, 1.000000000000000000, 0.0000000000000000000 ) ) ;
#31 = DIRECTION ( 'NONE',  ( 1.000000000000000000, 0.0000000000000000000, 0.0000000000000000000 ) ) ;
#32 = DIRECTION ( 'NONE',  ( 1.000000000000000000, 0.0000000000000000000, 0.0000000000000000000 ) ) ;
#33 = DIRECTION ( 'NONE',  ( 0.0000000000000000000, 0.0000000000000000000, 1.000000000000000000 ) ) ;
#34 = CARTESIAN_POINT ( 'NONE',  ( 0.0000000000000000000, 0.0000000000000000000, 11.78000000000000100 ) ) ;
#35 = DIRECTION ( 'NONE',  ( -1.000000000000000000, 1.224646799147357200E-016, 0.0000000000000000000 ) ) ;
#36 = DIRECTION ( 'NONE',  ( 1.224646799147353200E-016, 1.000000000000000000, -0.0000000000000000000 ) ) ;
#37 = DIRECTION ( 'NONE',  ( 1.000000000000000000, 0.0000000000000000000, 0.0000000000000000000 ) ) ;
#38 = CARTESIAN_POINT ( 'NONE',  ( -10.77999999999999900, 1.320169249480846700E-015, 0.2199999999999997000 ) ) ;
#39 = DIRECTION ( 'NONE',  ( 0.7071067811865462400, -0.7071067811865489100, 0.0000000000000000000 ) ) ;
#40 = CARTESIAN_POINT ( 'NONE',  ( 0.0000000000000000000, 0.0000000000000000000, 11.78000000000000100 ) ) ;
#41 = CARTESIAN_POINT ( 'NONE',  ( 2.165063509461079100, 11.00000000000000000, 6.000000000000001800 ) ) ;
#42 = CARTESIAN_POINT ( 'NONE',  ( 1.732050807568906900, 8.599999999999999600, 6.000000000000000000 ) ) ;
#43 = DIRECTION ( 'NONE',  ( 0.0000000000000000000, 0.0000000000000000000, 1.000000000000000000 ) ) ;
#44 = DIRECTION ( 'NONE',  ( 1.000000000000000000, 0.0000000000000000000, 0.0000000000000000000 ) ) ;
#45 = DIRECTION ( 'NONE',  ( 0.0000000000000000000, 0.0000000000000000000, 1.000000000000000000 ) ) ;
#46 = CARTESIAN_POINT ( 'NONE',  ( 0.0000000000000000000, 11.00000000000000000, 6.000000000000001800 ) ) ;
#47 = CARTESIAN_POINT ( 'NONE',  ( 3.699748028865096700E-017, 10.16506350946107400, 6.000000000000001800 ) ) ;
#48 = DIRECTION ( 'NONE',  ( 1.000000000000000000, 0.0000000000000000000, 0.0000000000000000000 ) ) ;
#49 = CARTESIAN_POINT ( 'NONE',  ( 2.083077539354694700E-016, 6.299038105676666000, 6.000000000000001800 ) ) ;
#50 = DIRECTION ( 'NONE',  ( 4.431172994339996500E-017, -1.000000000000000000, -0.0000000000000000000 ) ) ;
#51 = DIRECTION ( 'NONE',  ( 0.0000000000000000000, 0.0000000000000000000, 1.000000000000000000 ) ) ;
#52 = CARTESIAN_POINT ( 'NONE',  ( 2.288728993717489400E-016, 5.834936490538921400, 6.000000000000001800 ) ) ;
#53 = DIRECTION ( 'NONE',  ( -0.5000000000000004400, 0.0000000000000000000, -0.8660254037844383700 ) ) ;
#54 = CARTESIAN_POINT ( 'NONE',  ( 1.732050807568906500, 11.00000000000000000, 6.000000000000000000 ) ) ;
#55 = PERSON_AND_ORGANIZATION_ROLE ( 'creator' ) ;
#56 = DIRECTION ( 'NONE',  ( 1.000000000000000000, 0.0000000000000000000, 0.0000000000000000000 ) ) ;
#57 = DIRECTION ( 'NONE',  ( 0.0000000000000000000, 0.0000000000000000000, 1.000000000000000000 ) ) ;
#58 = CARTESIAN_POINT ( 'NONE',  ( 0.0000000000000000000, 0.0000000000000000000, 0.2199999999999997000 ) ) ;
#59 = CARTESIAN_POINT ( 'NONE',  ( 0.0000000000000000000, 0.0000000000000000000, 11.78000000000000100 ) ) ;
#60 = DIRECTION ( 'NONE',  ( -1.000000000000000000, 0.0000000000000000000, -5.007715329123858800E-016 ) ) ;
#61 = CARTESIAN_POINT ( 'NONE',  ( 0.8660254037844680200, 11.00000000000000000, 4.500000000000002700 ) ) ;
#62 = CARTESIAN_POINT ( 'NONE',  ( 0.0000000000000000000, 0.0000000000000000000, 12.00000000000000000 ) ) ;
#63 = DIRECTION ( 'NONE',  ( -0.0000000000000000000, -0.0000000000000000000, -1.000000000000000000 ) ) ;
#64 = CARTESIAN_POINT ( 'NONE',  ( -6.000000000000000900, 0.0000000000000000000, 12.00000000000000000 ) ) ;
#65 = DIRECTION ( 'NONE',  ( 1.000000000000000000, 0.0000000000000000000, 0.0000000000000000000 ) ) ;
#66 = DIRECTION ( 'NONE',  ( 4.431172994339996500E-017, -1.000000000000000000, -0.0000000000000000000 ) ) ;
#67 = CARTESIAN_POINT ( 'NONE',  ( 2.658703796603997700E-016, 4.999999999999999100, 6.000000000000001800 ) ) ;
#68 = DIRECTION ( 'NONE',  ( 1.000000000000000000, 0.0000000000000000000, 0.0000000000000000000 ) ) ;
#69 = DIRECTION ( 'NONE',  ( 0.0000000000000000000, 0.0000000000000000000, 1.000000000000000000 ) ) ;
#70 = CARTESIAN_POINT ( 'NONE',  ( 0.0000000000000000000, 0.0000000000000000000, 12.00000000000000000 ) ) ;
#71 = DIRECTION ( 'NONE',  ( -1.000000000000000000, 1.224646799147352700E-016, 0.0000000000000000000 ) ) ;
#72 = DIRECTION ( 'NONE',  ( 1.224646799147353200E-016, 1.000000000000000000, -0.0000000000000000000 ) ) ;
#73 = DIRECTION ( 'NONE',  ( 1.000000000000000000, 0.0000000000000000000, 0.0000000000000000000 ) ) ;
#74 = CARTESIAN_POINT ( 'NONE',  ( -6.220000000000000600, 7.617303090696537300E-016, 11.78000000000000100 ) ) ;
#75 = DATE_TIME_ROLE ( 'creation_date' ) ;
#76 = DIRECTION ( 'NONE',  ( -1.000000000000000000, 1.224646799147357200E-016, 0.0000000000000000000 ) ) ;
#77 = CARTESIAN_POINT ( 'NONE',  ( -0.7499999999999994400, 4.999999999999999100, 6.000000000000001800 ) ) ;
#78 = DIRECTION ( 'NONE',  ( 1.224646799147353200E-016, 1.000000000000000000, -0.0000000000000000000 ) ) ;
#79 = CARTESIAN_POINT ( 'NONE',  ( -10.77999999999999900, 1.320169249480846700E-015, 11.78000000000000100 ) ) ;
#80 = DIRECTION ( 'NONE',  ( -0.4999999999999971700, -0.8660254037844401500, 6.123233995736731500E-017 ) ) ;
#81 = CARTESIAN_POINT ( 'NONE',  ( -0.7499999999999994400, 4.999999999999999100, 6.000000000000001800 ) ) ;
#82 = CARTESIAN_POINT ( 'NONE',  ( 2.658703796603997700E-016, 4.999999999999999100, 6.000000000000001800 ) ) ;
#83 = CARTESIAN_POINT ( 'NONE',  ( -0.8660254037844094000, 8.599999999999999600, 7.500000000000001800 ) ) ;
#84 = DIRECTION ( 'NONE',  ( 1.000000000000000000, 0.0000000000000000000, 0.0000000000000000000 ) ) ;
#85 = CARTESIAN_POINT ( 'NONE',  ( -0.8660254037844098400, 11.00000000000000000, 7.500000000000001800 ) ) ;
#86 = CARTESIAN_POINT ( 'NONE',  ( 9.988657020204380300E-015, 6.000000000000029300, 9.000000000000060400 ) ) ;
#87 = CARTESIAN_POINT ( 'NONE',  ( 0.2015414487360768800, 6.000000000000000900, 9.000000000000001800 ) ) ;
#88 = CARTESIAN_POINT ( 'NONE',  ( 0.4041238266825432100, 5.989573160419037200, 8.979291670850468400 ) ) ;
#89 = CARTESIAN_POINT ( 'NONE',  ( 0.7935908558389621600, 5.950505546996274700, 8.899949737636896800 ) ) ;
#90 = CARTESIAN_POINT ( 'NONE',  ( 0.9810445067722672900, 5.922115854886676800, 8.841820141796313600 ) ) ;
#91 = CARTESIAN_POINT ( 'NONE',  ( 1.342339662633913200, 5.850814366657694200, 8.690077001259840700 ) ) ;
#92 = CARTESIAN_POINT ( 'NONE',  ( 1.517084758885983500, 5.807443700371349500, 8.595368804058452400 ) ) ;
#93 = CARTESIAN_POINT ( 'NONE',  ( 1.838105660413908800, 5.713958004726790400, 8.378834373359842000 ) ) ;
#94 = CARTESIAN_POINT ( 'NONE',  ( 1.986502230091878900, 5.663496208454670700, 8.256387251162848900 ) ) ;
#95 = CARTESIAN_POINT ( 'NONE',  ( 2.396778631171893700, 5.508264140953975200, 7.845359136493145000 ) ) ;
#96 = CARTESIAN_POINT ( 'NONE',  ( 2.616659103595075000, 5.402061972042764300, 7.519111084390867300 ) ) ;
#97 = CARTESIAN_POINT ( 'NONE',  ( 2.843984478740530600, 5.283847735148823300, 6.974886210010939900 ) ) ;
#98 = CARTESIAN_POINT ( 'NONE',  ( 2.901809014628314600, 5.251812506534441200, 6.786867799071871800 ) ) ;
#99 = CARTESIAN_POINT ( 'NONE',  ( 2.980354814048517200, 5.207640093511411500, 6.396410989974029300 ) ) ;
#100 = APPLICATION_PROTOCOL_DEFINITION ( 'international standard', 'config_control_design', 1994, #326 ) ;
#101 = CARTESIAN_POINT ( 'NONE',  ( 3.000213031831361100, 5.196029428817935200, 6.195166456190758500 ) ) ;
#102 = DIRECTION ( 'NONE',  ( 4.431172994339996500E-017, -1.000000000000000000, -0.0000000000000000000 ) ) ;
#103 = CARTESIAN_POINT ( 'NONE',  ( 2.999783452542371400, 5.196277446342309100, 5.798338353061967400 ) ) ;
#104 = CARTESIAN_POINT ( 'NONE',  ( 2.979734442573730200, 5.207999643008296400, 5.598687906520027900 ) ) ;
#105 = CARTESIAN_POINT ( 'NONE',  ( 2.900266442442342600, 5.252669054174035100, 5.207331527385950000 ) ) ;
#106 = CARTESIAN_POINT ( 'NONE',  ( 2.842191258387071000, 5.284800712944080400, 5.020323288936583400 ) ) ;
#107 = CARTESIAN_POINT ( 'NONE',  ( 2.691926949703896900, 5.362900243547704400, 4.661587916630385700 ) ) ;
#108 = CARTESIAN_POINT ( 'NONE',  ( 2.598413492453307300, 5.409468157298749500, 4.488119095977894300 ) ) ;
#109 = CARTESIAN_POINT ( 'NONE',  ( 2.382361965993732100, 5.508035029443711900, 4.166454797749296700 ) ) ;
#110 = CARTESIAN_POINT ( 'NONE',  ( 2.260410043634084600, 5.559832138606037000, 4.018154231250804300 ) ) ;
#111 = CARTESIAN_POINT ( 'NONE',  ( 1.988151297889819300, 5.662900439839765100, 3.745134009930974900 ) ) ;
#112 = CARTESIAN_POINT ( 'NONE',  ( 1.836882926514376700, 5.714356259936753400, 3.620209900023401200 ) ) ;
#113 = CARTESIAN_POINT ( 'NONE',  ( 1.515507209869846800, 5.807860556868674500, 3.403699227266000700 ) ) ;
#114 = CARTESIAN_POINT ( 'NONE',  ( 1.343948314517097600, 5.850512046113121500, 3.310562132887312300 ) ) ;
#115 = CARTESIAN_POINT ( 'NONE',  ( 0.9784953329523449200, 5.922603748116073600, 3.157145801040182900 ) ) ;
#116 = CARTESIAN_POINT ( 'NONE',  ( 0.7900120563192650800, 5.950970451220845400, 3.099099455706676700 ) ) ;
#117 = CARTESIAN_POINT ( 'NONE',  ( 0.4012075194759124900, 5.989757999013769500, 3.020339693299406200 ) ) ;
#118 = CARTESIAN_POINT ( 'NONE',  ( 0.1988470999786023400, 6.000000000000001800, 3.000000000000000900 ) ) ;
#119 = DIRECTION ( 'NONE',  ( 0.0000000000000000000, 0.0000000000000000000, 1.000000000000000000 ) ) ;
#120 = DIRECTION ( 'NONE',  ( -1.608122649676636600E-016, 1.000000000000000000, -0.0000000000000000000 ) ) ;
#121 = DIRECTION ( 'NONE',  ( 1.000000000000000000, 0.0000000000000000000, 0.0000000000000000000 ) ) ;
#122 = DIRECTION ( 'NONE',  ( -0.0000000000000000000, -0.0000000000000000000, -1.000000000000000000 ) ) ;
#123 = CARTESIAN_POINT ( 'NONE',  ( 3.673940077479945100E-016, 6.000000000000000900, 3.000000000000001800 ) ) ;
#124 = DIRECTION ( 'NONE',  ( 1.000000000000000000, 0.0000000000000000000, 0.0000000000000000000 ) ) ;
#125 = DIRECTION ( 'NONE',  ( 4.431172994339996500E-017, -1.000000000000000000, -0.0000000000000000000 ) ) ;
#126 = SECURITY_CLASSIFICATION_LEVEL ( 'unclassified' ) ;
#127 = DIRECTION ( 'NONE',  ( 1.000000000000000000, 0.0000000000000000000, 0.0000000000000000000 ) ) ;
#128 = DIRECTION ( 'NONE',  ( 4.431172994339996500E-017, -1.000000000000000000, -0.0000000000000000000 ) ) ;
#129 = CARTESIAN_POINT ( 'NONE',  ( 0.0000000000000000000, 0.0000000000000000000, 0.2199999999999997000 ) ) ;
#130 = CARTESIAN_POINT ( 'NONE',  ( 2.658703796603997700E-016, 4.999999999999999100, 6.000000000000001800 ) ) ;
#131 = DIRECTION ( 'NONE',  ( -1.608122649676636600E-016, 1.000000000000000000, -0.0000000000000000000 ) ) ;
#132 = CARTESIAN_POINT ( 'NONE',  ( -0.8660254037844094000, 8.599999999999999600, 7.500000000000001800 ) ) ;
#133 = CARTESIAN_POINT ( 'NONE',  ( 0.0000000000000000000, 11.00000000000000000, 6.000000000000001800 ) ) ;
#134 = DIRECTION ( 'NONE',  ( -1.608122649676636600E-016, 1.000000000000000000, -0.0000000000000000000 ) ) ;
#135 = CARTESIAN_POINT ( 'NONE',  ( -0.8660254037844107300, 8.599999999999999600, 4.500000000000001800 ) ) ;
#136 = DIRECTION ( 'NONE',  ( 1.000000000000000000, 0.0000000000000000000, 0.0000000000000000000 ) ) ;
#137 = DIRECTION ( 'NONE',  ( -0.0000000000000000000, -0.0000000000000000000, -1.000000000000000000 ) ) ;
#138 = CARTESIAN_POINT ( 'NONE',  ( 9.988657020204380300E-015, 6.000000000000029300, 9.000000000000060400 ) ) ;
#139 = CARTESIAN_POINT ( 'NONE',  ( 0.0000000000000000000, 0.0000000000000000000, 12.00000000000000000 ) ) ;
#140 = DIRECTION ( 'NONE',  ( 0.4999999999999998900, 0.0000000000000000000, 0.8660254037844386000 ) ) ;
#141 = CARTESIAN_POINT ( 'NONE',  ( -1.732050807568848100, 11.00000000000000000, 6.000000000000001800 ) ) ;
#142 = DIRECTION ( 'NONE',  ( 0.4999999999999998900, 0.0000000000000000000, 0.8660254037844386000 ) ) ;
#143 = CARTESIAN_POINT ( 'NONE',  ( -1.732050807568847700, 8.599999999999999600, 6.000000000000001800 ) ) ;
#144 = DIRECTION ( 'NONE',  ( -1.000000000000000000, 0.0000000000000000000, -5.007715329123858800E-016 ) ) ;
#145 = CARTESIAN_POINT ( 'NONE',  ( 0.8660254037844683500, 8.599999999999999600, 4.500000000000002700 ) ) ;
#146 = DIRECTION ( 'NONE',  ( 1.000000000000000000, 0.0000000000000000000, 0.0000000000000000000 ) ) ;
#147 = APPROVAL_STATUS ( 'not_yet_approved' ) ;
#148 = DIRECTION ( 'NONE',  ( 4.431172994339996500E-017, -1.000000000000000000, -0.0000000000000000000 ) ) ;
#149 = DIRECTION ( 'NONE',  ( 1.000000000000000000, 0.0000000000000000000, 0.0000000000000000000 ) ) ;
#150 = DIRECTION ( 'NONE',  ( 0.0000000000000000000, 0.0000000000000000000, 1.000000000000000000 ) ) ;
#151 = PERSON_AND_ORGANIZATION_ROLE ( 'creator' ) ;
#152 = CARTESIAN_POINT ( 'NONE',  ( 0.0000000000000000000, 0.0000000000000000000, 11.78000000000000100 ) ) ;
#153 = DIRECTION ( 'NONE',  ( 0.0000000000000000000, 0.0000000000000000000, -1.000000000000000000 ) ) ;
#154 = DIRECTION ( 'NONE',  ( 0.0000000000000000000, -1.000000000000000000, 0.0000000000000000000 ) ) ;
#155 = CARTESIAN_POINT ( 'NONE',  ( 6.220000000000000600, 0.0000000000000000000, 11.78000000000000100 ) ) ;
#156 = DIRECTION ( 'NONE',  ( 1.000000000000000000, 0.0000000000000000000, 0.0000000000000000000 ) ) ;
#157 = DIRECTION ( 'NONE',  ( -0.0000000000000000000, -0.0000000000000000000, -1.000000000000000000 ) ) ;
#158 = DIRECTION ( 'NONE',  ( 1.000000000000000000, 0.0000000000000000000, 0.0000000000000000000 ) ) ;
#159 = DIRECTION ( 'NONE',  ( 1.000000000000000000, 0.0000000000000000000, 0.0000000000000000000 ) ) ;
#160 = DIRECTION ( 'NONE',  ( -0.0000000000000000000, -0.0000000000000000000, -1.000000000000000000 ) ) ;
#161 = CARTESIAN_POINT ( 'NONE',  ( 0.0000000000000000000, 0.0000000000000000000, 0.0000000000000000000 ) ) ;
#162 = CARTESIAN_POINT ( 'NONE',  ( 3.673940077479945100E-016, 6.000000000000000900, 3.000000000000001800 ) ) ;
#163 = CARTESIAN_POINT ( 'NONE',  ( -0.1991939893304780800, 6.000000000000000900, 2.999999999999999100 ) ) ;
#164 = CARTESIAN_POINT ( 'NONE',  ( -0.3968300402631636500, 5.990104295402606900, 3.019642133404794900 ) ) ;
#165 = CARTESIAN_POINT ( 'NONE',  ( -0.7889751445846292500, 5.951163060434800500, 3.098702822002053400 ) ) ;
#166 = DATE_TIME_ROLE ( 'classification_date' ) ;
#167 = CARTESIAN_POINT ( 'NONE',  ( -0.9794882862597732400, 5.922355602328466700, 3.157688538554079800 ) ) ;
#168 = CARTESIAN_POINT ( 'NONE',  ( -1.339681060671464900, 5.851405629336397000, 3.308645990869069700 ) ) ;
#169 = CARTESIAN_POINT ( 'NONE',  ( -1.511742792606609800, 5.808895334097951700, 3.401350733958197600 ) ) ;
#170 = CARTESIAN_POINT ( 'NONE',  ( -1.836716484097528100, 5.714464439520766900, 3.619912431034932900 ) ) ;
#171 = MECHANICAL_CONTEXT ( 'NONE', #326, 'mechanical' ) ;
#172 = CARTESIAN_POINT ( 'NONE',  ( 2.165063509461079500, 4.999999999999999100, 6.000000000000001800 ) ) ;
#173 = CARTESIAN_POINT ( 'NONE',  ( -1.985419572142235900, 5.663857092932832200, 3.742754114416498600 ) ) ;
#174 = CARTESIAN_POINT ( 'NONE',  ( -2.257607440233974300, 5.560969042569038100, 4.014991558902251800 ) ) ;
#175 = CARTESIAN_POINT ( 'NONE',  ( -2.382076354121892800, 5.508162780409014300, 4.166051729087678600 ) ) ;
#176 = DIRECTION ( 'NONE',  ( -0.0000000000000000000, -0.0000000000000000000, -1.000000000000000000 ) ) ;
#177 = CARTESIAN_POINT ( 'NONE',  ( 0.0000000000000000000, 0.0000000000000000000, 12.00000000000000000 ) ) ;
#178 = CARTESIAN_POINT ( 'NONE',  ( -2.598486188338222600, 5.409437540203722200, 4.488205190422843500 ) ) ;
#179 = CARTESIAN_POINT ( 'NONE',  ( 0.0000000000000000000, -8.485281374238567800, 6.000000000000001800 ) ) ;
#180 = CARTESIAN_POINT ( 'NONE',  ( -2.690831077935153200, 5.363467372721837400, 4.659030952115678300 ) ) ;
#181 = CARTESIAN_POINT ( 'NONE',  ( -2.843017706494258300, 5.284373611772113400, 5.022237146376709500 ) ) ;
#182 = CARTESIAN_POINT ( 'NONE',  ( -2.901619967087527600, 5.251915804043057400, 5.212711677628194100 ) ) ;
#183 = CARTESIAN_POINT ( 'NONE',  ( -2.979933623598682900, 5.207879956863855900, 5.600980031965745500 ) ) ;
#184 = DIRECTION ( 'NONE',  ( 1.000000000000000000, 0.0000000000000000000, 0.0000000000000000000 ) ) ;
#185 = CARTESIAN_POINT ( 'NONE',  ( -3.000191454189905300, 5.196041886647559100, 5.803241507577062000 ) ) ;
#186 = CARTESIAN_POINT ( 'NONE',  ( -6.000000000000000900, 0.0000000000000000000, 0.2199999999999997000 ) ) ;
#187 = CARTESIAN_POINT ( 'NONE',  ( -2.999805746757639600, 5.196264574798890500, 6.202554061560181100 ) ) ;
#188 = CARTESIAN_POINT ( 'NONE',  ( -2.979884104745677200, 5.207909051766648600, 6.399479412373499300 ) ) ;
#189 = CARTESIAN_POINT ( 'NONE',  ( -2.901415795499310500, 5.252029355479274700, 6.788085947250254800 ) ) ;
#190 = CARTESIAN_POINT ( 'NONE',  ( -2.842098490669216800, 5.284853863868320900, 6.980017652339816100 ) ) ;
#191 = CARTESIAN_POINT ( 'NONE',  ( 2.119172083661178100E-016, 11.00000000000000000, 9.000000000000003600 ) ) ;
#192 = CARTESIAN_POINT ( 'NONE',  ( -2.691469372439905200, 5.363133115104089300, 7.339384577625045500 ) ) ;
#193 = CARTESIAN_POINT ( 'NONE',  ( -2.599769665869543700, 5.408821992895640000, 7.509622939372453800 ) ) ;
#194 = CARTESIAN_POINT ( 'NONE',  ( -2.383285302931999800, 5.507640949738402900, 7.832406859702094200 ) ) ;
#195 = CARTESIAN_POINT ( 'NONE',  ( -2.259593257057431100, 5.560156733106682100, 7.982736308920315200 ) ) ;
#196 = CARTESIAN_POINT ( 'NONE',  ( -1.987854191243570800, 5.662997465866141900, 8.255092164947091900 ) ) ;
#197 = PERSON_AND_ORGANIZATION_ROLE ( 'design_owner' ) ;
#198 = CARTESIAN_POINT ( 'NONE',  ( -1.837743953145858600, 5.714115161176832400, 8.379239251597455900 ) ) ;
#199 = CARTESIAN_POINT ( 'NONE',  ( -1.514027526177192500, 5.808281635948181300, 8.597268354183668700 ) ) ;
#200 = CARTESIAN_POINT ( 'NONE',  ( -1.342797146904366000, 5.850725487135213700, 8.689888244236637900 ) ) ;
#201 = CARTESIAN_POINT ( 'NONE',  ( -0.9804991321233768000, 5.922222079207547700, 8.842045811756431600 ) ) ;
#202 = CARTESIAN_POINT ( 'NONE',  ( -0.8660254037844107300, 8.599999999999999600, 4.500000000000001800 ) ) ;
#203 = CARTESIAN_POINT ( 'NONE',  ( -0.7881272303066165800, 5.951212398117644600, 8.901395182369894200 ) ) ;
#204 = CARTESIAN_POINT ( 'NONE',  ( -1.732050807568847700, 8.599999999999999600, 6.000000000000001800 ) ) ;
#205 = CARTESIAN_POINT ( 'NONE',  ( -0.3997952661590012400, 5.989844512490853900, 8.979832592711687800 ) ) ;
#206 = CARTESIAN_POINT ( 'NONE',  ( -0.2018930383873024100, 6.000000000000001800, 9.000000000000001800 ) ) ;
#207 = VERTEX_POINT ( 'NONE', #172 ) ;
#208 = CARTESIAN_POINT ( 'NONE',  ( 10.77999999999999900, 0.0000000000000000000, 12.00000000000000000 ) ) ;
#209 = CARTESIAN_POINT ( 'NONE',  ( 0.0000000000000000000, 0.0000000000000000000, 12.00000000000000000 ) ) ;
#210 = CARTESIAN_POINT ( 'NONE',  ( -6.220000000000000600, 7.617303090696537300E-016, -1.490777987167568600E-016 ) ) ;
#211 = CARTESIAN_POINT ( 'NONE',  ( 3.674019192829223400E-016, 11.00000000000000000, 3.000000000000001800 ) ) ;
#212 = CARTESIAN_POINT ( 'NONE',  ( -11.00000000000000000, 0.0000000000000000000, 11.78000000000000100 ) ) ;
#213 = CARTESIAN_POINT ( 'NONE',  ( -0.1963725489920960200, 11.00000000000000400, 3.000000000000002700 ) ) ;
#214 = CARTESIAN_POINT ( 'NONE',  ( -0.3955237034925842000, 10.99459354864418800, 3.019651073517160400 ) ) ;
#215 = APPROVAL_ROLE ( '' ) ;
#216 = CARTESIAN_POINT ( 'NONE',  ( -0.7824020886413779500, 10.97384951927091200, 3.097110802097071700 ) ) ;
#217 = CARTESIAN_POINT ( 'NONE',  ( -0.9695151639690485800, 10.95870220080993600, 3.154224367314660600 ) ) ;
#218 = CARTESIAN_POINT ( 'NONE',  ( -1.331461836554896900, 10.92063747942401300, 3.304520825057364300 ) ) ;
#219 = CARTESIAN_POINT ( 'NONE',  ( -1.507231895493512000, 10.89748405303449800, 3.398783106394504600 ) ) ;
#220 = CARTESIAN_POINT ( 'NONE',  ( -1.831497091821713900, 10.84769676362603600, 3.615949724309449800 ) ) ;
#221 = CARTESIAN_POINT ( 'NONE',  ( -1.981971229931951400, 10.82089605616496000, 3.739406036368289100 ) ) ;
#222 = CARTESIAN_POINT ( 'NONE',  ( -2.398290432564572900, 10.73909719946171200, 4.155499227483733900 ) ) ;
#223 = CARTESIAN_POINT ( 'NONE',  ( -2.619276040911843400, 10.68474818984811800, 4.485046659425790900 ) ) ;
#224 = CARTESIAN_POINT ( 'NONE',  ( -2.846265727599358400, 10.62567099634807200, 5.031653957231076100 ) ) ;
#225 = CARTESIAN_POINT ( 'NONE',  ( -2.903257506132903100, 10.61002805661017800, 5.219139428234025300 ) ) ;
#226 = CARTESIAN_POINT ( 'NONE',  ( -2.980331729488558500, 10.58863646987543000, 5.604689790595452700 ) ) ;
#227 = CARTESIAN_POINT ( 'NONE',  ( -3.000085368069457900, 10.58298104468780000, 5.804580367744233800 ) ) ;
#228 = CARTESIAN_POINT ( 'NONE',  ( -2.999914063237676800, 10.58302960503818500, 6.198031971065909800 ) ) ;
#229 = CARTESIAN_POINT ( 'NONE',  ( -2.980665822533435300, 10.58854304372810000, 6.393333351274612200 ) ) ;
#230 = CARTESIAN_POINT ( 'NONE',  ( -2.903278770321037400, 10.61002285182764000, 6.781058418203795000 ) ) ;
#231 = CARTESIAN_POINT ( 'NONE',  ( 0.0000000000000000000, 0.0000000000000000000, 0.0000000000000000000 ) ) ;
#232 = CARTESIAN_POINT ( 'NONE',  ( -2.845172698262903300, 10.62595825522828000, 6.971141902237661700 ) ) ;
#233 = CARTESIAN_POINT ( 'NONE',  ( -2.695289980535641000, 10.66496171796311600, 7.331741791056572300 ) ) ;
#234 = CARTESIAN_POINT ( 'NONE',  ( -2.602764223830765600, 10.68823143043803400, 7.504817884572204000 ) ) ;
#235 = CARTESIAN_POINT ( 'NONE',  ( -2.383476918107401600, 10.73926023971419100, 7.832456343663055900 ) ) ;
#236 = CARTESIAN_POINT ( 'NONE',  ( -2.259650055020586900, 10.76632031431331300, 7.982898331608376800 ) ) ;
#237 = CARTESIAN_POINT ( 'NONE',  ( -1.984409009498523800, 10.82043401923283100, 8.258323503767986300 ) ) ;
#238 = CARTESIAN_POINT ( 'NONE',  ( -1.831114929120419800, 10.84777013145476100, 8.384396868547771200 ) ) ;
#239 = CARTESIAN_POINT ( 'NONE',  ( -1.505690214517691600, 10.89770598274863300, 8.602158198168158500 ) ) ;
#240 = CARTESIAN_POINT ( 'NONE',  ( -1.333718301735647800, 10.92037036354357600, 8.694405645434459400 ) ) ;
#241 = CARTESIAN_POINT ( 'NONE',  ( -0.9707964538633759900, 10.95859697363270000, 8.845378803551472700 ) ) ;
#242 = CARTESIAN_POINT ( 'NONE',  ( -0.7797135939511002900, 10.97402215790191500, 8.903537772796177300 ) ) ;
#243 = CARTESIAN_POINT ( 'NONE',  ( -0.3949549839021290800, 10.99459531640001800, 8.980351564385850700 ) ) ;
#244 = CARTESIAN_POINT ( 'NONE',  ( -0.1992340340756506300, 11.00000000000000400, 9.000000000000001800 ) ) ;
#245 = CARTESIAN_POINT ( 'NONE',  ( 2.658703796603997700E-016, 4.999999999999999100, 6.000000000000001800 ) ) ;
#246 = DIRECTION ( 'NONE',  ( 0.4999999999999990600, 0.0000000000000000000, -0.8660254037844391500 ) ) ;
#247 = CARTESIAN_POINT ( 'NONE',  ( 0.8660254037844692400, 11.00000000000000000, 7.500000000000001800 ) ) ;
#248 = CARTESIAN_POINT ( 'NONE',  ( 2.119172083661178100E-016, 11.00000000000000000, 9.000000000000003600 ) ) ;
#249 = DIRECTION ( 'NONE',  ( 1.000000000000000000, 0.0000000000000000000, 0.0000000000000000000 ) ) ;
#250 = VERTEX_POINT ( 'NONE', #204 ) ;
#251 = DIRECTION ( 'NONE',  ( 0.0000000000000000000, 0.0000000000000000000, 1.000000000000000000 ) ) ;
#252 = VERTEX_POINT ( 'NONE', #477 ) ;
#253 = CARTESIAN_POINT ( 'NONE',  ( 0.0000000000000000000, 0.0000000000000000000, 0.0000000000000000000 ) ) ;
#254 = CARTESIAN_POINT ( 'NONE',  ( 0.8660254037844692400, 11.00000000000000000, 7.500000000000001800 ) ) ;
#255 = DIRECTION ( 'NONE',  ( 1.000000000000000000, 0.0000000000000000000, 0.0000000000000000000 ) ) ;
#256 = VERTEX_POINT ( 'NONE', #254 ) ;
#257 = DIRECTION ( 'NONE',  ( -0.0000000000000000000, -0.0000000000000000000, -1.000000000000000000 ) ) ;
#258 = VERTEX_POINT ( 'NONE', #138 ) ;
#259 = CARTESIAN_POINT ( 'NONE',  ( 9.988657020204380300E-015, 6.000000000000029300, 9.000000000000060400 ) ) ;
#260 = VERTEX_POINT ( 'NONE', #210 ) ;
#261 = DIRECTION ( 'NONE',  ( 4.431172994339996500E-017, -1.000000000000000000, -0.0000000000000000000 ) ) ;
#262 = DIRECTION ( 'NONE',  ( 1.000000000000000000, 0.0000000000000000000, 0.0000000000000000000 ) ) ;
#263 = DIRECTION ( 'NONE',  ( -0.0000000000000000000, -0.0000000000000000000, -1.000000000000000000 ) ) ;
#264 = DIRECTION ( 'NONE',  ( 1.000000000000000000, 0.0000000000000000000, 0.0000000000000000000 ) ) ;
#265 = CARTESIAN_POINT ( 'NONE',  ( 0.0000000000000000000, 0.0000000000000000000, 11.78000000000000100 ) ) ;
#266 = DIRECTION ( 'NONE',  ( -0.0000000000000000000, -0.0000000000000000000, -1.000000000000000000 ) ) ;
#267 = DIRECTION ( 'NONE',  ( 1.000000000000000000, 0.0000000000000000000, 0.0000000000000000000 ) ) ;
#268 = CARTESIAN_POINT ( 'NONE',  ( 0.0000000000000000000, 0.0000000000000000000, 0.2199999999999997000 ) ) ;
#269 = DIRECTION ( 'NONE',  ( 1.000000000000000000, 0.0000000000000000000, 0.0000000000000000000 ) ) ;
#270 = DIRECTION ( 'NONE',  ( -0.4999999999999991100, 0.0000000000000000000, 0.8660254037844390400 ) ) ;
#271 = CARTESIAN_POINT ( 'NONE',  ( 6.000000000000000900, 7.347880794884120700E-016, 12.00000000000000000 ) ) ;
#272 = DIRECTION ( 'NONE',  ( -0.7071067811865468000, 0.7071067811865483500, 0.0000000000000000000 ) ) ;
#273 = PERSON_AND_ORGANIZATION_ROLE ( 'design_supplier' ) ;
#274 = CARTESIAN_POINT ( 'NONE',  ( -2.999999999999999600, 5.834936490538921400, 6.000000000000001800 ) ) ;
#275 = DIRECTION ( 'NONE',  ( -0.5000000000000004400, 0.0000000000000000000, -0.8660254037844383700 ) ) ;
#276 = CARTESIAN_POINT ( 'NONE',  ( -0.8660254037844111700, 11.00000000000000000, 4.500000000000001800 ) ) ;
#277 = DIRECTION ( 'NONE',  ( -1.000000000000000000, 1.224646799147352700E-016, 0.0000000000000000000 ) ) ;
#278 = DIRECTION ( 'NONE',  ( 4.431172994339996500E-017, -1.000000000000000000, -0.0000000000000000000 ) ) ;
#279 = DIRECTION ( 'NONE',  ( 1.224646799147353200E-016, 1.000000000000000000, -0.0000000000000000000 ) ) ;
#280 = CARTESIAN_POINT ( 'NONE',  ( -6.220000000000000600, 7.617303090696537300E-016, 0.2199999999999997000 ) ) ;
#281 = DIRECTION ( 'NONE',  ( 0.4999999999999972800, -0.8660254037844401500, 0.0000000000000000000 ) ) ;
#282 = CARTESIAN_POINT ( 'NONE',  ( 1.732050807568906900, 8.599999999999999600, 6.000000000000000000 ) ) ;
#283 = CARTESIAN_POINT ( 'NONE',  ( 0.7499999999999998900, 4.999999999999999100, 6.000000000000001800 ) ) ;
#284 = CARTESIAN_POINT ( 'NONE',  ( 2.119172083661178100E-016, 11.00000000000000000, 9.000000000000003600 ) ) ;
#285 = CARTESIAN_POINT ( 'NONE',  ( 0.1991799235527360600, 10.99999999999999800, 9.000000000000000000 ) ) ;
#286 = CARTESIAN_POINT ( 'NONE',  ( 0.3953269636685577400, 10.99459552012956800, 8.980355101235973700 ) ) ;
#287 = CARTESIAN_POINT ( 'NONE',  ( 0.7816272582317928000, 10.97389962085701300, 8.903077464838951000 ) ) ;
#288 = CARTESIAN_POINT ( 'NONE',  ( 0.9730204192004281400, 10.95838650832683000, 8.844562666319953700 ) ) ;
#289 = CARTESIAN_POINT ( 'NONE',  ( 2.658703796603997700E-016, 4.999999999999999100, 6.000000000000001800 ) ) ;
#290 = CARTESIAN_POINT ( 'NONE',  ( 1.334354413703024500, 10.92027938748326400, 8.694031142625034300 ) ) ;
#291 = CARTESIAN_POINT ( 'NONE',  ( 1.506205802281453100, 10.89764034814393800, 8.601896372088612400 ) ) ;
#292 = CARTESIAN_POINT ( 'NONE',  ( 1.832360384154331400, 10.84756546414461200, 8.383479824226753900 ) ) ;
#293 = DIRECTION ( 'NONE',  ( -0.4999999999999991100, 0.0000000000000000000, 0.8660254037844390400 ) ) ;
#294 = CARTESIAN_POINT ( 'NONE',  ( 1.984898666662978900, 10.82034261734052500, 8.257881263240197000 ) ) ;
#295 = CARTESIAN_POINT ( 'NONE',  ( 2.259897045359458000, 10.76626687473107900, 7.982603303787019700 ) ) ;
#296 = DIRECTION ( 'NONE',  ( -0.8660254037844391500, -1.392675067021111700E-016, -0.4999999999999991700 ) ) ;
#297 = CARTESIAN_POINT ( 'NONE',  ( 2.384493791972800600, 10.73903265060062800, 7.831115209607975000 ) ) ;
#298 = APPLICATION_PROTOCOL_DEFINITION ( 'international standard', 'config_control_design', 1994, #466 ) ;
#299 = CARTESIAN_POINT ( 'NONE',  ( 2.603432464772337700, 10.68806681846593800, 7.503639902431399600 ) ) ;
#300 = CARTESIAN_POINT ( 'NONE',  ( 2.695516914829081000, 10.66490542010371600, 7.331358022167174600 ) ) ;
#301 = CARTESIAN_POINT ( 'NONE',  ( 2.845679628036372800, 10.62582356866827200, 6.969759287605615600 ) ) ;
#302 = CARTESIAN_POINT ( 'NONE',  ( 2.903948351654240100, 10.60983838683972100, 6.778312882184570400 ) ) ;
#303 = CARTESIAN_POINT ( 'NONE',  ( 2.980710431859690000, 10.58852926261886100, 6.392494959270366400 ) ) ;
#304 = CARTESIAN_POINT ( 'NONE',  ( 3.000041869232696400, 10.58299337544679700, 6.197165755867427400 ) ) ;
#305 = CARTESIAN_POINT ( 'NONE',  ( 2.999957995918095800, 10.58301715129608300, 5.801562162975231200 ) ) ;
#306 = CARTESIAN_POINT ( 'NONE',  ( 2.980051610422223900, 10.58871504221945500, 5.602929533580983400 ) ) ;
#307 = CARTESIAN_POINT ( 'NONE',  ( 0.8660254037844696800, 8.599999999999999600, 7.500000000000001800 ) ) ;
#308 = CARTESIAN_POINT ( 'NONE',  ( 2.903113516816454400, 10.61006718897586900, 5.218780143263174400 ) ) ;
#309 = CARTESIAN_POINT ( 'NONE',  ( 2.845946002992510800, 10.62575919694524300, 5.030590777735093300 ) ) ;
#310 = DIRECTION ( 'NONE',  ( -1.000000000000000000, 0.0000000000000000000, -5.007715329123858800E-016 ) ) ;
#311 = CARTESIAN_POINT ( 'NONE',  ( 2.693944631382234600, 10.66530962918856500, 4.665149740529620300 ) ) ;
#312 = CARTESIAN_POINT ( 'NONE',  ( 2.601435537009716200, 10.68854064724531700, 4.493196376644602800 ) ) ;
#313 = APPROVAL_ROLE ( '' ) ;
#314 = DIRECTION ( 'NONE',  ( 5.007715329123858800E-016, 8.053020443896970900E-032, -1.000000000000000000 ) ) ;
#315 = CARTESIAN_POINT ( 'NONE',  ( 2.384800458125771300, 10.73895222058257200, 4.169521705264688000 ) ) ;
#316 = CARTESIAN_POINT ( 'NONE',  ( 2.259079490743699700, 10.76645007447895200, 4.016358423004958500 ) ) ;
#317 = CARTESIAN_POINT ( 'NONE',  ( 1.982325663629914000, 10.82082586104502700, 3.739765716834555900 ) ) ;
#318 = CARTESIAN_POINT ( 'NONE',  ( 1.831937310330616900, 10.84762883283215900, 3.616246646908110000 ) ) ;
#319 = CARTESIAN_POINT ( 'NONE',  ( 1.506836132300037000, 10.89754515816603400, 3.398515956659879500 ) ) ;
#320 = CARTESIAN_POINT ( 'NONE',  ( 1.331294413225436300, 10.92065380230319200, 3.304457184615742900 ) ) ;
#321 = CARTESIAN_POINT ( 'NONE',  ( 0.7891073238824364300, 10.97767765828334400, 3.079299199093664000 ) ) ;
#322 = PLANE ( 'NONE',  #620 ) ;
#323 = CARTESIAN_POINT ( 'NONE',  ( -0.8660254037844107300, 8.599999999999999600, 4.500000000000001800 ) ) ;
#324 = PLANE ( 'NONE',  #689 ) ;
#325 = DIRECTION ( 'NONE',  ( -0.7071067811865462400, -0.7071067811865489100, 8.659560562354918100E-017 ) ) ;
#326 = APPLICATION_CONTEXT ( 'configuration controlled 3d designs of mechanical parts and assemblies' ) ;
#327 = CARTESIAN_POINT ( 'NONE',  ( 3.674019192829223400E-016, 11.00000000000000000, 3.000000000000001800 ) ) ;
#328 = CARTESIAN_POINT ( 'NONE',  ( -11.00000000000000000, 0.0000000000000000000, 12.00000000000000000 ) ) ;
#329 = DIRECTION ( 'NONE',  ( 1.000000000000000000, 0.0000000000000000000, 0.0000000000000000000 ) ) ;
#330 = DIRECTION ( 'NONE',  ( 0.0000000000000000000, 0.0000000000000000000, 1.000000000000000000 ) ) ;
#331 = CARTESIAN_POINT ( 'NONE',  ( 0.0000000000000000000, 0.0000000000000000000, 0.0000000000000000000 ) ) ;
#332 = CARTESIAN_POINT ( 'NONE',  ( 0.0000000000000000000, 11.00000000000000000, 6.000000000000001800 ) ) ;
#333 = DIRECTION ( 'NONE',  ( 0.0000000000000000000, 0.0000000000000000000, -1.000000000000000000 ) ) ;
#334 = DIRECTION ( 'NONE',  ( 0.0000000000000000000, -1.000000000000000000, 0.0000000000000000000 ) ) ;
#335 = CARTESIAN_POINT ( 'NONE',  ( 10.77999999999999900, 0.0000000000000000000, 11.78000000000000100 ) ) ;
#336 = DIRECTION ( 'NONE',  ( 1.000000000000000000, 0.0000000000000000000, 0.0000000000000000000 ) ) ;
#337 = DIRECTION ( 'NONE',  ( -0.0000000000000000000, -0.0000000000000000000, -1.000000000000000000 ) ) ;
#338 = DIRECTION ( 'NONE',  ( 4.431172994339996500E-017, -1.000000000000000000, -0.0000000000000000000 ) ) ;
#339 = CARTESIAN_POINT ( 'NONE',  ( 0.0000000000000000000, 0.0000000000000000000, 0.0000000000000000000 ) ) ;
#340 = DIRECTION ( 'NONE',  ( -0.0000000000000000000, 1.000000000000000000, -0.0000000000000000000 ) ) ;
#341 = CARTESIAN_POINT ( 'NONE',  ( -2.165063509461079100, 11.00000000000000000, 6.000000000000001800 ) ) ;
#342 = DIRECTION ( 'NONE',  ( -0.0000000000000000000, -0.0000000000000000000, -1.000000000000000000 ) ) ;
#343 = CARTESIAN_POINT ( 'NONE',  ( 0.8660254037844683500, 8.599999999999999600, 4.500000000000002700 ) ) ;
#344 = CARTESIAN_POINT ( 'NONE',  ( 3.673940397442059900E-016, -8.485281374238567800, 3.000000000000001800 ) ) ;
#345 = DIRECTION ( 'NONE',  ( 0.0000000000000000000, 0.0000000000000000000, -1.000000000000000000 ) ) ;
#346 = DIRECTION ( 'NONE',  ( 0.0000000000000000000, -1.000000000000000000, 0.0000000000000000000 ) ) ;
#347 = CARTESIAN_POINT ( 'NONE',  ( 2.083077539354694700E-016, 6.299038105676666000, 6.000000000000001800 ) ) ;
#348 = DIRECTION ( 'NONE',  ( 1.000000000000000000, 0.0000000000000000000, 0.0000000000000000000 ) ) ;
#349 = CARTESIAN_POINT ( 'NONE',  ( 6.220000000000000600, 0.0000000000000000000, 0.2199999999999997000 ) ) ;
#350 = DIRECTION ( 'NONE',  ( 0.0000000000000000000, 0.0000000000000000000, -1.000000000000000000 ) ) ;
#351 = DIRECTION ( 'NONE',  ( 0.0000000000000000000, -1.000000000000000000, 0.0000000000000000000 ) ) ;
#352 = DIRECTION ( 'NONE',  ( 1.000000000000000000, 0.0000000000000000000, 0.0000000000000000000 ) ) ;
#353 = CARTESIAN_POINT ( 'NONE',  ( 10.77999999999999900, 0.0000000000000000000, 0.2199999999999997000 ) ) ;
#354 = DIRECTION ( 'NONE',  ( 0.7071067811865468000, 0.7071067811865483500, 8.659560562354925500E-017 ) ) ;
#355 = CARTESIAN_POINT ( 'NONE',  ( 3.000000000000000400, 5.834936490538921400, 6.000000000000001800 ) ) ;
#356 = DIRECTION ( 'NONE',  ( 1.000000000000000000, 0.0000000000000000000, 0.0000000000000000000 ) ) ;
#357 = DIRECTION ( 'NONE',  ( 0.0000000000000000000, 0.0000000000000000000, 1.000000000000000000 ) ) ;
#358 = DIRECTION ( 'NONE',  ( 1.000000000000000000, 0.0000000000000000000, 0.0000000000000000000 ) ) ;
#359 = CARTESIAN_POINT ( 'NONE',  ( 0.0000000000000000000, 0.0000000000000000000, 0.2199999999999997000 ) ) ;
#360 = DIRECTION ( 'NONE',  ( 1.000000000000000000, 0.0000000000000000000, 0.0000000000000000000 ) ) ;
#361 = DIRECTION ( 'NONE',  ( 4.431172994339996500E-017, -1.000000000000000000, -0.0000000000000000000 ) ) ;
#362 = CARTESIAN_POINT ( 'NONE',  ( 0.0000000000000000000, 0.0000000000000000000, 11.78000000000000100 ) ) ;
#363 = CARTESIAN_POINT ( 'NONE',  ( 3.699748028865096700E-017, 10.16506350946107400, 6.000000000000001800 ) ) ;
#364 = DIRECTION ( 'NONE',  ( -0.0000000000000000000, 1.000000000000000000, -0.0000000000000000000 ) ) ;
#365 = CARTESIAN_POINT ( 'NONE',  ( 11.00000000000000000, 1.347111479062088400E-015, 12.00000000000000000 ) ) ;
#366 = DIRECTION ( 'NONE',  ( 0.4999999999999990600, 0.0000000000000000000, -0.8660254037844391500 ) ) ;
#367 = DIRECTION ( 'NONE',  ( 4.431172994339996500E-017, -1.000000000000000000, -0.0000000000000000000 ) ) ;
#368 = CARTESIAN_POINT ( 'NONE',  ( 0.0000000000000000000, -8.485281374238567800, 9.000000000000001800 ) ) ;
#369 = CARTESIAN_POINT ( 'NONE',  ( 2.288728993717489400E-016, 5.834936490538921400, 6.000000000000001800 ) ) ;
#370 = DIRECTION ( 'NONE',  ( 1.000000000000000000, 0.0000000000000000000, 0.0000000000000000000 ) ) ;
#371 = PLANE ( 'NONE',  #569 ) ;
#372 = CARTESIAN_POINT ( 'NONE',  ( 0.0000000000000000000, 0.0000000000000000000, 12.00000000000000000 ) ) ;
#373 = DIRECTION ( 'NONE',  ( 1.000000000000000000, 0.0000000000000000000, 0.0000000000000000000 ) ) ;
#374 = DIRECTION ( 'NONE',  ( 4.431172994339996500E-017, -1.000000000000000000, -0.0000000000000000000 ) ) ;
#375 = DIRECTION ( 'NONE',  ( 1.000000000000000000, 0.0000000000000000000, 0.0000000000000000000 ) ) ;
#376 = DIRECTION ( 'NONE',  ( 1.000000000000000000, 4.431172994339996500E-017, 0.0000000000000000000 ) ) ;
#377 = CARTESIAN_POINT ( 'NONE',  ( -2.125582938296735100E-033, 11.00000000000000000, 6.000000000000001800 ) ) ;
#378 = DIRECTION ( 'NONE',  ( -1.000000000000000000, 0.0000000000000000000, 0.0000000000000000000 ) ) ;
#379 = PLANE ( 'NONE',  #664 ) ;
#380 = DIRECTION ( 'NONE',  ( -4.431172994339996500E-017, 1.000000000000000000, 0.0000000000000000000 ) ) ;
#381 = DIRECTION ( 'NONE',  ( -1.000000000000000000, 0.0000000000000000000, 0.0000000000000000000 ) ) ;
#382 = DIRECTION ( 'NONE',  ( 0.0000000000000000000, 0.0000000000000000000, 1.000000000000000000 ) ) ;
#383 = DIRECTION ( 'NONE',  ( 1.000000000000000000, 0.0000000000000000000, 0.0000000000000000000 ) ) ;
#384 = DIRECTION ( 'NONE',  ( -4.431172994339996500E-017, 1.000000000000000000, 0.0000000000000000000 ) ) ;
#385 = CARTESIAN_POINT ( 'NONE',  ( 3.000000000000000900, 10.16506350946107400, 6.000000000000001800 ) ) ;
#386 = CARTESIAN_POINT ( 'NONE',  ( -1.732050807568847700, 11.00000000000000000, 6.000000000000001800 ) ) ;
#387 = CARTESIAN_POINT ( 'NONE',  ( 6.000000000000000900, 7.347880794884120700E-016, 11.78000000000000100 ) ) ;
#388 = CARTESIAN_POINT ( 'NONE',  ( 0.8660254037844680200, 11.00000000000000000, 4.500000000000002700 ) ) ;
#389 = DIRECTION ( 'NONE',  ( 1.000000000000000000, 0.0000000000000000000, 0.0000000000000000000 ) ) ;
#390 = CARTESIAN_POINT ( 'NONE',  ( -6.000000000000000900, 0.0000000000000000000, 11.78000000000000100 ) ) ;
#391 = CARTESIAN_POINT ( 'NONE',  ( -6.220000000000000600, 7.617303090696537300E-016, 12.00000000000000000 ) ) ;
#392 = DIRECTION ( 'NONE',  ( -0.0000000000000000000, 1.000000000000000000, -0.0000000000000000000 ) ) ;
#393 = CARTESIAN_POINT ( 'NONE',  ( 0.0000000000000000000, 0.0000000000000000000, 12.00000000000000000 ) ) ;
#394 = CARTESIAN_POINT ( 'NONE',  ( 6.000000000000000900, 7.347880794884120700E-016, 0.2199999999999997000 ) ) ;
#395 = CARTESIAN_POINT ( 'NONE',  ( -11.00000000000000000, 0.0000000000000000000, 0.2199999999999997000 ) ) ;
#396 = DIRECTION ( 'NONE',  ( 0.0000000000000000000, 0.0000000000000000000, 1.000000000000000000 ) ) ;
#397 = DIRECTION ( 'NONE',  ( 0.0000000000000000000, 0.0000000000000000000, 1.000000000000000000 ) ) ;
#398 = CARTESIAN_POINT ( 'NONE',  ( 2.165063509461079100, 11.00000000000000000, 6.000000000000001800 ) ) ;
#399 = CARTESIAN_POINT ( 'NONE',  ( 3.673940077479945100E-016, 6.000000000000000900, 3.000000000000001800 ) ) ;
#400 = CARTESIAN_POINT ( 'NONE',  ( 11.00000000000000000, 1.347111479062088400E-015, 11.78000000000000100 ) ) ;
#401 = CARTESIAN_POINT ( 'NONE',  ( 6.220000000000000600, 0.0000000000000000000, 12.00000000000000000 ) ) ;
#402 = DIRECTION ( 'NONE',  ( -0.0000000000000000000, -0.0000000000000000000, -1.000000000000000000 ) ) ;
#403 = VERTEX_POINT ( 'NONE', #212 ) ;
#404 = APPROVAL_ROLE ( '' ) ;
#405 = VERTEX_POINT ( 'NONE', #191 ) ;
#406 = DIRECTION ( 'NONE',  ( -1.000000000000000000, 0.0000000000000000000, 0.0000000000000000000 ) ) ;
#407 = DIRECTION ( 'NONE',  ( -0.0000000000000000000, -0.0000000000000000000, -1.000000000000000000 ) ) ;
#408 = CARTESIAN_POINT ( 'NONE',  ( 0.0000000000000000000, 0.0000000000000000000, 0.2199999999999997000 ) ) ;
#409 = VERTEX_POINT ( 'NONE', #186 ) ;
#410 = CARTESIAN_POINT ( 'NONE',  ( 3.000000000000000400, 5.834936490538921400, 6.000000000000001800 ) ) ;
#411 = CARTESIAN_POINT ( 'NONE',  ( 0.0000000000000000000, 0.0000000000000000000, 0.2199999999999997000 ) ) ;
#412 = VERTEX_POINT ( 'NONE', #202 ) ;
#413 = DIRECTION ( 'NONE',  ( 0.0000000000000000000, 0.0000000000000000000, 1.000000000000000000 ) ) ;
#414 = DIRECTION ( 'NONE',  ( -1.000000000000000000, 0.0000000000000000000, 0.0000000000000000000 ) ) ;
#415 = DIRECTION ( 'NONE',  ( 1.000000000000000000, 0.0000000000000000000, 0.0000000000000000000 ) ) ;
#416 = DIRECTION ( 'NONE',  ( -1.608122649676636600E-016, 1.000000000000000000, -0.0000000000000000000 ) ) ;
#417 = CARTESIAN_POINT ( 'NONE',  ( 0.0000000000000000000, 0.0000000000000000000, 12.00000000000000000 ) ) ;
#418 = CARTESIAN_POINT ( 'NONE',  ( 3.674019192829223400E-016, 11.00000000000000000, 3.000000000000001800 ) ) ;
#419 = VERTEX_POINT ( 'NONE', #208 ) ;
#420 = DIRECTION ( 'NONE',  ( -0.0000000000000000000, 0.0000000000000000000, 1.000000000000000000 ) ) ;
#421 = DIRECTION ( 'NONE',  ( 0.0000000000000000000, 0.0000000000000000000, 1.000000000000000000 ) ) ;
#422 = CARTESIAN_POINT ( 'NONE',  ( 2.288728993717489400E-016, 5.834936490538921400, 6.000000000000001800 ) ) ;
#423 = PERSON_AND_ORGANIZATION_ROLE ( 'classification_officer' ) ;
#424 = DIRECTION ( 'NONE',  ( 1.000000000000000000, 0.0000000000000000000, -0.0000000000000000000 ) ) ;
#425 = PLANE ( 'NONE',  #697 ) ;
#426 =( NAMED_UNIT ( * ) SI_UNIT ( $, .STERADIAN. ) SOLID_ANGLE_UNIT ( ) );
#427 = CARTESIAN_POINT ( 'NONE',  ( 0.0000000000000000000, 0.0000000000000000000, 0.0000000000000000000 ) ) ;
#428 = CARTESIAN_POINT ( 'NONE',  ( -10.77999999999999900, 1.333640364271467500E-015, 12.00000000000000000 ) ) ;
#429 = CARTESIAN_POINT ( 'NONE',  ( 0.8660254037844696800, 8.599999999999999600, 7.500000000000001800 ) ) ;
#430 = CARTESIAN_POINT ( 'NONE',  ( -2.165063509461078600, 4.999999999999999100, 6.000000000000001800 ) ) ;
#431 = CARTESIAN_POINT ( 'NONE',  ( 0.7499999999999998900, 4.999999999999999100, 6.000000000000001800 ) ) ;
#432 = CARTESIAN_POINT ( 'NONE',  ( 10.77999999999999900, 0.0000000000000000000, 0.0000000000000000000 ) ) ;
#433 = CARTESIAN_POINT ( 'NONE',  ( -0.8660254037844094000, 8.599999999999999600, 7.500000000000001800 ) ) ;
#434 = CARTESIAN_POINT ( 'NONE',  ( -2.165063509461079100, 11.00000000000000000, 6.000000000000001800 ) ) ;
#435 = CARTESIAN_POINT ( 'NONE',  ( -3.000000000000000900, 10.16506350946107400, 6.000000000000001800 ) ) ;
#436 = CARTESIAN_POINT ( 'NONE',  ( -10.77999999999999900, 1.333640364271467500E-015, 0.0000000000000000000 ) ) ;
#437 = CARTESIAN_POINT ( 'NONE',  ( -0.8660254037844111700, 11.00000000000000000, 4.500000000000001800 ) ) ;
#438 = CARTESIAN_POINT ( 'NONE',  ( -2.999999999999999600, 5.834936490538921400, 6.000000000000001800 ) ) ;
#439 = DIRECTION ( 'NONE',  ( -0.0000000000000000000, 1.000000000000000000, -0.0000000000000000000 ) ) ;
#440 = CARTESIAN_POINT ( 'NONE',  ( 1.732050807568906900, 8.599999999999999600, 6.000000000000000000 ) ) ;
#441 = CARTESIAN_POINT ( 'NONE',  ( -0.8660254037844098400, 11.00000000000000000, 7.500000000000001800 ) ) ;
#442 = CARTESIAN_POINT ( 'NONE',  ( 2.083077539354694700E-016, 6.299038105676666000, 6.000000000000001800 ) ) ;
#443 = CARTESIAN_POINT ( 'NONE',  ( 0.8660254037844683500, 8.599999999999999600, 4.500000000000002700 ) ) ;
#444 = CARTESIAN_POINT ( 'NONE',  ( 1.732050807568906500, 11.00000000000000000, 6.000000000000000000 ) ) ;
#445 = DIRECTION ( 'NONE',  ( -1.000000000000000000, -4.431172994339996500E-017, 0.0000000000000000000 ) ) ;
#446 = CARTESIAN_POINT ( 'NONE',  ( 0.0000000000000000000, -8.485281374238567800, 6.000000000000001800 ) ) ;
#447 = DIRECTION ( 'NONE',  ( 0.4999999999999998900, 0.0000000000000000000, 0.8660254037844387100 ) ) ;
#448 = CARTESIAN_POINT ( 'NONE',  ( 6.220000000000000600, 0.0000000000000000000, -1.490777987167568600E-016 ) ) ;
#449 = DIRECTION ( 'NONE',  ( -0.8660254037844387100, -1.392675067021110500E-016, 0.4999999999999998900 ) ) ;
#450 = CARTESIAN_POINT ( 'NONE',  ( 0.0000000000000000000, 0.0000000000000000000, 0.2199999999999997000 ) ) ;
#451 = DIRECTION ( 'NONE',  ( 0.0000000000000000000, 0.0000000000000000000, 1.000000000000000000 ) ) ;
#452 = PLANE ( 'NONE',  #653 ) ;
#453 = APPROVAL_STATUS ( 'not_yet_approved' ) ;
#454 = DIRECTION ( 'NONE',  ( 0.0000000000000000000, 0.0000000000000000000, 1.000000000000000000 ) ) ;
#455 = DIRECTION ( 'NONE',  ( -0.5000000000000004400, 0.0000000000000000000, -0.8660254037844382600 ) ) ;
#456 = DIRECTION ( 'NONE',  ( 0.8660254037844383700, 1.392675067021110500E-016, -0.5000000000000005600 ) ) ;
#457 = VERTEX_POINT ( 'NONE', #387 ) ;
#458 = PLANE ( 'NONE',  #650 ) ;
#459 = CARTESIAN_POINT ( 'NONE',  ( -0.8660254037844094000, 8.599999999999999600, 7.500000000000001800 ) ) ;
#460 = DIRECTION ( 'NONE',  ( 0.4999999999999991100, 0.0000000000000000000, -0.8660254037844391500 ) ) ;
#461 = CARTESIAN_POINT ( 'NONE',  ( 0.8660254037844696800, 8.599999999999999600, 7.500000000000001800 ) ) ;
#462 = DIRECTION ( 'NONE',  ( 0.8660254037844391500, 1.392675067021111700E-016, 0.4999999999999991100 ) ) ;
#463 = DIRECTION ( 'NONE',  ( 1.000000000000000000, 0.0000000000000000000, 0.0000000000000000000 ) ) ;
#464 = VERTEX_POINT ( 'NONE', #401 ) ;
#465 = VERTEX_POINT ( 'NONE', #391 ) ;
#466 = APPLICATION_CONTEXT ( 'configuration controlled 3d designs of mechanical parts and assemblies' ) ;
#467 = VERTEX_POINT ( 'NONE', #390 ) ;
#468 = PLANE ( 'NONE',  #603 ) ;
#469 = VERTEX_POINT ( 'NONE', #394 ) ;
#470 = VERTEX_POINT ( 'NONE', #431 ) ;
#471 = CARTESIAN_POINT ( 'NONE',  ( -1.732050807568847700, 8.599999999999999600, 6.000000000000001800 ) ) ;
#472 = DIRECTION ( 'NONE',  ( 0.0000000000000000000, -0.0000000000000000000, -1.000000000000000000 ) ) ;
#473 = VERTEX_POINT ( 'NONE', #441 ) ;
#474 = VERTEX_POINT ( 'NONE', #444 ) ;
#475 = VERTEX_POINT ( 'NONE', #429 ) ;
#476 = DIRECTION ( 'NONE',  ( 0.0000000000000000000, -1.000000000000000000, 0.0000000000000000000 ) ) ;
#477 = CARTESIAN_POINT ( 'NONE',  ( 11.00000000000000000, 1.347111479062088400E-015, 0.2199999999999997000 ) ) ;
#478 = PLANE ( 'NONE',  #630 ) ;
#479 = CARTESIAN_POINT ( 'NONE',  ( 0.8660254037844696800, 8.599999999999999600, 7.500000000000001800 ) ) ;
#480 = PLANE ( 'NONE',  #696 ) ;
#481 = APPROVAL_STATUS ( 'not_yet_approved' ) ;
#482 = VERTEX_POINT ( 'NONE', #436 ) ;
#483 = VERTEX_POINT ( 'NONE', #433 ) ;
#484 = CARTESIAN_POINT ( 'NONE',  ( 1.732050807568906900, 8.599999999999999600, 6.000000000000000000 ) ) ;
#485 = VERTEX_POINT ( 'NONE', #442 ) ;
#486 = CARTESIAN_POINT ( 'NONE',  ( 2.658703796603997700E-016, 4.999999999999999100, 6.000000000000001800 ) ) ;
#487 = DIRECTION ( 'NONE',  ( 4.431172994339996500E-017, -1.000000000000000000, -0.0000000000000000000 ) ) ;
#488 = CARTESIAN_POINT ( 'NONE',  ( -0.8660254037844107300, 8.599999999999999600, 4.500000000000001800 ) ) ;
#489 = VERTEX_POINT ( 'NONE', #428 ) ;
#490 = VERTEX_POINT ( 'NONE', #435 ) ;
#491 = VERTEX_POINT ( 'NONE', #438 ) ;
#492 = VERTEX_POINT ( 'NONE', #443 ) ;
#493 = VERTEX_POINT ( 'NONE', #440 ) ;
#494 = VERTEX_POINT ( 'NONE', #432 ) ;
#495 = CARTESIAN_POINT ( 'NONE',  ( 0.3926384312556783800, 11.00000000000000000, 3.000000000000001300 ) ) ;
#496 = VERTEX_POINT ( 'NONE', #410 ) ;
#497 = VERTEX_POINT ( 'NONE', #434 ) ;
#498 = CARTESIAN_POINT ( 'NONE',  ( -0.7499999999999994400, 4.999999999999999100, 6.000000000000001800 ) ) ;
#499 = VERTEX_POINT ( 'NONE', #430 ) ;
#500 = VERTEX_POINT ( 'NONE', #418 ) ;
#501 = VERTEX_POINT ( 'NONE', #437 ) ;
#502 = VERTEX_POINT ( 'NONE', #395 ) ;
#503 = VERTEX_POINT ( 'NONE', #399 ) ;
#504 = VERTEX_POINT ( 'NONE', #385 ) ;
#505 = VERTEX_POINT ( 'NONE', #398 ) ;
#506 = VERTEX_POINT ( 'NONE', #388 ) ;
#507 = VERTEX_POINT ( 'NONE', #386 ) ;
#508 = VERTEX_POINT ( 'NONE', #498 ) ;
#509 = VERTEX_POINT ( 'NONE', #400 ) ;
#510 = VERTEX_POINT ( 'NONE', #448 ) ;
#511 = DIRECTION ( 'NONE',  ( -0.0000000000000000000, -0.0000000000000000000, -1.000000000000000000 ) ) ;
#512 = DIRECTION ( 'NONE',  ( 0.0000000000000000000, 0.0000000000000000000, 1.000000000000000000 ) ) ;
#513 = DIRECTION ( 'NONE',  ( -1.000000000000000000, 0.0000000000000000000, 0.0000000000000000000 ) ) ;
#514 = DIRECTION ( 'NONE',  ( 4.431172994339996500E-017, -1.000000000000000000, -0.0000000000000000000 ) ) ;
#515 = PLANE ( 'NONE',  #584 ) ;
#516 = DIRECTION ( 'NONE',  ( 1.000000000000000000, 0.0000000000000000000, -0.0000000000000000000 ) ) ;
#517 = CARTESIAN_POINT ( 'NONE',  ( 0.0000000000000000000, 0.0000000000000000000, 0.2199999999999997000 ) ) ;
#518 = PRODUCT_DEFINITION_SHAPE ( 'NONE', 'NONE',  #637 ) ;
#519 = DESIGN_CONTEXT ( 'detailed design', #466, 'design' ) ;
#520 = B_SPLINE_CURVE_WITH_KNOTS ( 'NONE', 3,
 ( #327, #495, #321, #320, #319, #318, #317, #316, #315, #312, #311, #309, #308, #306, #305, #304, #303, #302, #301, #300, #299, #297, #295, #294, #292, #291, #290, #288, #287, #286, #285, #284 ),
 .UNSPECIFIED., .F., .F.,
 ( 4, 2, 2, 2, 2, 2, 2, 2, 2, 2, 2, 2, 2, 2, 2, 4 ),
 ( 0.009424206406757101200, 0.01060191226431300400, 0.01119076519309095700, 0.01177961812186890800, 0.01236847105064686100, 0.01295732397942481200, 0.01354617690820276300, 0.01413502983698071400, 0.01472388276575866700, 0.01531273569453661800, 0.01590158862331457100, 0.01649044155209252300, 0.01707929448087047400, 0.01766814740964842500, 0.01825700033842637600, 0.01884585326720432700 ),
 .UNSPECIFIED. ) ;
#521 = B_SPLINE_CURVE_WITH_KNOTS ( 'NONE', 3,
 ( #248, #244, #243, #242, #241, #240, #239, #238, #237, #236, #235, #234, #233, #232, #230, #229, #228, #227, #226, #225, #224, #223, #222, #221, #220, #219, #218, #217, #216, #214, #213, #211 ),
 .UNSPECIFIED., .F., .F.,
 ( 4, 2, 2, 2, 2, 2, 2, 2, 2, 2, 2, 2, 2, 2, 2, 4 ),
 ( 4.864834550175894800E-019, 0.0005890129004223188200, 0.001178025800844637200, 0.001767038701266955800, 0.002356051601689274000, 0.002945064502111592600, 0.003534077402533911200, 0.004123090302956229800, 0.004712103203378548000, 0.005301116103800867000, 0.005890129004223185200, 0.007068154805067825000, 0.007657167705490144900, 0.008246180605912463100, 0.008835193506334781300, 0.009424206406757101200 ),
 .UNSPECIFIED. ) ;
#522 = B_SPLINE_CURVE_WITH_KNOTS ( 'NONE', 3,
 ( #259, #206, #205, #203, #201, #200, #199, #198, #196, #195, #194, #193, #192, #190, #189, #188, #187, #185, #183, #182, #181, #180, #178, #175, #174, #173, #170, #169, #168, #167, #165, #164, #163, #162 ),
 .UNSPECIFIED., .F., .F.,
 ( 4, 2, 2, 2, 2, 2, 2, 2, 2, 2, 2, 2, 2, 2, 2, 2, 4 ),
 ( 2.127901118568316600E-017, 0.0005964342858044741200, 0.001192868571608927000, 0.001789302857413379400, 0.002385737143217831900, 0.002982171429022283900, 0.003578605714826736800, 0.004175040000631189200, 0.004771474286435642100, 0.005367908572240094100, 0.005964342858044545200, 0.006560777143848997200, 0.007157211429653449200, 0.007753645715457901200, 0.008350080001262350600, 0.008946514287066803500, 0.009542948572871254700 ),
 .UNSPECIFIED. ) ;
#523 = B_SPLINE_CURVE_WITH_KNOTS ( 'NONE', 3,
 ( #123, #118, #117, #116, #115, #114, #113, #112, #111, #110, #109, #108, #107, #106, #105, #104, #103, #101, #99, #98, #97, #96, #95, #94, #93, #92, #91, #90, #89, #88, #87, #86 ),
 .UNSPECIFIED., .F., .F.,
 ( 4, 2, 2, 2, 2, 2, 2, 2, 2, 2, 2, 2, 2, 2, 2, 4 ),
 ( 0.009542948572871254700, 0.01013834418926837900, 0.01073373980566550600, 0.01132913542206263000, 0.01192453103845975500, 0.01251992665485688100, 0.01311532227125400800, 0.01371071788765113400, 0.01430611350404826000, 0.01490150912044538700, 0.01549690473684251300, 0.01668769596963676600, 0.01728309158603389200, 0.01787848720243101800, 0.01847388281882814500, 0.01906927843522527100 ),
 .UNSPECIFIED. ) ;
#524 = UNCERTAINTY_MEASURE_WITH_UNIT (LENGTH_MEASURE( 1.000000000000000100E-005 ), #1, 'distance_accuracy_value', 'NONE');
#525 = ADVANCED_BREP_SHAPE_REPRESENTATION ( '57485K69', ( #702, #701, #640 ), #733 ) ;
#526 = ADVANCED_FACE ( 'NONE', ( #1019 ), #1039, .T. ) ;
#527 = ADVANCED_FACE ( 'NONE', ( #1041 ), #1000, .F. ) ;
#528 = ADVANCED_FACE ( 'NONE', ( #1031, #1091 ), #1020, .F. ) ;
#529 = ADVANCED_FACE ( 'NONE', ( #1011, #779 ), #425, .F. ) ;
#530 = ADVANCED_FACE ( 'NONE', ( #750 ), #1029, .T. ) ;
#531 = ADVANCED_FACE ( 'NONE', ( #1086, #1038 ), #1048, .T. ) ;
#532 = ADVANCED_FACE ( 'NONE', ( #1037, #799 ), #515, .T. ) ;
#533 = ADVANCED_FACE ( 'NONE', ( #1002 ), #1047, .T. ) ;
#534 = ADVANCED_FACE ( 'NONE', ( #1077 ), #1021, .T. ) ;
#535 = ADVANCED_FACE ( 'NONE', ( #1081 ), #1057, .T. ) ;
#536 = ADVANCED_FACE ( 'NONE', ( #1046 ), #1010, .T. ) ;
#537 = ADVANCED_FACE ( 'NONE', ( #1062 ), #808, .F. ) ;
#538 = ADVANCED_FACE ( 'NONE', ( #1044 ), #814, .T. ) ;
#539 = ADVANCED_FACE ( 'NONE', ( #1033 ), #1009, .T. ) ;
#540 = ADVANCED_FACE ( 'NONE', ( #1075 ), #1083, .T. ) ;
#541 = ADVANCED_FACE ( 'NONE', ( #1053, #1063 ), #371, .F. ) ;
#542 = ADVANCED_FACE ( 'NONE', ( #1058, #1067 ), #379, .F. ) ;
#543 = ADVANCED_FACE ( 'NONE', ( #1001 ), #995, .T. ) ;
#544 = ADVANCED_FACE ( 'NONE', ( #1049 ), #988, .F. ) ;
#545 = ADVANCED_FACE ( 'NONE', ( #821 ), #480, .F. ) ;
#546 = ADVANCED_FACE ( 'NONE', ( #1073 ), #478, .F. ) ;
#547 = ADVANCED_FACE ( 'NONE', ( #1082 ), #468, .F. ) ;
#548 = ADVANCED_FACE ( 'NONE', ( #1090 ), #458, .F. ) ;
#549 = ADVANCED_FACE ( 'NONE', ( #1079 ), #452, .F. ) ;
#550 = ADVANCED_FACE ( 'NONE', ( #788 ), #1085, .F. ) ;
#551 = ADVANCED_FACE ( 'NONE', ( #1036 ), #1008, .T. ) ;
#552 = ADVANCED_FACE ( 'NONE', ( #1040 ), #810, .T. ) ;
#553 = ADVANCED_FACE ( 'NONE', ( #749 ), #1030, .F. ) ;
#554 = ADVANCED_FACE ( 'NONE', ( #1080 ), #993, .T. ) ;
#555 = ADVANCED_FACE ( 'NONE', ( #1087 ), #1022, .T. ) ;
#556 = ADVANCED_FACE ( 'NONE', ( #1045 ), #1084, .T. ) ;
#557 = ADVANCED_FACE ( 'NONE', ( #926 ), #324, .F. ) ;
#558 = ADVANCED_FACE ( 'NONE', ( #994 ), #322, .F. ) ;
#559 = EDGE_CURVE ( 'NONE', #207, #499, #1005, .T. ) ;
#560 = AXIS2_PLACEMENT_3D ( 'NONE', #59, #45, #373 ) ;
#561 = EDGE_CURVE ( 'NONE', #403, #502, #1088, .T. ) ;
#562 = EDGE_CURVE ( 'NONE', #475, #493, #996, .T. ) ;
#563 = AXIS2_PLACEMENT_3D ( 'NONE', #40, #43, #370 ) ;
#564 = EDGE_CURVE ( 'NONE', #258, #405, #812, .T. ) ;
#565 = AXIS2_PLACEMENT_3D ( 'NONE', #349, #346, #345 ) ;
#566 = EDGE_CURVE ( 'NONE', #504, #490, #1007, .T. ) ;
#567 = AXIS2_PLACEMENT_3D ( 'NONE', #372, #402, #381 ) ;
#568 = AXIS2_PLACEMENT_3D ( 'NONE', #408, #413, #389 ) ;
#569 = AXIS2_PLACEMENT_3D ( 'NONE', #77, #384, #445 ) ;
#570 = AXIS2_PLACEMENT_3D ( 'NONE', #46, #514, #267 ) ;
#571 = EDGE_CURVE ( 'NONE', #502, #252, #1016, .T. ) ;
#572 = EDGE_CURVE ( 'NONE', #207, #496, #1052, .T. ) ;
#573 = EDGE_CURVE ( 'NONE', #494, #252, #858, .T. ) ;
#574 = EDGE_CURVE ( 'NONE', #469, #510, #856, .T. ) ;
#575 = EDGE_CURVE ( 'NONE', #509, #252, #857, .T. ) ;
#576 = EDGE_CURVE ( 'NONE', #503, #500, #1069, .T. ) ;
#577 = EDGE_CURVE ( 'NONE', #482, #494, #852, .T. ) ;
#578 = EDGE_CURVE ( 'NONE', #509, #419, #851, .T. ) ;
#579 = AXIS2_PLACEMENT_3D ( 'NONE', #369, #380, #378 ) ;
#580 = EDGE_CURVE ( 'NONE', #510, #260, #849, .T. ) ;
#581 = EDGE_CURVE ( 'NONE', #497, #490, #850, .T. ) ;
#582 = AXIS2_PLACEMENT_3D ( 'NONE', #450, #451, #184 ) ;
#583 = EDGE_CURVE ( 'NONE', #500, #405, #520, .T. ) ;
#584 = AXIS2_PLACEMENT_3D ( 'NONE', #9, #11, #516 ) ;
#585 = AXIS2_PLACEMENT_3D ( 'NONE', #332, #338, #358 ) ;
#586 = EDGE_CURVE ( 'NONE', #485, #470, #848, .T. ) ;
#587 = EDGE_CURVE ( 'NONE', #409, #260, #844, .T. ) ;
#588 = AXIS2_PLACEMENT_3D ( 'NONE', #280, #279, #277 ) ;
#589 = EDGE_CURVE ( 'NONE', #493, #492, #845, .T. ) ;
#590 = AXIS2_PLACEMENT_3D ( 'NONE', #359, #357, #356 ) ;
#591 = EDGE_CURVE ( 'NONE', #499, #491, #843, .T. ) ;
#592 = AXIS2_PLACEMENT_3D ( 'NONE', #268, #257, #255 ) ;
#593 = AXIS2_PLACEMENT_3D ( 'NONE', #446, #439, #454 ) ;
#594 = AXIS2_PLACEMENT_3D ( 'NONE', #253, #251, #249 ) ;
#595 = EDGE_CURVE ( 'NONE', #501, #507, #846, .T. ) ;
#596 = AXIS2_PLACEMENT_3D ( 'NONE', #362, #382, #348 ) ;
#597 = EDGE_CURVE ( 'NONE', #457, #469, #847, .T. ) ;
#598 = AXIS2_PLACEMENT_3D ( 'NONE', #17, #4, #31 ) ;
#599 = EDGE_CURVE ( 'NONE', #509, #403, #837, .T. ) ;
#600 = EDGE_CURVE ( 'NONE', #409, #469, #836, .T. ) ;
#601 = EDGE_CURVE ( 'NONE', #260, #510, #834, .T. ) ;
#602 = AXIS2_PLACEMENT_3D ( 'NONE', #486, #487, #383 ) ;
#603 = AXIS2_PLACEMENT_3D ( 'NONE', #484, #456, #455 ) ;
#604 = EDGE_CURVE ( 'NONE', #256, #474, #840, .T. ) ;
#605 = EDGE_CURVE ( 'NONE', #405, #500, #521, .T. ) ;
#606 = EDGE_CURVE ( 'NONE', #258, #503, #522, .T. ) ;
#607 = EDGE_CURVE ( 'NONE', #494, #482, #830, .T. ) ;
#608 = EDGE_CURVE ( 'NONE', #464, #465, #828, .T. ) ;
#609 = AXIS2_PLACEMENT_3D ( 'NONE', #335, #334, #333 ) ;
#610 = AXIS2_PLACEMENT_3D ( 'NONE', #353, #351, #350 ) ;
#611 = PRODUCT_RELATED_PRODUCT_CATEGORY ( 'detail', '', ( #1094 ) ) ;
#612 = AXIS2_PLACEMENT_3D ( 'NONE', #49, #278, #37 ) ;
#613 = CC_DESIGN_SECURITY_CLASSIFICATION ( #621, ( #627 ) ) ;
#614 = EDGE_CURVE ( 'NONE', #464, #457, #827, .T. ) ;
#615 = AXIS2_PLACEMENT_3D ( 'NONE', #177, #14, #25 ) ;
#616 = CC_DESIGN_APPROVAL ( #617, ( #621 ) ) ;
#617 = APPROVAL ( #147, 'UNSPECIFIED' ) ;
#618 = CC_DESIGN_DATE_AND_TIME_ASSIGNMENT ( #873, #166, ( #621 ) ) ;
#619 = CC_DESIGN_PERSON_AND_ORGANIZATION_ASSIGNMENT ( #744, #423, ( #621 ) ) ;
#620 = AXIS2_PLACEMENT_3D ( 'NONE', #323, #296, #293 ) ;
#621 = SECURITY_CLASSIFICATION ( '', '', #126 ) ;
#622 = CC_DESIGN_PERSON_AND_ORGANIZATION_ASSIGNMENT ( #742, #273, ( #627 ) ) ;
#623 = CC_DESIGN_PERSON_AND_ORGANIZATION_ASSIGNMENT ( #741, #55, ( #627 ) ) ;
#624 = AXIS2_PLACEMENT_3D ( 'NONE', #179, #392, #396 ) ;
#625 = CC_DESIGN_APPROVAL ( #626, ( #627 ) ) ;
#626 = APPROVAL ( #453, 'UNSPECIFIED' ) ;
#627 = PRODUCT_DEFINITION_FORMATION_WITH_SPECIFIED_SOURCE ( 'ANY', '', #1094, .NOT_KNOWN. ) ;
#628 = CC_DESIGN_DATE_AND_TIME_ASSIGNMENT ( #720, #75, ( #637 ) ) ;
#629 = CC_DESIGN_PERSON_AND_ORGANIZATION_ASSIGNMENT ( #724, #151, ( #637 ) ) ;
#630 = AXIS2_PLACEMENT_3D ( 'NONE', #479, #462, #460 ) ;
#631 = EDGE_CURVE ( 'NONE', #467, #457, #824, .T. ) ;
#632 = CC_DESIGN_APPROVAL ( #636, ( #637 ) ) ;
#633 = AXIS2_PLACEMENT_3D ( 'NONE', #82, #102, #264 ) ;
#634 = EDGE_CURVE ( 'NONE', #499, #207, #822, .T. ) ;
#635 = AXIS2_PLACEMENT_3D ( 'NONE', #517, #512, #269 ) ;
#636 = APPROVAL ( #481, 'UNSPECIFIED' ) ;
#637 = PRODUCT_DEFINITION ( 'UNKNOWN', '', #627, #519 ) ;
#638 = CC_DESIGN_PERSON_AND_ORGANIZATION_ASSIGNMENT ( #732, #197, ( #1094 ) ) ;
#639 = EDGE_CURVE ( 'NONE', #492, #412, #833, .T. ) ;
#640 = AXIS2_PLACEMENT_3D ( 'NONE', #231, #119, #159 ) ;
#641 = EDGE_CURVE ( 'NONE', #250, #483, #820, .T. ) ;
#642 = AXIS2_PLACEMENT_3D ( 'NONE', #331, #330, #329 ) ;
#643 = AXIS2_PLACEMENT_3D ( 'NONE', #26, #7, #6 ) ;
#644 = EDGE_CURVE ( 'NONE', #507, #473, #818, .T. ) ;
#645 = EDGE_CURVE ( 'NONE', #465, #464, #815, .T. ) ;
#646 = AXIS2_PLACEMENT_3D ( 'NONE', #21, #3, #2 ) ;
#647 = EDGE_CURVE ( 'NONE', #412, #501, #831, .T. ) ;
#648 = AXIS2_PLACEMENT_3D ( 'NONE', #47, #24, #23 ) ;
#649 = AXIS2_PLACEMENT_3D ( 'NONE', #411, #397, #375 ) ;
#650 = AXIS2_PLACEMENT_3D ( 'NONE', #471, #449, #447 ) ;
#651 = AXIS2_PLACEMENT_3D ( 'NONE', #22, #20, #19 ) ;
#652 = AXIS2_PLACEMENT_3D ( 'NONE', #38, #36, #35 ) ;
#653 = AXIS2_PLACEMENT_3D ( 'NONE', #459, #420, #415 ) ;
#654 = AXIS2_PLACEMENT_3D ( 'NONE', #62, #51, #44 ) ;
#655 = AXIS2_PLACEMENT_3D ( 'NONE', #34, #33, #32 ) ;
#656 = AXIS2_PLACEMENT_3D ( 'NONE', #393, #176, #406 ) ;
#657 = AXIS2_PLACEMENT_3D ( 'NONE', #52, #50, #48 ) ;
#658 = EDGE_CURVE ( 'NONE', #483, #473, #813, .T. ) ;
#659 = EDGE_CURVE ( 'NONE', #470, #508, #807, .T. ) ;
#660 = EDGE_CURVE ( 'NONE', #505, #497, #804, .T. ) ;
#661 = AXIS2_PLACEMENT_3D ( 'NONE', #58, #57, #56 ) ;
#662 = AXIS2_PLACEMENT_3D ( 'NONE', #74, #72, #71 ) ;
#663 = AXIS2_PLACEMENT_3D ( 'NONE', #363, #361, #360 ) ;
#664 = AXIS2_PLACEMENT_3D ( 'NONE', #377, #374, #376 ) ;
#665 = EDGE_CURVE ( 'NONE', #469, #409, #802, .T. ) ;
#666 = AXIS2_PLACEMENT_3D ( 'NONE', #289, #28, #463 ) ;
#667 = EDGE_CURVE ( 'NONE', #475, #256, #809, .T. ) ;
#668 = AXIS2_PLACEMENT_3D ( 'NONE', #70, #69, #68 ) ;
#669 = EDGE_CURVE ( 'NONE', #503, #258, #523, .T. ) ;
#670 = AXIS2_PLACEMENT_3D ( 'NONE', #67, #66, #65 ) ;
#671 = AXIS2_PLACEMENT_3D ( 'NONE', #129, #122, #121 ) ;
#672 = AXIS2_PLACEMENT_3D ( 'NONE', #133, #125, #124 ) ;
#673 = AXIS2_PLACEMENT_3D ( 'NONE', #130, #128, #127 ) ;
#674 = AXIS2_PLACEMENT_3D ( 'NONE', #79, #78, #76 ) ;
#675 = AXIS2_PLACEMENT_3D ( 'NONE', #245, #148, #146 ) ;
#676 = AXIS2_PLACEMENT_3D ( 'NONE', #139, #137, #136 ) ;
#677 = EDGE_CURVE ( 'NONE', #473, #256, #816, .T. ) ;
#678 = AXIS2_PLACEMENT_3D ( 'NONE', #152, #150, #149 ) ;
#679 = AXIS2_PLACEMENT_3D ( 'NONE', #155, #154, #153 ) ;
#680 = EDGE_CURVE ( 'NONE', #485, #508, #797, .T. ) ;
#681 = EDGE_CURVE ( 'NONE', #403, #489, #791, .T. ) ;
#682 = EDGE_CURVE ( 'NONE', #483, #475, #792, .T. ) ;
#683 = EDGE_CURVE ( 'NONE', #465, #467, #786, .T. ) ;
#684 = AXIS2_PLACEMENT_3D ( 'NONE', #209, #157, #156 ) ;
#685 = AXIS2_PLACEMENT_3D ( 'NONE', #339, #337, #336 ) ;
#686 = EDGE_CURVE ( 'NONE', #489, #419, #785, .T. ) ;
#687 = EDGE_CURVE ( 'NONE', #508, #470, #784, .T. ) ;
#688 = EDGE_CURVE ( 'NONE', #467, #409, #794, .T. ) ;
#689 = AXIS2_PLACEMENT_3D ( 'NONE', #343, #314, #310 ) ;
#690 = AXIS2_PLACEMENT_3D ( 'NONE', #422, #30, #513 ) ;
#691 = EDGE_CURVE ( 'NONE', #506, #501, #783, .T. ) ;
#692 = AXIS2_PLACEMENT_3D ( 'NONE', #347, #367, #352 ) ;
#693 = AXIS2_PLACEMENT_3D ( 'NONE', #417, #407, #414 ) ;
#694 = AXIS2_PLACEMENT_3D ( 'NONE', #161, #160, #158 ) ;
#695 = EDGE_CURVE ( 'NONE', #252, #502, #773, .T. ) ;
#696 = AXIS2_PLACEMENT_3D ( 'NONE', #488, #476, #472 ) ;
#697 = AXIS2_PLACEMENT_3D ( 'NONE', #427, #421, #424 ) ;
#698 = EDGE_CURVE ( 'NONE', #474, #506, #787, .T. ) ;
#699 = AXIS2_PLACEMENT_3D ( 'NONE', #265, #263, #262 ) ;
#700 = EDGE_CURVE ( 'NONE', #491, #496, #770, .T. ) ;
#701 = MANIFOLD_SOLID_BREP ( 'Cut-Extrude2', #1025 ) ;
#702 = MANIFOLD_SOLID_BREP ( 'Fillet1', #1028 ) ;
#703 = EDGE_CURVE ( 'NONE', #419, #489, #769, .T. ) ;
#704 = EDGE_CURVE ( 'NONE', #493, #474, #775, .T. ) ;
#705 = EDGE_CURVE ( 'NONE', #505, #504, #767, .T. ) ;
#706 = EDGE_CURVE ( 'NONE', #482, #502, #763, .T. ) ;
#707 = EDGE_CURVE ( 'NONE', #457, #467, #762, .T. ) ;
#708 = EDGE_CURVE ( 'NONE', #250, #507, #765, .T. ) ;
#709 = EDGE_CURVE ( 'NONE', #490, #504, #759, .T. ) ;
#710 = EDGE_CURVE ( 'NONE', #497, #505, #758, .T. ) ;
#711 = EDGE_CURVE ( 'NONE', #492, #506, #761, .T. ) ;
#712 = EDGE_CURVE ( 'NONE', #490, #491, #756, .T. ) ;
#713 = EDGE_CURVE ( 'NONE', #412, #250, #754, .T. ) ;
#714 = EDGE_CURVE ( 'NONE', #403, #509, #751, .T. ) ;
#715 = EDGE_CURVE ( 'NONE', #496, #491, #747, .T. ) ;
#716 = EDGE_CURVE ( 'NONE', #504, #496, #776, .T. ) ;
#717 = COORDINATED_UNIVERSAL_TIME_OFFSET ( 6, 0, .BEHIND. ) ;
#718 = APPROVAL_PERSON_ORGANIZATION ( #719, #626, #404 ) ;
#719 = PERSON_AND_ORGANIZATION ( #1095, #734 ) ;
#720 = DATE_AND_TIME ( #721, #722 ) ;
#721 = CALENDAR_DATE ( 2013, 26, 4 ) ;
#722 = LOCAL_TIME ( 10, 9, 42.00000000000000000, #723 ) ;
#723 = COORDINATED_UNIVERSAL_TIME_OFFSET ( 6, 0, .BEHIND. ) ;
#724 = PERSON_AND_ORGANIZATION ( #1095, #734 ) ;
#725 = APPROVAL_DATE_TIME ( #726, #636 ) ;
#726 = DATE_AND_TIME ( #727, #728 ) ;
#727 = CALENDAR_DATE ( 2013, 26, 4 ) ;
#728 = LOCAL_TIME ( 10, 9, 42.00000000000000000, #729 ) ;
#729 = COORDINATED_UNIVERSAL_TIME_OFFSET ( 6, 0, .BEHIND. ) ;
#730 = APPROVAL_PERSON_ORGANIZATION ( #731, #636, #313 ) ;
#731 = PERSON_AND_ORGANIZATION ( #1095, #734 ) ;
#732 = PERSON_AND_ORGANIZATION ( #1095, #734 ) ;
#733 =( GEOMETRIC_REPRESENTATION_CONTEXT ( 3 ) GLOBAL_UNCERTAINTY_ASSIGNED_CONTEXT ( ( #524 ) ) GLOBAL_UNIT_ASSIGNED_CONTEXT ( ( #1, #5, #426 ) ) REPRESENTATION_CONTEXT ( 'NONE', 'WORKASPACE' ) );
#734 = ORGANIZATION ( 'UNSPECIFIED', 'UNSPECIFIED', '' ) ;
#735 = SHAPE_DEFINITION_REPRESENTATION ( #518, #525 ) ;
#736 = LOCAL_TIME ( 10, 9, 42.00000000000000000, #717 ) ;
#737 = APPROVAL_DATE_TIME ( #739, #626 ) ;
#738 = CALENDAR_DATE ( 2013, 26, 4 ) ;
#739 = DATE_AND_TIME ( #738, #736 ) ;
#740 = ORIENTED_EDGE ( 'NONE', *, *, #645, .T. ) ;
#741 = PERSON_AND_ORGANIZATION ( #1095, #734 ) ;
#742 = PERSON_AND_ORGANIZATION ( #1095, #734 ) ;
#743 = LOCAL_TIME ( 10, 9, 42.00000000000000000, #745 ) ;
#744 = PERSON_AND_ORGANIZATION ( #1095, #734 ) ;
#745 = COORDINATED_UNIVERSAL_TIME_OFFSET ( 6, 0, .BEHIND. ) ;
#746 = CALENDAR_DATE ( 2013, 26, 4 ) ;
#747 = CIRCLE ( 'NONE', #646, 2.999999999999999600 ) ;
#748 = ORIENTED_EDGE ( 'NONE', *, *, #688, .T. ) ;
#749 = FACE_OUTER_BOUND ( 'NONE', #885, .T. ) ;
#750 = FACE_OUTER_BOUND ( 'NONE', #893, .T. ) ;
#751 = CIRCLE ( 'NONE', #643, 11.00000000000000000 ) ;
#752 = VECTOR ( 'NONE', #261, 1000.000000000000000 ) ;
#753 = VECTOR ( 'NONE', #8, 1000.000000000000100 ) ;
#754 = LINE ( 'NONE', #10, #753 ) ;
#755 = VECTOR ( 'NONE', #12, 1000.000000000000000 ) ;
#756 = LINE ( 'NONE', #13, #755 ) ;
#757 = ORIENTED_EDGE ( 'NONE', *, *, #571, .T. ) ;
#758 = CIRCLE ( 'NONE', #651, 2.165063509461079100 ) ;
#759 = CIRCLE ( 'NONE', #648, 3.000000000000000900 ) ;
#760 = ORIENTED_EDGE ( 'NONE', *, *, #703, .T. ) ;
#761 = LINE ( 'NONE', #16, #771 ) ;
#762 = CIRCLE ( 'NONE', #655, 6.000000000000000900 ) ;
#763 = CIRCLE ( 'NONE', #652, 0.2199999999999997000 ) ;
#764 = VECTOR ( 'NONE', #27, 1000.000000000000000 ) ;
#765 = LINE ( 'NONE', #29, #764 ) ;
#766 = VECTOR ( 'NONE', #39, 999.9999999999998900 ) ;
#767 = LINE ( 'NONE', #41, #766 ) ;
#768 = CALENDAR_DATE ( 2013, 26, 4 ) ;
#769 = CIRCLE ( 'NONE', #654, 10.77999999999999900 ) ;
#770 = CIRCLE ( 'NONE', #657, 2.999999999999999600 ) ;
#771 = VECTOR ( 'NONE', #15, 1000.000000000000000 ) ;
#772 = VECTOR ( 'NONE', #416, 1000.000000000000000 ) ;
#773 = CIRCLE ( 'NONE', #661, 11.00000000000000000 ) ;
#774 = ORIENTED_EDGE ( 'NONE', *, *, #561, .F. ) ;
#775 = LINE ( 'NONE', #42, #772 ) ;
#776 = LINE ( 'NONE', #18, #752 ) ;
#777 = EDGE_LOOP ( 'NONE', ( #917, #925, #922, #923 ) ) ;
#778 = VECTOR ( 'NONE', #60, 1000.000000000000000 ) ;
#779 = FACE_OUTER_BOUND ( 'NONE', #891, .T. ) ;
#780 = ORIENTED_EDGE ( 'NONE', *, *, #683, .F. ) ;
#781 = ORIENTED_EDGE ( 'NONE', *, *, #575, .F. ) ;
#782 = ORIENTED_EDGE ( 'NONE', *, *, #601, .T. ) ;
#783 = LINE ( 'NONE', #61, #778 ) ;
#784 = CIRCLE ( 'NONE', #670, 0.7499999999999997800 ) ;
#785 = CIRCLE ( 'NONE', #668, 10.77999999999999900 ) ;
#786 = CIRCLE ( 'NONE', #662, 0.2199999999999997000 ) ;
#787 = LINE ( 'NONE', #54, #798 ) ;
#788 = FACE_OUTER_BOUND ( 'NONE', #877, .T. ) ;
#789 = ORIENTED_EDGE ( 'NONE', *, *, #608, .T. ) ;
#790 = ORIENTED_EDGE ( 'NONE', *, *, #686, .F. ) ;
#791 = CIRCLE ( 'NONE', #674, 0.2199999999999997000 ) ;
#792 = LINE ( 'NONE', #83, #800 ) ;
#793 = VECTOR ( 'NONE', #63, 1000.000000000000000 ) ;
#794 = LINE ( 'NONE', #64, #793 ) ;
#795 = ORIENTED_EDGE ( 'NONE', *, *, #669, .T. ) ;
#796 = VECTOR ( 'NONE', #80, 1000.000000000000100 ) ;
#797 = LINE ( 'NONE', #81, #796 ) ;
#798 = VECTOR ( 'NONE', #53, 1000.000000000000000 ) ;
#799 = FACE_OUTER_BOUND ( 'NONE', #884, .T. ) ;
#800 = VECTOR ( 'NONE', #73, 1000.000000000000000 ) ;
#801 = ORIENTED_EDGE ( 'NONE', *, *, #695, .T. ) ;
#802 = CIRCLE ( 'NONE', #671, 6.000000000000000900 ) ;
#803 = VECTOR ( 'NONE', #84, 1000.000000000000000 ) ;
#804 = CIRCLE ( 'NONE', #672, 2.165063509461079100 ) ;
#805 = VECTOR ( 'NONE', #120, 1000.000000000000000 ) ;
#806 = ORIENTED_EDGE ( 'NONE', *, *, #574, .T. ) ;
#807 = CIRCLE ( 'NONE', #673, 0.7499999999999997800 ) ;
#808 = CONICAL_SURFACE ( 'NONE', #633, 0.7499999999999996700, 0.5235987755982957100 ) ;
#809 = LINE ( 'NONE', #307, #805 ) ;
#810 = TOROIDAL_SURFACE ( 'NONE', #649, 6.220000000000000600, 0.2200000000000000000 ) ;
#811 = VECTOR ( 'NONE', #131, 1000.000000000000000 ) ;
#812 = LINE ( 'NONE', #368, #1068 ) ;
#813 = LINE ( 'NONE', #132, #811 ) ;
#814 = CYLINDRICAL_SURFACE ( 'NONE', #612, 3.000000000000000400 ) ;
#815 = CIRCLE ( 'NONE', #676, 6.220000000000000600 ) ;
#816 = LINE ( 'NONE', #85, #803 ) ;
#817 = VECTOR ( 'NONE', #140, 1000.000000000000200 ) ;
#818 = LINE ( 'NONE', #141, #817 ) ;
#819 = VECTOR ( 'NONE', #142, 1000.000000000000200 ) ;
#820 = LINE ( 'NONE', #143, #819 ) ;
#821 = FACE_OUTER_BOUND ( 'NONE', #894, .T. ) ;
#822 = CIRCLE ( 'NONE', #675, 2.165063509461079100 ) ;
#823 = ORIENTED_EDGE ( 'NONE', *, *, #665, .F. ) ;
#824 = CIRCLE ( 'NONE', #678, 6.000000000000000900 ) ;
#825 = ORIENTED_EDGE ( 'NONE', *, *, #571, .F. ) ;
#826 = VECTOR ( 'NONE', #144, 1000.000000000000000 ) ;
#827 = CIRCLE ( 'NONE', #679, 0.2199999999999997000 ) ;
#828 = CIRCLE ( 'NONE', #684, 6.220000000000000600 ) ;
#829 = ORIENTED_EDGE ( 'NONE', *, *, #597, .T. ) ;
#830 = CIRCLE ( 'NONE', #694, 10.77999999999999900 ) ;
#831 = LINE ( 'NONE', #135, #835 ) ;
#832 = ORIENTED_EDGE ( 'NONE', *, *, #665, .T. ) ;
#833 = LINE ( 'NONE', #145, #826 ) ;
#834 = CIRCLE ( 'NONE', #594, 6.220000000000000600 ) ;
#835 = VECTOR ( 'NONE', #134, 1000.000000000000000 ) ;
#836 = CIRCLE ( 'NONE', #592, 6.000000000000000900 ) ;
#837 = CIRCLE ( 'NONE', #699, 11.00000000000000000 ) ;
#838 = VECTOR ( 'NONE', #246, 1000.000000000000100 ) ;
#839 = VECTOR ( 'NONE', #266, 1000.000000000000000 ) ;
#840 = LINE ( 'NONE', #247, #838 ) ;
#841 = VECTOR ( 'NONE', #270, 1000.000000000000100 ) ;
#842 = VECTOR ( 'NONE', #272, 999.9999999999998900 ) ;
#843 = LINE ( 'NONE', #274, #842 ) ;
#844 = CIRCLE ( 'NONE', #588, 0.2199999999999997000 ) ;
#845 = LINE ( 'NONE', #282, #853 ) ;
#846 = LINE ( 'NONE', #276, #841 ) ;
#847 = LINE ( 'NONE', #271, #839 ) ;
#848 = LINE ( 'NONE', #283, #1066 ) ;
#849 = CIRCLE ( 'NONE', #642, 6.220000000000000600 ) ;
#850 = LINE ( 'NONE', #341, #854 ) ;
#851 = CIRCLE ( 'NONE', #609, 0.2199999999999997000 ) ;
#852 = CIRCLE ( 'NONE', #685, 10.77999999999999900 ) ;
#853 = VECTOR ( 'NONE', #275, 1000.000000000000000 ) ;
#854 = VECTOR ( 'NONE', #325, 999.9999999999998900 ) ;
#855 = VECTOR ( 'NONE', #340, 1000.000000000000000 ) ;
#856 = CIRCLE ( 'NONE', #565, 0.2200000000000000000 ) ;
#857 = LINE ( 'NONE', #365, #1004 ) ;
#858 = CIRCLE ( 'NONE', #610, 0.2200000000000000000 ) ;
#859 = EDGE_LOOP ( 'NONE', ( #1051, #1076, #867, #983 ) ) ;
#860 = EDGE_LOOP ( 'NONE', ( #967, #966 ) ) ;
#861 = EDGE_LOOP ( 'NONE', ( #965, #964 ) ) ;
#862 = EDGE_LOOP ( 'NONE', ( #936, #935, #934, #933 ) ) ;
#863 = PERSON_AND_ORGANIZATION ( #1095, #734 ) ;
#864 = EDGE_LOOP ( 'NONE', ( #963, #962, #961 ) ) ;
#865 = EDGE_LOOP ( 'NONE', ( #982, #981, #980, #979 ) ) ;
#866 = EDGE_LOOP ( 'NONE', ( #948, #947, #946, #945 ) ) ;
#867 = ORIENTED_EDGE ( 'NONE', *, *, #715, .F. ) ;
#868 = EDGE_LOOP ( 'NONE', ( #971, #970, #969, #968 ) ) ;
#869 = EDGE_LOOP ( 'NONE', ( #960, #959, #958, #957, #956, #955 ) ) ;
#870 = EDGE_LOOP ( 'NONE', ( #954, #953 ) ) ;
#871 = EDGE_LOOP ( 'NONE', ( #932, #931, #930, #916 ) ) ;
#872 = EDGE_LOOP ( 'NONE', ( #907, #905, #911, #906 ) ) ;
#873 = DATE_AND_TIME ( #746, #743 ) ;
#874 = EDGE_LOOP ( 'NONE', ( #998, #991 ) ) ;
#875 = EDGE_LOOP ( 'NONE', ( #1024, #986, #748, #987 ) ) ;
#876 = EDGE_LOOP ( 'NONE', ( #1013, #989, #801, #774 ) ) ;
#877 = EDGE_LOOP ( 'NONE', ( #898, #895, #896, #1092 ) ) ;
#878 = EDGE_LOOP ( 'NONE', ( #789, #740 ) ) ;
#879 = EDGE_LOOP ( 'NONE', ( #904, #908, #897, #901 ) ) ;
#880 = EDGE_LOOP ( 'NONE', ( #1060, #990 ) ) ;
#881 = EDGE_LOOP ( 'NONE', ( #1026, #823, #806, #1015 ) ) ;
#882 = EDGE_LOOP ( 'NONE', ( #1089, #1074, #1093, #790 ) ) ;
#883 = EDGE_LOOP ( 'NONE', ( #1056, #1032, #1006, #825 ) ) ;
#884 = EDGE_LOOP ( 'NONE', ( #760, #984 ) ) ;
#885 = EDGE_LOOP ( 'NONE', ( #1050, #829, #832, #985 ) ) ;
#886 = EDGE_LOOP ( 'NONE', ( #1012, #782 ) ) ;
#887 = EDGE_LOOP ( 'NONE', ( #902, #910, #899, #903 ) ) ;
#888 = EDGE_LOOP ( 'NONE', ( #1003, #795, #1072, #1043 ) ) ;
#889 = EDGE_LOOP ( 'NONE', ( #780, #1078, #1027, #1017 ) ) ;
#890 = EDGE_LOOP ( 'NONE', ( #900, #909, #912, #913 ) ) ;
#891 = EDGE_LOOP ( 'NONE', ( #1042, #1018 ) ) ;
#892 = EDGE_LOOP ( 'NONE', ( #975, #974, #973, #972 ) ) ;
#893 = EDGE_LOOP ( 'NONE', ( #781, #1054, #997, #757 ) ) ;
#894 = EDGE_LOOP ( 'NONE', ( #924, #914, #915, #929, #928, #927 ) ) ;
#895 = ORIENTED_EDGE ( 'NONE', *, *, #576, .T. ) ;
#896 = ORIENTED_EDGE ( 'NONE', *, *, #605, .F. ) ;
#897 = ORIENTED_EDGE ( 'NONE', *, *, #695, .F. ) ;
#898 = ORIENTED_EDGE ( 'NONE', *, *, #606, .T. ) ;
#899 = ORIENTED_EDGE ( 'NONE', *, *, #580, .F. ) ;
#900 = ORIENTED_EDGE ( 'NONE', *, *, #645, .F. ) ;
#901 = ORIENTED_EDGE ( 'NONE', *, *, #573, .F. ) ;
#902 = ORIENTED_EDGE ( 'NONE', *, *, #600, .F. ) ;
#903 = ORIENTED_EDGE ( 'NONE', *, *, #574, .F. ) ;
#904 = ORIENTED_EDGE ( 'NONE', *, *, #577, .F. ) ;
#905 = ORIENTED_EDGE ( 'NONE', *, *, #681, .T. ) ;
#906 = ORIENTED_EDGE ( 'NONE', *, *, #578, .F. ) ;
#907 = ORIENTED_EDGE ( 'NONE', *, *, #714, .F. ) ;
#908 = ORIENTED_EDGE ( 'NONE', *, *, #706, .T. ) ;
#909 = ORIENTED_EDGE ( 'NONE', *, *, #683, .T. ) ;
#910 = ORIENTED_EDGE ( 'NONE', *, *, #587, .T. ) ;
#911 = ORIENTED_EDGE ( 'NONE', *, *, #703, .F. ) ;
#912 = ORIENTED_EDGE ( 'NONE', *, *, #707, .F. ) ;
#913 = ORIENTED_EDGE ( 'NONE', *, *, #614, .F. ) ;
#914 = ORIENTED_EDGE ( 'NONE', *, *, #641, .T. ) ;
#915 = ORIENTED_EDGE ( 'NONE', *, *, #682, .T. ) ;
#916 = ORIENTED_EDGE ( 'NONE', *, *, #667, .T. ) ;
#917 = ORIENTED_EDGE ( 'NONE', *, *, #644, .T. ) ;
#918 = ORIENTED_EDGE ( 'NONE', *, *, #667, .F. ) ;
#919 = ORIENTED_EDGE ( 'NONE', *, *, #682, .F. ) ;
#920 = ORIENTED_EDGE ( 'NONE', *, *, #677, .T. ) ;
#921 = ORIENTED_EDGE ( 'NONE', *, *, #658, .T. ) ;
#922 = ORIENTED_EDGE ( 'NONE', *, *, #641, .F. ) ;
#923 = ORIENTED_EDGE ( 'NONE', *, *, #708, .T. ) ;
#924 = ORIENTED_EDGE ( 'NONE', *, *, #713, .T. ) ;
#925 = ORIENTED_EDGE ( 'NONE', *, *, #658, .F. ) ;
#926 = FACE_OUTER_BOUND ( 'NONE', #1065, .T. ) ;
#927 = ORIENTED_EDGE ( 'NONE', *, *, #639, .T. ) ;
#928 = ORIENTED_EDGE ( 'NONE', *, *, #589, .T. ) ;
#929 = ORIENTED_EDGE ( 'NONE', *, *, #562, .T. ) ;
#930 = ORIENTED_EDGE ( 'NONE', *, *, #562, .F. ) ;
#931 = ORIENTED_EDGE ( 'NONE', *, *, #704, .F. ) ;
#932 = ORIENTED_EDGE ( 'NONE', *, *, #604, .T. ) ;
#933 = ORIENTED_EDGE ( 'NONE', *, *, #704, .T. ) ;
#934 = ORIENTED_EDGE ( 'NONE', *, *, #589, .F. ) ;
#935 = ORIENTED_EDGE ( 'NONE', *, *, #711, .F. ) ;
#936 = ORIENTED_EDGE ( 'NONE', *, *, #698, .T. ) ;
#937 = ORIENTED_EDGE ( 'NONE', *, *, #711, .T. ) ;
#938 = ORIENTED_EDGE ( 'NONE', *, *, #639, .F. ) ;
#939 = ORIENTED_EDGE ( 'NONE', *, *, #647, .F. ) ;
#940 = ORIENTED_EDGE ( 'NONE', *, *, #691, .T. ) ;
#941 = ORIENTED_EDGE ( 'NONE', *, *, #647, .T. ) ;
#942 = ORIENTED_EDGE ( 'NONE', *, *, #713, .F. ) ;
#943 = ORIENTED_EDGE ( 'NONE', *, *, #708, .F. ) ;
#944 = ORIENTED_EDGE ( 'NONE', *, *, #595, .T. ) ;
#945 = ORIENTED_EDGE ( 'NONE', *, *, #700, .F. ) ;
#946 = ORIENTED_EDGE ( 'NONE', *, *, #716, .T. ) ;
#947 = ORIENTED_EDGE ( 'NONE', *, *, #709, .T. ) ;
#948 = ORIENTED_EDGE ( 'NONE', *, *, #712, .F. ) ;
#949 = ORIENTED_EDGE ( 'NONE', *, *, #709, .F. ) ;
#950 = ORIENTED_EDGE ( 'NONE', *, *, #705, .T. ) ;
#951 = ORIENTED_EDGE ( 'NONE', *, *, #710, .T. ) ;
#952 = ORIENTED_EDGE ( 'NONE', *, *, #581, .F. ) ;
#953 = ORIENTED_EDGE ( 'NONE', *, *, #710, .F. ) ;
#954 = ORIENTED_EDGE ( 'NONE', *, *, #660, .F. ) ;
#955 = ORIENTED_EDGE ( 'NONE', *, *, #677, .F. ) ;
#956 = ORIENTED_EDGE ( 'NONE', *, *, #604, .F. ) ;
#957 = ORIENTED_EDGE ( 'NONE', *, *, #698, .F. ) ;
#958 = ORIENTED_EDGE ( 'NONE', *, *, #691, .F. ) ;
#959 = ORIENTED_EDGE ( 'NONE', *, *, #595, .F. ) ;
#960 = ORIENTED_EDGE ( 'NONE', *, *, #644, .F. ) ;
#961 = ORIENTED_EDGE ( 'NONE', *, *, #659, .T. ) ;
#962 = ORIENTED_EDGE ( 'NONE', *, *, #586, .T. ) ;
#963 = ORIENTED_EDGE ( 'NONE', *, *, #680, .F. ) ;
#964 = ORIENTED_EDGE ( 'NONE', *, *, #559, .T. ) ;
#965 = ORIENTED_EDGE ( 'NONE', *, *, #634, .T. ) ;
#966 = ORIENTED_EDGE ( 'NONE', *, *, #687, .F. ) ;
#967 = ORIENTED_EDGE ( 'NONE', *, *, #659, .F. ) ;
#968 = ORIENTED_EDGE ( 'NONE', *, *, #700, .T. ) ;
#969 = ORIENTED_EDGE ( 'NONE', *, *, #591, .T. ) ;
#970 = ORIENTED_EDGE ( 'NONE', *, *, #634, .F. ) ;
#971 = ORIENTED_EDGE ( 'NONE', *, *, #572, .F. ) ;
#972 = ORIENTED_EDGE ( 'NONE', *, *, #591, .F. ) ;
#973 = ORIENTED_EDGE ( 'NONE', *, *, #715, .T. ) ;
#974 = ORIENTED_EDGE ( 'NONE', *, *, #572, .T. ) ;
#975 = ORIENTED_EDGE ( 'NONE', *, *, #559, .F. ) ;
#976 = ORIENTED_EDGE ( 'NONE', *, *, #687, .T. ) ;
#977 = ORIENTED_EDGE ( 'NONE', *, *, #680, .T. ) ;
#978 = ORIENTED_EDGE ( 'NONE', *, *, #586, .F. ) ;
#979 = ORIENTED_EDGE ( 'NONE', *, *, #705, .F. ) ;
#980 = ORIENTED_EDGE ( 'NONE', *, *, #566, .F. ) ;
#981 = ORIENTED_EDGE ( 'NONE', *, *, #581, .T. ) ;
#982 = ORIENTED_EDGE ( 'NONE', *, *, #660, .T. ) ;
#983 = ORIENTED_EDGE ( 'NONE', *, *, #716, .F. ) ;
#984 = ORIENTED_EDGE ( 'NONE', *, *, #686, .T. ) ;
#985 = ORIENTED_EDGE ( 'NONE', *, *, #688, .F. ) ;
#986 = ORIENTED_EDGE ( 'NONE', *, *, #707, .T. ) ;
#987 = ORIENTED_EDGE ( 'NONE', *, *, #600, .T. ) ;
#988 = CONICAL_SURFACE ( 'NONE', #602, 0.7499999999999996700, 0.5235987755982957100 ) ;
#989 = ORIENTED_EDGE ( 'NONE', *, *, #575, .T. ) ;
#990 = ORIENTED_EDGE ( 'NONE', *, *, #669, .F. ) ;
#991 = ORIENTED_EDGE ( 'NONE', *, *, #583, .T. ) ;
#992 = VECTOR ( 'NONE', #366, 1000.000000000000100 ) ;
#993 = TOROIDAL_SURFACE ( 'NONE', #596, 6.220000000000000600, 0.2200000000000000000 ) ;
#994 = FACE_OUTER_BOUND ( 'NONE', #1034, .T. ) ;
#995 = CONICAL_SURFACE ( 'NONE', #579, 3.000000000000000000, 0.7853981633974472800 ) ;
#996 = LINE ( 'NONE', #461, #992 ) ;
#997 = ORIENTED_EDGE ( 'NONE', *, *, #561, .T. ) ;
#998 = ORIENTED_EDGE ( 'NONE', *, *, #605, .T. ) ;
#999 = APPROVAL_DATE_TIME ( #1061, #617 ) ;
#1000 = CYLINDRICAL_SURFACE ( 'NONE', #624, 2.999999999999999100 ) ;
#1001 = FACE_OUTER_BOUND ( 'NONE', #868, .T. ) ;
#1002 = FACE_OUTER_BOUND ( 'NONE', #892, .T. ) ;
#1003 = ORIENTED_EDGE ( 'NONE', *, *, #576, .F. ) ;
#1004 = VECTOR ( 'NONE', #342, 1000.000000000000000 ) ;
#1005 = CIRCLE ( 'NONE', #666, 2.165063509461079100 ) ;
#1006 = ORIENTED_EDGE ( 'NONE', *, *, #573, .T. ) ;
#1007 = CIRCLE ( 'NONE', #663, 3.000000000000000900 ) ;
#1008 = TOROIDAL_SURFACE ( 'NONE', #568, 10.77999999999999900, 0.2200000000000000000 ) ;
#1009 = TOROIDAL_SURFACE ( 'NONE', #560, 6.220000000000000600, 0.2200000000000000000 ) ;
#1010 = CONICAL_SURFACE ( 'NONE', #570, 2.165063509461079100, 0.7853981633974465000 ) ;
#1011 = FACE_BOUND ( 'NONE', #886, .T. ) ;
#1012 = ORIENTED_EDGE ( 'NONE', *, *, #580, .T. ) ;
#1013 = ORIENTED_EDGE ( 'NONE', *, *, #714, .T. ) ;
#1014 = APPROVAL_PERSON_ORGANIZATION ( #863, #617, #215 ) ;
#1015 = ORIENTED_EDGE ( 'NONE', *, *, #601, .F. ) ;
#1016 = CIRCLE ( 'NONE', #590, 11.00000000000000000 ) ;
#1017 = ORIENTED_EDGE ( 'NONE', *, *, #631, .F. ) ;
#1018 = ORIENTED_EDGE ( 'NONE', *, *, #577, .T. ) ;
#1019 = FACE_OUTER_BOUND ( 'NONE', #881, .T. ) ;
#1020 = CYLINDRICAL_SURFACE ( 'NONE', #693, 6.000000000000000900 ) ;
#1021 = TOROIDAL_SURFACE ( 'NONE', #635, 10.77999999999999900, 0.2200000000000000000 ) ;
#1022 = CYLINDRICAL_SURFACE ( 'NONE', #692, 3.000000000000000400 ) ;
#1023 = EDGE_LOOP ( 'NONE', ( #920, #918, #919, #921 ) ) ;
#1024 = ORIENTED_EDGE ( 'NONE', *, *, #597, .F. ) ;
#1025 = CLOSED_SHELL ( 'NONE', ( #538, #536, #537, #533, #543, #541, #544, #542, #556, #555, #558, #557, #547, #546, #549, #548, #545 ) ) ;
#1026 = ORIENTED_EDGE ( 'NONE', *, *, #587, .F. ) ;
#1027 = ORIENTED_EDGE ( 'NONE', *, *, #614, .T. ) ;
#1028 = CLOSED_SHELL ( 'NONE', ( #540, #551, #554, #552, #550, #553, #531, #532, #529, #530, #528, #527, #526, #539, #534, #535 ) ) ;
#1029 = CYLINDRICAL_SURFACE ( 'NONE', #656, 11.00000000000000000 ) ;
#1030 = CYLINDRICAL_SURFACE ( 'NONE', #567, 6.000000000000000900 ) ;
#1031 = FACE_OUTER_BOUND ( 'NONE', #875, .T. ) ;
#1032 = ORIENTED_EDGE ( 'NONE', *, *, #607, .F. ) ;
#1033 = FACE_OUTER_BOUND ( 'NONE', #889, .T. ) ;
#1034 = EDGE_LOOP ( 'NONE', ( #944, #943, #942, #941 ) ) ;
#1035 = VECTOR ( 'NONE', #511, 1000.000000000000000 ) ;
#1036 = FACE_OUTER_BOUND ( 'NONE', #879, .T. ) ;
#1037 = FACE_BOUND ( 'NONE', #878, .T. ) ;
#1038 = FACE_OUTER_BOUND ( 'NONE', #876, .T. ) ;
#1039 = TOROIDAL_SURFACE ( 'NONE', #582, 6.220000000000000600, 0.2200000000000000000 ) ;
#1040 = FACE_OUTER_BOUND ( 'NONE', #887, .T. ) ;
#1041 = FACE_OUTER_BOUND ( 'NONE', #888, .T. ) ;
#1042 = ORIENTED_EDGE ( 'NONE', *, *, #607, .T. ) ;
#1043 = ORIENTED_EDGE ( 'NONE', *, *, #583, .F. ) ;
#1044 = FACE_OUTER_BOUND ( 'NONE', #859, .T. ) ;
#1045 = FACE_OUTER_BOUND ( 'NONE', #1059, .T. ) ;
#1046 = FACE_OUTER_BOUND ( 'NONE', #865, .T. ) ;
#1047 = CONICAL_SURFACE ( 'NONE', #690, 3.000000000000000000, 0.7853981633974472800 ) ;
#1048 = CYLINDRICAL_SURFACE ( 'NONE', #615, 11.00000000000000000 ) ;
#1049 = FACE_OUTER_BOUND ( 'NONE', #864, .T. ) ;
#1050 = ORIENTED_EDGE ( 'NONE', *, *, #631, .T. ) ;
#1051 = ORIENTED_EDGE ( 'NONE', *, *, #566, .T. ) ;
#1052 = LINE ( 'NONE', #355, #1070 ) ;
#1053 = FACE_BOUND ( 'NONE', #860, .T. ) ;
#1054 = ORIENTED_EDGE ( 'NONE', *, *, #599, .T. ) ;
#1055 = EDGE_LOOP ( 'NONE', ( #978, #977, #976 ) ) ;
#1056 = ORIENTED_EDGE ( 'NONE', *, *, #706, .F. ) ;
#1057 = TOROIDAL_SURFACE ( 'NONE', #598, 10.77999999999999900, 0.2200000000000000000 ) ;
#1058 = FACE_BOUND ( 'NONE', #869, .T. ) ;
#1059 = EDGE_LOOP ( 'NONE', ( #952, #951, #950, #949 ) ) ;
#1060 = ORIENTED_EDGE ( 'NONE', *, *, #606, .F. ) ;
#1061 = DATE_AND_TIME ( #768, #1071 ) ;
#1062 = FACE_OUTER_BOUND ( 'NONE', #1055, .T. ) ;
#1063 = FACE_OUTER_BOUND ( 'NONE', #861, .T. ) ;
#1064 = COORDINATED_UNIVERSAL_TIME_OFFSET ( 6, 0, .BEHIND. ) ;
#1065 = EDGE_LOOP ( 'NONE', ( #940, #939, #938, #937 ) ) ;
#1066 = VECTOR ( 'NONE', #281, 1000.000000000000100 ) ;
#1067 = FACE_OUTER_BOUND ( 'NONE', #870, .T. ) ;
#1068 = VECTOR ( 'NONE', #364, 1000.000000000000000 ) ;
#1069 = LINE ( 'NONE', #344, #855 ) ;
#1070 = VECTOR ( 'NONE', #354, 999.9999999999998900 ) ;
#1071 = LOCAL_TIME ( 10, 9, 42.00000000000000000, #1064 ) ;
#1072 = ORIENTED_EDGE ( 'NONE', *, *, #564, .T. ) ;
#1073 = FACE_OUTER_BOUND ( 'NONE', #871, .T. ) ;
#1074 = ORIENTED_EDGE ( 'NONE', *, *, #599, .F. ) ;
#1075 = FACE_OUTER_BOUND ( 'NONE', #872, .T. ) ;
#1076 = ORIENTED_EDGE ( 'NONE', *, *, #712, .T. ) ;
#1077 = FACE_OUTER_BOUND ( 'NONE', #883, .T. ) ;
#1078 = ORIENTED_EDGE ( 'NONE', *, *, #608, .F. ) ;
#1079 = FACE_OUTER_BOUND ( 'NONE', #1023, .T. ) ;
#1080 = FACE_OUTER_BOUND ( 'NONE', #890, .T. ) ;
#1081 = FACE_OUTER_BOUND ( 'NONE', #882, .T. ) ;
#1082 = FACE_OUTER_BOUND ( 'NONE', #862, .T. ) ;
#1083 = TOROIDAL_SURFACE ( 'NONE', #563, 10.77999999999999900, 0.2200000000000000000 ) ;
#1084 = CONICAL_SURFACE ( 'NONE', #585, 2.165063509461079100, 0.7853981633974465000 ) ;
#1085 = CYLINDRICAL_SURFACE ( 'NONE', #593, 2.999999999999999100 ) ;
#1086 = FACE_BOUND ( 'NONE', #874, .T. ) ;
#1087 = FACE_OUTER_BOUND ( 'NONE', #866, .T. ) ;
#1088 = LINE ( 'NONE', #328, #1035 ) ;
#1089 = ORIENTED_EDGE ( 'NONE', *, *, #681, .F. ) ;
#1090 = FACE_OUTER_BOUND ( 'NONE', #777, .T. ) ;
#1091 = FACE_BOUND ( 'NONE', #880, .T. ) ;
#1092 = ORIENTED_EDGE ( 'NONE', *, *, #564, .F. ) ;
#1093 = ORIENTED_EDGE ( 'NONE', *, *, #578, .T. ) ;
#1094 = PRODUCT ( '57485K69', '57485K69', '', ( #171 ) ) ;
#1095 = PERSON ( 'UNSPECIFIED', 'UNSPECIFIED', 'UNSPECIFIED', ('UNSPECIFIED'), ('UNSPECIFIED'), ('UNSPECIFIED') ) ;
ENDSEC;
END-ISO-10303-21;
